/* XPM */
static char *bullet1682315527[] = {
/* columns rows colors chars-per-pixel */
"15 40 105 2 ",
"   c None",
".  c #312613",
"X  c #352915",
"o  c #3B2B17",
"O  c #3C2D19",
"+  c #402F1A",
"@  c #44331A",
"#  c #503D20",
"$  c #564222",
"%  c #5F4926",
"&  c #5F4B28",
"*  c #5C4D30",
"=  c #634C26",
"-  c #644D29",
";  c #6A4F2A",
":  c #6C522B",
">  c #72562D",
",  c #75582F",
"<  c #7B5A2E",
"1  c #645334",
"2  c #6F5935",
"3  c #665738",
"4  c #725730",
"5  c #765930",
"6  c #7C5D32",
"7  c #735F3C",
"8  c #7E6135",
"9  c #77623D",
"0  c #805D2F",
"q  c #825E31",
"w  c #836235",
"e  c #8A6535",
"r  c #8D6837",
"t  c #866639",
"y  c #896738",
"u  c #8C6A3A",
"i  c #906434",
"p  c #916937",
"a  c #926C3A",
"s  c #9A6E39",
"d  c #96713E",
"f  c #9A733D",
"g  c #A2763E",
"h  c #A4783F",
"j  c #8B6F43",
"k  c #8C7042",
"l  c #8F774B",
"z  c #937343",
"x  c #9D7741",
"c  c #9F7842",
"v  c #947A4C",
"b  c #997E4E",
"n  c #A27740",
"m  c #A37941",
"M  c #AD7C42",
"N  c #B27E43",
"B  c #9F8351",
"V  c #A7844D",
"C  c #AC884E",
"Z  c #B58044",
"A  c #BA8145",
"S  c #B78448",
"D  c #B68B4F",
"F  c #AF8B51",
"G  c #A0875A",
"H  c #A58C5C",
"J  c #AC8F58",
"K  c #B38E53",
"L  c #B69055",
"P  c #B89357",
"I  c #B6955C",
"U  c #BB9558",
"Y  c #A89460",
"T  c #BBA16D",
"R  c #B9A675",
"E  c #C58445",
"W  c #C88647",
"Q  c #D09A58",
"!  c #EDA056",
"~  c #CBA361",
"^  c #C2A569",
"/  c #D1A763",
"(  c #D4A963",
")  c #D0AA6B",
"_  c #DFAF68",
"`  c #D7B87C",
"'  c #E8C074",
"]  c #EDCA7A",
"[  c #CFB681",
"{  c #D2BF89",
"}  c #DCC086",
"|  c #DCCE93",
" . c #E1C584",
".. c #EDD98D",
"X. c #F3D987",
"o. c #DFCFA4",
"O. c #E7D5A8",
"+. c #FDF2AB",
"@. c #F0E8C2",
"#. c #F6F0D5",
"$. c #F6F1D9",
"%. c #FEFDE3",
"&. c #FDF9EA",
"*. c #FFFFF5",
"=. c #FFFFFA",
/* pixels */
"          Y ^ J H 3           ",
"        | ..] V b v l         ",
"      I o. .8 : > : > 3       ",
"      K *.T , > , > > j       ",
"    1 [ =.G w > q q < w       ",
"    k O.*.k w > q e w e 7     ",
"    c #.&.8 < 0 q q q q v     ",
"    F &.$.6 6 < 0 0 , 6 z     ",
"  8 I =.@.: w > w w , < 6 *   ",
"  4 ` =.} : w w u a r p e 9   ",
"  4 ) %.v > w a z f n f f 2   ",
"  > C +.8 5 6 y f f h n s >   ",
"  : z X., > w 6 f n M M s :   ",
"  : d ' , , e w u c S Z s ;   ",
"  = t ( > > u w t c W E f 6   ",
"  v R } B j z d u m S M f u   ",
"X y K ( 5 5 y w u x M E n u o ",
". t K ( , 6 u w a x M E f p o ",
"X u P ( : 6 u y p x M E n p o ",
"X u K / > 6 u w u x n E g u o ",
"X t P ( > 6 u w u n g W g p o ",
"X t K / , 8 t 6 u d g E g p o ",
"& t K / , w w 6 r f g E f r O ",
": u K / : w w < e d f E g r O ",
": t U ( 4 w w 6 r f h A h r O ",
"; t U ( > 6 w 6 r f h E m p + ",
": t I ~ : 6 t w r c g W g p @ ",
"; t U ~ > 6 w w u f g W m p O ",
"- t P ~ 5 w w w e f n W n p O ",
"- t U ~ 6 8 t t e f h W g p O ",
"- y U ~ 6 6 y w u d g E g i O ",
"= u P ~ 5 6 e w r f g E g i o ",
"- u U ~ > 8 w w r f h E h e X ",
"& a U ~ > 8 e w r f g E h e o ",
"- z U ~ , w w w r f g E g q o ",
"- t V P : w w w w d D Q g i o ",
"  : > d > 6 < < < < e e 0 =   ",
"  $ w _ > , w 6 e a E N s =   ",
"# 5 u 8 > 6 t e q u A ! M i O ",
"@ : > 8 6 6 6 w w e K P s <   "
};
