/* XPM */
static char *door_closing21682521392[] = {
/* columns rows colors chars-per-pixel */
"96 96 30 1 ",
"  c #546D8E",
". c black",
"F c black",
"X c #201808",
"o c #A898B8",
"O c #482860",
"+ c #D860B8",
"@ c #685080",
"# c #9070A8",
"$ c #A83090",
"% c #802880",
"& c #8058A0",
"* c #C848A8",
"= c #503868",
"- c #604878",
"; c #602068",
": c #481828",
"> c #302040",
", c #B00038",
"< c #C84800",
"1 c #E09008",
"2 c #F8C800",
"3 c #482818",
"4 c black",
"5 c #705020",
"6 c #806020",
"7 c #A88018",
"8 c #604018",
"9 c #907018",
"0 c white",
/* pixels */
".XX.................................X.......XX....XX.......X.................................XX.",
".XoX........................XXXXXX.XOX.....X+X....X+X.....XOX.XXXXXX........................XoX.",
".X@#X.....................XX$+++%X.X&X....X*+X....X+*X....X&X.X%+++$XX.....................X#@X.",
".X=o#X..................XX%*+++$X..X#X...X$%+X....X+%$X...X#X..X$+++*%XX..................X#o=X.",
".X=-o#XX...............X%**;::+%X.XO#OX.X%$;*X....X*;$%X.XO#OX.X%+::;**%X...............XX#o-=X.",
".X==@o#-XX............X%*%;:::+X..X-#-X.X$;;$X....X$;;$X.X-#-X..X+:::;%*%X............XX-#o@==X.",
".X==-#o#&=XX.........X%*%;::::*X.XO&#&OX;$;:$X....X$:;$;XO&#&OX.X*::::;%*%X.........XX=&#o#-==X.",
".X===&#o#&&=XXX.....X%*%;:;;::*X.X-##&-X$%;:%XXXXXX%:;%$X-&##-X.X*::;;:;%*%X.....XXX=&&#o#&===X.",
".XO==@##oo#&&@=XXXXX%$%;:%%%;:$%XO&##&-X$;;::%%%%%%::;;$X-&##&OX%$:;%%%:;%$%XXXXX=@&&#oo##@==OX.",
".X>==-####oo###&&@-X$%;;%%%%;;%*XXXXXXX;%::%$$$$$$$$%::%;XXXXXXX*%;;%%%%;;%$X-@&&###oo####-==>X.",
"..X===##&#&#ooo###X%$;;%%%%%%;%*X&&&&@X;:$$$$******$$$$:;X@&&&&X*%;%%%%%%;;$%X###ooo#&#&##===X..",
"..X===#&#&&&@&#oooX$%;%%%;%%%;;$%X#&&&X:$$$$*++++++*$$$$:X&&&#X%$;;%%%;%%%;%$Xooo#&@&&&#&#===X..",
"..X===##&&&@@@@@@@X$%;%%%%%%%%;%$%X&&X:%$$$$*++++++*$$$$%:X&&X%$%;%%%%%%%%;%$X@@@@@@@&&&##===X..",
"..X===&#&&&@&@@@@X%$;;%%%%;%%%;:%$%XXX:%$$%$*++++++*$%$$%:XXX%$%:;%%%;%%%%;;$%X@@@@&@&&&#&===X..",
"..XO==@#&@@@@@@@@X$%;%%%;;;%%;%;:%$%X:,,%$$$$******$$$$%,,:X%$%:;%;%%;;;%%%;%$X@@@@@@@@&#@==OX..",
"..X>==-#&@&&@@@@@X$;;;;:XXXX;%%%;::::,<<,%$$$$$$$$$$$$%,<<,::::;%%%;XXXX:;;;;$X@@@@@&&@&#-==>X..",
"...X===&&@&&@@@@@X$;;XXXOOOOXX:;;;:X%,<1<,,%%%%%%%%%%,,<1<,%X:;;;:XXOOOOXXX;;$X@@@@@&&@&&===X...",
"...X===&&@@@@@@@@X%;XOOOOOOOOOX:;;;X$,<121<,,;;;;;;,,<121<,$X;;;:XOOOOOOOOOX;%X@@@@@@@@&&===X...",
"...X===@&@@@@@@@@X%XOOO==----=OXX:;X$,<12221<,,XX,,<12221<,$X;:XXO=----==OOOX%X@@@@@@@@&@===X...",
"...XO==-&@@@@@@@@@XOOO=-@@@=O@=OOX:X%,<122221<,::,<122221<,%X:XOO=@O=@@@-=OOOX@@@@@@@@@&-==OX...",
"...X>===&@@@@@@@@@=OO=-@@@=O>-&@=OXX;+,<1221<,,%%,,<1221<,+;XXO=@&->O=@@@-=OO=@@@@@@@@@&===>X...",
"....X===@&@@@@@@@@@=O-@@@=O>O=&@-=OX;%+,,,,,,$$$$$$,,,,,,+%;XO=-@&=O>O=@@@-O=@@@@@@@@@&@===X....",
"....XO==-&@@@@@@@@@@=@@@=OO>O=@&@=OX:;%+*****$$%%$$*****+%;:XO=@&@=O>OO=@@@=@@@@@@@@@@&-==OX....",
"...XX>===@&@@@@@@@@@@@@=OOO>OO-&@-OOX;;;%$$$$%;::;%$$$$%;;;XOO-@&-OO>OOO=@@@@@@@@@@@@&@===>XX...",
"...X=>===-&@@@@@@@@@@@=OOO>>OO=&@@=OX:;;;;;;;:XXXX:;;;;;;;:XO=@@&=OO>>OOO=@@@@@@@@@@@&-===>=X...",
"..X=->O==-@&&@@@@@@@@-OOO>O>OOO-&@-=OX:;;;::XX:;;:XX::;;;:XO=-@&-OOO>O>OOO-@@@@@@@@&&@-==O>-=X..",
"..X@-O>=-O=-@&&@@@@@@=OO>O=O>OO=-&@-=XX:::XX:;;;;;;:XX:::XX=-@&-=OO>O=O>OO=@@@@@@&&@-=O-=>O-@X..",
".X=&-=>OOOOO=-@&&@@@-OO>O=-=>OOO=-&@-X:%$;X;;;;;;;;;;X;$%:X-@&-=OOO>=-=O>OO-@@@&&@-=OOOOO>=-&=X.",
".X@&--O>OOOOOO=-@&&&=OO>=---O>OOO=-&@-X%$;X::::::::::X;$%X-@&-=OOO>O---=>OO=&&&@-=OOOOOO>O--&@X.",
".X&@---=>>OOOOOO=-@->O>O----=O>OOO=-&@X;%:XXXXXXXXXXXX:%;X@&-=OOO>O=----O>O>-@-=OOOOOO>>=---@&X.",
".X&-----=O>>OOOOOOOO>O>=-----=O>OOO=-&X:;XOOOOOOOOOOOOX;:X&-=OOO>O=-----=>O>OOOOOOOO>>O=-----&X.",
".X&-------=O>>OOOOOO>O>-------=O>OOO=-@XXOOO========OOOXX@-=OOO>O=------->O>OOOOOO>>O=-------&X.",
".X&---------=O>>OOOO>>O-@@@@@--=O>OOOOOOOOOOOOOOOOOOOOOOOOOOOO>O=--@@@@@-O>>OOOO>>O=---------&X.",
".X&-----------=O>>>>>>OOOOOOOOOOOO>OOOOO>>OOOOOOOOOOOO>>OOOOO>OOOOOOOOOOOO>>>>>>O=-----------&X.",
".X&---@---------=O>>>>>>>>>>>>>>>>XX>>>>>>>>>>>>>>>>>>>>>>>>XX>>>>>>>>>>>>>>>>O=---------@---&X.",
".X&@------=------=OOXXXXXXXXXXXXXXXXXXXXXXXXXXXXXXXXXXXXXXXXXXXXXXXXXXXXXXXXOO=------=------@&X.",
".X@&-----------@=OO333333333333333333333333334FFFF433333333333333333333333333OO=@-----------&@X.",
".XO@&---------@=OO>333333333333333333333333334FFFF433333333333333333333333333>OO=@---------&@OX.",
"..XO@&-------@=OO>3355555555555555555555553334FFFF4333555555555555555555555533>OO=@-------&@OX..",
"..XOO@&-----@=OO>X3566666666666666666666663334FFFF4333666666666666666666666653X>OO=@-----&@OOX..",
"..XOOO-&---@=OO>X36777633333333333333337773334FFFF43337773333333333333333677763X>OO=@---&-OOOX..",
"..X>OOO-@-@=OO>>X86777388888888888888887773334FFFF43337778888888888888888377768X>>OO=@-@-OOO>X..",
"..XX>OOO-@=OO>O>X86775866666666666666587773334FFFF43337778566666666666666857768X>O>OO=@-OOO>XX..",
"..XOO>OOO=OO>O=>X86768599999999999999687773334FFFF43337778699999999999999586768X>=O>OO=OOO>OOX..",
"..XO=O>OOOO>O==>X86788699999999999999687773334FFFF43337778699999999999999688768X>==O>OOOO>O=OX..",
"..XO-=O>OOO>O==>X86785999999999999999687773334FFFF43337778699999999999999958768X>==O>OOO>O=-OX..",
"..XO@-=O>OO>O==>X86785999999999999999687773334FFFF43337778699999999999999958768X>==O>OO>O=-@OX..",
"..X>@--=O>O>O=->X86785999999999999999687773334FFFF43337778699999999999999958768X>-=O>O>O=--@>X..",
"..X>>&--=O>>O=->X86785999999969999999687773334FFFF43337778699999996999999958768X>-=O>>O=--&>>X..",
"...X>>&---=OO=->X86785999999959999999687773334FFFF43337778699999995999999958768X>-=OO=---&>>X...",
"...XO>>&----==->X86785999999656999999687773334FFFF43337778699999965699999958768X>-==----&>>OX...",
"...XO=>>&----=->X86785999999555999999687773334FFFF43337778699999955599999958768X>-=----&>>=OX...",
"...XO@O>>&----->X86785999996555699999687773334FFFF43337778699999655569999958768X>-----&>>O@OX...",
"...XO@=O>>&---->X86785999995555599999687773334FFFF43337778699999555559999958768X>----&>>O=@OX...",
"...XO@==O>>&--->X86785999965555569999687773334FFFF43337778699996555556999958768X>---&>>O==@OX...",
"...XO@===O>>&-->X86785999955555559999687773334FFFF43337778699995555555999958768X>--&>>O===@OX...",
"...XO@====O>>@->X86785999655555556999687773334FFFF43337778699965555555699958768X>-@>>O====@OX...",
"...XO@=-===O>>->X86785999555555555999687773334FFFF43337778699955555555599958768X>->>O===-=@OX...",
"...XO@=--===O>>>X86785996555555555699687773334FFFF43337778699655555555569958768X>>>O===--=@OX...",
"...XO@----===O>XX86785995555555555599687773334FFFF43337778699555555555559958768XX>O===----@OX...",
"...XO@-----====XX86785965555555555569687773334FFFF43337778696555555555556958768XX====-----@OX...",
"..XXO@------==@>X86785955555555555559687773334FFFF43337778695555555555555958768X>@==------@OXX..",
"..XO>=-------=@>X86785655555555555556687773334FFFF43337778665555555555555658768X>@=-------=>OX..",
"..XO&O=-------@>X86785555555555555555687773334FFFF43337778655555555555555558768X>@-------=O&OX..",
"..XO&&O=-----=@>X86785555555555555555687773334FFFF43337778655555555555555558768X>@=-----=O&&OX..",
"..XO&-&O=-----@>X86785655555555555556687773334FFFF43337778665555555555555658768X>@-----=O&-&OX..",
"..XO@--@O=----@>X86785955555555555559687773334FFFF43337778695555555555555958768X>@----=O@--@OX..",
"..XO@---@O=---@>X86785965555555555569687773334FFFF43337778696555555555556958768X>@---=O@---@OX..",
"..XO@---@O=---@>X86785995555555555599687773334FFFF43337778699555555555559958768X>@---=O@---@OX..",
"..XO@--@OO=---@>X86785996555555555699687773334FFFF43337778699655555555569958768X>@---=OO@--@OX..",
"..XO@-@OO=----@>X86785999555555555999687773334FFFF43337778699955555555599958768X>@----=OO@-@OX..",
"..XO@@OO=-----@>X86785999655555556999687773334FFFF43337778699965555555699958768X>@-----=OO@@OX..",
"..XO@OO=------@>X86785999955555559999687773334FFFF43337778699995555555999958768X>@------=OO@OX..",
"..XO>O=------=@>X86785999965555569999687773334FFFF43337778699996555556999958768X>@=------=O>OX..",
"..XX>@=------=@>X86785999995555599999687773334FFFF43337778699999555559999958768X>@=------=@>XX..",
"..XXO@=------=-XX86785999996555699999687773334FFFF43337778699999655569999958768XX-=------=@OXX..",
"...XO@==-=-=-=>XX86985669999555999999687773334FFFF43337778699999955599996658968XX>=-=-=-==@OX...",
"...XO@=-=-=-=>>>X86785669999656999999637773334FFFF43337773699999965699996658768X>>>=-=-=-=@OX...",
"...XO@==-===>>->X86935666969959996969537993334FFFF43339973596969995996966653968X>->>===-==@OX...",
"...XO-=====>>@@>X86735969696666969696539773334FFFF43337793569696966669696953768X>@@>>=====-OX...",
"...X>-====>>@=@>X86935666669666666666539993334FFFF43339993566666666696666653968X>@=@>>====->X...",
"...X>-==O>>@===>X86638656566655656565539993334FFFF43339993556565655666565683668X>===@>>O==->X...",
"...X>=OO>>@O=O=>X86938555556565565656539693334FFFF43339693565656556565555583968X>=O=O@>>OO=>X...",
"...X>=O>>@O====>X86538555555555555555836663334FFFF43336663855555555555555583568X>====O@>>O=>X...",
"...X>=>>@==O=O=>X85538858858858855585836563334FFFF43336563858555885885885883558X>=O=O==@>>=>X...",
"...X>>>@=OO=OO=>X85538888888888888888835553334FFFF43335553888888888888888883558X>=OO=OO=@>>>X...",
"...X>>@=OOOOOOO>X85838888888888888888835583334FFFF43338553888888888888888883858X>OOOOOOO=@>>X...",
"...X>@=OOOOOOOO>X88538888888888888888838883334FFFF43338883888888888888888883588X>OOOOOOOO=@>X...",
"..XX@=OOOOOOOOO>X88838888888888888888838883334FFFF43338883888888888888888883888X>OOOOOOOOO=@XX..",
"..X>-OOOOOOOOOO>X88838888888888888888838883334FFFF43338883888888888888888883888X>OOOOOOOOOO->X..",
"..X>->OOOOOOOOO>X88838888888888888888838883334FFFF43338883888888888888888883888X>OOOOOOOOO>->X..",
"..X>->OOOOOOO>O>X88836666666666666666638883334FFFF43338883666666666666666663888X>O>OOOOOOO>->X..",
"..X>=>>O>O>O>>O>X88855555555555555555558883334FFFF43338885555555555555555555888X>O>>O>O>O>>=>X..",
"..X>O>O>O>O>O>O>X88888888888888888888888883334FFFF43338888888888888888888888888X>O>O>O>O>O>O>X..",
"..X>O>>>>>>>>>O>O88888888888888888888888883334FFFF43338888888888888888888888888O>O>>>>>>>>>O>X..",
"..XXXXXXXXXXXXXXXXXXXXXXXXXXXXXXXXXXXXXXXXXXXFFFFFFXXXXXXXXXXXXXXXXXXXXXXXXXXXXXXXXXXXXXXXXXXX.."
};
