/* XPM */
static char *door_closed1682521392[] = {
/* columns rows colors chars-per-pixel */
"96 96 25 1 ",
"  c #546D8E",
". c black",
"X c #201808",
"o c #A898B8",
"O c #482860",
"+ c #D860B8",
"@ c #685080",
"# c #9070A8",
"$ c #A83090",
"% c #802880",
"& c #8058A0",
"* c #C848A8",
"= c #503868",
"- c #604878",
"; c #602068",
": c #481828",
"> c #302040",
", c #482818",
"< c #201808",
"1 c #705020",
"2 c #806020",
"3 c #A88018",
"4 c #604018",
"5 c #907018",
"6 c white",
/* pixels */
".XX.................................X.......XX....XX.......X.................................XX.",
".XoX........................XXXXXX.XOX.....X+X....X+X.....XOX.XXXXXX........................XoX.",
".X@#X.....................XX$+++%X.X&X....X*+X....X+*X....X&X.X%+++$XX.....................X#@X.",
".X=o#X..................XX%*+++$X..X#X...X$%+X....X+%$X...X#X..X$+++*%XX..................X#o=X.",
".X=-o#XX...............X%**;::+%X.XO#OX.X%$;*X....X*;$%X.XO#OX.X%+::;**%X...............XX#o-=X.",
".X==@o#-XX............X%*%;:::+X..X-#-X.X$;;$X....X$;;$X.X-#-X..X+:::;%*%X............XX-#o@==X.",
".X==-#o#&=XX.........X%*%;::::*X.XO&#&OX;$;:$X....X$:;$;XO&#&OX.X*::::;%*%X.........XX=&#o#-==X.",
".X===&#o#&&=XXX.....X%*%;:;;::*X.X-##&-X$%;:%XXXXXX%:;%$X-&##-X.X*::;;:;%*%X.....XXX=&&#o#&===X.",
".XO==@##oo#&&@=XXXXX%$%;:%%%;:$%XO&##&-X$;;::%%%%%%::;;$X-&##&OX%$:;%%%:;%$%XXXXX=@&&#oo##@==OX.",
".X>==-####oo###&&@-X$%;;%%%%;;%*XXXXXXX;%::%$$$$$$$$%::%;XXXXXXX*%;;%%%%;;%$X-@&&###oo####-==>X.",
"..X===##&#&#ooo###X%$;;%%%%%%;%*X&&&&@X;:$$$$******$$$$:;X@&&&&X*%;%%%%%%;;$%X###ooo#&#&##===X..",
"..X===#&#&&&@&#oooX$%;%%%;%%%;;$%X#&&&X:$$$$*++++++*$$$$:X&&&#X%$;;%%%;%%%;%$Xooo#&@&&&#&#===X..",
"..X===##&&&@@@@@@@X$%;%%%%%%%%;%$%X&&X:%$$$$*++++++*$$$$%:X&&X%$%;%%%%%%%%;%$X@@@@@@@&&&##===X..",
"..X===&#&&&@&@@@@X%$;;%%%%;%%%;:%$%XXX:%$$%$*++++++*$%$$%:XXX%$%:;%%%;%%%%;;$%X@@@@&@&&&#&===X..",
"..XO==@#&@@@@@@@@X$%;%%%;;;%%;%;:%$%X:X:%$$$$******$$$$%:X:X%$%:;%;%%;;;%%%;%$X@@@@@@@@&#@==OX..",
"..X>==-#&@&&@@@@@X$;;;;:XXXX;%%%;:::::XX:%$$$$$$$$$$$$%:XX:::::;%%%;XXXX:;;;;$X@@@@@&&@&#-==>X..",
"...X===&&@&&@@@@@X$;;XXXOOOOXX:;;;:X%:XXX:;%%%%%%%%%%;:XXX:%X:;;;:XXOOOOXXX;;$X@@@@@&&@&&===X...",
"...X===&&@@@@@@@@X%;XOOOOOOOOOX:;;;X$;XXXXXX:;;;;;;:XXXXXX;$X;;;:XOOOOOOOOOX;%X@@@@@@@@&&===X...",
"...X===@&@@@@@@@@X%XOOO==----=OXX:;X$%:XXXXXXXXXXXXXXXXXX:%$X;:XXO=----==OOOX%X@@@@@@@@&@===X...",
"...XO==-&@@@@@@@@@XOOO=-@@@=O@=OOX:X%$;:XXXXXX::::XXXXXX:;$%X:XOO=@O=@@@-=OOOX@@@@@@@@@&-==OX...",
"...X>===&@@@@@@@@@=OO=-@@@=O>-&@=OXX;+%;:::::;%%%%;:::::;%+;XXO=@&->O=@@@-=OO=@@@@@@@@@&===>X...",
"....X===@&@@@@@@@@@=O-@@@=O>O=&@-=OX;%+%;;;;$$$$$$$$;;;;%+%;XO=-@&=O>O=@@@-O=@@@@@@@@@&@===X....",
"....XO==-&@@@@@@@@@@=@@@=OO>O=@&@=OX:;%+*****$$%%$$*****+%;:XO=@&@=O>OO=@@@=@@@@@@@@@@&-==OX....",
"...XX>===@&@@@@@@@@@@@@=OOO>OO-&@-OOX;;;%$$$$%;::;%$$$$%;;;XOO-@&-OO>OOO=@@@@@@@@@@@@&@===>XX...",
"...X=>===-&@@@@@@@@@@@=OOO>>OO=&@@=OX:;;;;;;;:XXXX:;;;;;;;:XO=@@&=OO>>OOO=@@@@@@@@@@@&-===>=X...",
"..X=->O==-@&&@@@@@@@@-OOO>O>OOO-&@-=OX:;;;::XX:;;:XX::;;;:XO=-@&-OOO>O>OOO-@@@@@@@@&&@-==O>-=X..",
"..X@-O>=-O=-@&&@@@@@@=OO>O=O>OO=-&@-=XX:::XX:;;;;;;:XX:::XX=-@&-=OO>O=O>OO=@@@@@@&&@-=O-=>O-@X..",
".X=&-=>OOOOO=-@&&@@@-OO>O=-=>OOO=-&@-X:%$;X;;;;;;;;;;X;$%:X-@&-=OOO>=-=O>OO-@@@&&@-=OOOOO>=-&=X.",
".X@&--O>OOOOOO=-@&&&=OO>=---O>OOO=-&@-X%$;X::::::::::X;$%X-@&-=OOO>O---=>OO=&&&@-=OOOOOO>O--&@X.",
".X&@---=>>OOOOOO=-@->O>O----=O>OOO=-&@X;%:XXXXXXXXXXXX:%;X@&-=OOO>O=----O>O>-@-=OOOOOO>>=---@&X.",
".X&-----=O>>OOOOOOOO>O>=-----=O>OOO=-&X:;XOOOOOOOOOOOOX;:X&-=OOO>O=-----=>O>OOOOOOOO>>O=-----&X.",
".X&-------=O>>OOOOOO>O>-------=O>OOO=-@XXOOO========OOOXX@-=OOO>O=------->O>OOOOOO>>O=-------&X.",
".X&---------=O>>OOOO>>O-@@@@@--=O>OOOOOOOOOOOOOOOOOOOOOOOOOOOO>O=--@@@@@-O>>OOOO>>O=---------&X.",
".X&-----------=O>>>>>>OOOOOOOOOOOO>OOOOO>>OOOOOOOOOOOO>>OOOOO>OOOOOOOOOOOO>>>>>>O=-----------&X.",
".X&---@---------=O>>>>>>>>>>>>>>>>XX>>>>>>>>>>>>>>>>>>>>>>>>XX>>>>>>>>>>>>>>>>O=---------@---&X.",
".X&@------=------=OOXXXXXXXXXXXXXXXXXXXXXXXXXXXXXXXXXXXXXXXXXXXXXXXXXXXXXXXXOO=------=------@&X.",
".X@&-----------@=OO>X,,,,,,,,,,,,,,,,,,,,,,,,,,<<,,,,,,,,,,,,,,,,,,,,,,,,,,X>OO=@-----------&@X.",
".XO@&---------@=OO>X,,,,,,,,,,,,,,,,,,,,,,,,,,,<<,,,,,,,,,,,,,,,,,,,,,,,,,,,X>OO=@---------&@OX.",
"..XO@&-------@=OO>X,111111111111111111111111111<<111111111111111111111111111,X>OO=@-------&@OX..",
"..XOO@&-----@=OO>X,1222222222222222222222222222<<2222222222222222222222222221,X>OO=@-----&@OOX..",
"..XOOO-&---@=OO>X,2333333,,,,,,,,,,,,,,,,,,3333<<3333,,,,,,,,,,,,,,,,,,3333332,X>OO=@---&-OOOX..",
"..X>OOO-@-@=OO>>X4233333,4444444444444444443333<<3333444444444444444444,3333324X>>OO=@-@-OOO>X..",
"..XX>OOO-@=OO>O>X423333,42222222222222222143333<<33334122222222222222224,333324X>O>OO=@-OOO>XX..",
"..XOO>OOO=OO>O=>X42333,425555555555555555243333<<333342555555555555555524,33324X>=O>OO=OOO>OOX..",
"..XO=O>OOOO>O==>X423344255555555555555555243333<<333342555555555555555552443324X>==O>OOOO>O=OX..",
"..XO-=O>OOO>O==>X423342555555555555555555243333<<333342555555555555555555243324X>==O>OOO>O=-OX..",
"..XO@-=O>OO>O==>X423342555555555555555555243333<<333342555555555555555555243324X>==O>OO>O=-@OX..",
"..X>@--=O>O>O=->X423342555555555555555555243333<<333342555555555555555555243324X>-=O>O>O=--@>X..",
"..X>>&--=O>>O=->X423342555555552255555555243333<<333342555555552255555555243324X>-=O>>O=--&>>X..",
"...X>>&---=OO=->X423342555555551155555555243333<<333342555555551155555555243324X>-=OO=---&>>X...",
"...XO>>&----==->X423342555555521125555555243333<<333342555555521125555555243324X>-==----&>>OX...",
"...XO=>>&----=->X423342555555511115555555243333<<333342555555511115555555243324X>-=----&>>=OX...",
"...XO@O>>&----->X423342555555211112555555243333<<333342555555211112555555243324X>-----&>>O@OX...",
"...XO@=O>>&---->X423342555555111111555555243333<<333342555555111111555555243324X>----&>>O=@OX...",
"...XO@==O>>&--->X423342555552111111255555243333<<333342555552111111255555243324X>---&>>O==@OX...",
"...XO@===O>>&-->X423342555551111111155555243333<<333342555551111111155555243324X>--&>>O===@OX...",
"...XO@====O>>@->X423342555521111111125555243333<<333342555521111111125555243324X>-@>>O====@OX...",
"...XO@=-===O>>->X423342555511111111115555243333<<333342555511111111115555243324X>->>O===-=@OX...",
"...XO@=--===O>>>X423342555211111111112555243333<<333342555211111111112555243324X>>>O===--=@OX...",
"...XO@----===O>XX423342555111111111111555243333<<333342555111111111111555243324XX>O===----@OX...",
"...XO@-----====XX423342552111111111111255243333<<333342552111111111111255243324XX====-----@OX...",
"..XXO@------==@>X423342551111111111111155243333<<333342551111111111111155243324X>@==------@OXX..",
"..XO>=-------=@>X423342521111111111111125243333<<333342521111111111111125243324X>@=-------=>OX..",
"..XO&O=-------@>X423342511111111111111115243333<<333342511111111111111115243324X>@-------=O&OX..",
"..XO&&O=-----=@>X423342511111111111111115243333<<333342511111111111111115243324X>@=-----=O&&OX..",
"..XO&-&O=-----@>X423342521111111111111125243333<<333342521111111111111125243324X>@-----=O&-&OX..",
"..XO@--@O=----@>X423342551111111111111155243333<<333342551111111111111155243324X>@----=O@--@OX..",
"..XO@---@O=---@>X423342552111111111111255243333<<333342552111111111111255243324X>@---=O@---@OX..",
"..XO@---@O=---@>X423342555111111111111555243333<<333342555111111111111555243324X>@---=O@---@OX..",
"..XO@--@OO=---@>X423342555211111111112555243333<<333342555211111111112555243324X>@---=OO@--@OX..",
"..XO@-@OO=----@>X423342555511111111115555243333<<333342555511111111115555243324X>@----=OO@-@OX..",
"..XO@@OO=-----@>X423342555521111111125555243333<<333342555521111111125555243324X>@-----=OO@@OX..",
"..XO@OO=------@>X423342555551111111155555243333<<333342555551111111155555243324X>@------=OO@OX..",
"..XO>O=------=@>X423342555552111111255555243333<<333342555552111111255555243324X>@=------=O>OX..",
"..XX>@=------=@>X423342555555111111555555243333<<333342555555111111555555243324X>@=------=@>XX..",
"..XXO@=------=-XX423342555555211112555555243333<<333342555555211112555555243324XX-=------=@OXX..",
"...XO@==-=-=-=>XX425342522555511115555555243333<<333342555555511115555225243524XX>=-=-=-==@OX...",
"...XO@=-=-=-=>>>X4233415225555211255555552,3333<<3333,2555555521125555225143324X>>>=-=-=-=@OX...",
"...XO@==-===>>->X4253,15222525511555252551,3535<<5353,15525255511552522251,3524X>->>===-==@OX...",
"...XO-=====>>@@>X4235,12525252222252525251,5353<<3535,15252525222225252521,5324X>@@>>=====-OX...",
"...X>-====>>@=@>X4255,12222225222222222221,5555<<5555,12222222222252222221,5524X>@=@>>====->X...",
"...X>-==O>>@===>X4225,41212122212121212121,5525<<5255,12121212121222121214,5224X>===@>>O==->X...",
"...X>=OO>>@O=O=>X4252,41111112121112121211,5222<<2225,11212121112121111114,2524X>=O=O@>>OO=>X...",
"...X>=O>>@O====>X4212,41111111111111111114,2212<<2122,41111111111111111114,2124X>====O@>>O=>X...",
"...X>=>>@==O=O=>X4112,41414414414441114144,2121<<1212,44141114441441441414,2114X>=O=O==@>>=>X...",
"...X>>>@=OO=OO=>X4111,44444444444444444444,1111<<1111,44444444444444444444,1114X>=OO=OO=@>>>X...",
"...X>>@=OOOOOOO>X4141,44444444444444444444,1144<<4411,44444444444444444444,1414X>OOOOOOO=@>>X...",
"...X>@=OOOOOOOO>X4411,44444444444444444444,1444<<4441,44444444444444444444,1144X>OOOOOOOO=@>X...",
"..XX@=OOOOOOOOO>X4441,44444444444444444444,1444<<4441,44444444444444444444,1444X>OOOOOOOOO=@XX..",
"..X>-OOOOOOOOOO>X4441,44444444444444444444,1444<<4441,44444444444444444444,1444X>OOOOOOOOOO->X..",
"..X>->OOOOOOOOO>X4441,44444444444444444444,1444<<4441,44444444444444444444,1444X>OOOOOOOOO>->X..",
"..X>->OOOOOOO>O>X4441,22222222222222222222,1444<<4441,22222222222222222222,1444X>O>OOOOOOO>->X..",
"..X>=>>O>O>O>>O>X444111111111111111111111111444<<444111111111111111111111111444X>O>>O>O>O>>=>X..",
"..X>O>O>O>O>O>O>X444444444444444444444444444444<<444444444444444444444444444444X>O>O>O>O>O>O>X..",
"..X>O>>>>>>>>>O>O444444444444444444444444444444<<444444444444444444444444444444O>O>>>>>>>>>O>X..",
"..XXXXXXXXXXXXXXX<<<<<<<<<<<<<<<<<<<<<<<<<<<<<<<<<<<<<<<<<<<<<<<<<<<<<<<<<<<<<<XXXXXXXXXXXXXXX.."
};
