/* XPM */
static char *e260051326854d21949aaced4d6c5aa6ed5ut1JKc5N8BMQU[] = {
/* columns rows colors chars-per-pixel */
"96 96 30 1 ",
"  c #546D8E",
". c black",
"F c black",
"X c #201808",
"o c #A898B8",
"O c #482860",
"+ c #D860B8",
"@ c #685080",
"# c #9070A8",
"$ c #A83090",
"% c #802880",
"& c #8058A0",
"* c #C848A8",
"= c #503868",
"- c #604878",
"; c #602068",
": c #481828",
"> c #302040",
", c #B00038",
"< c #C84800",
"1 c #E09008",
"2 c #F8C800",
"3 c #482818",
"4 c #705020",
"5 c #604018",
"6 c #806020",
"7 c #A88018",
"8 c #907018",
"9 c black",
"0 c white",
/* pixels */
".XX.................................X.......XX....XX.......X.................................XX.",
".XoX........................XXXXXX.XOX.....X+X....X+X.....XOX.XXXXXX........................XoX.",
".X@#X.....................XX$+++%X.X&X....X*+X....X+*X....X&X.X%+++$XX.....................X#@X.",
".X=o#X..................XX%*+++$X..X#X...X$%+X....X+%$X...X#X..X$+++*%XX..................X#o=X.",
".X=-o#XX...............X%**;::+%X.XO#OX.X%$;*X....X*;$%X.XO#OX.X%+::;**%X...............XX#o-=X.",
".X==@o#-XX............X%*%;:::+X..X-#-X.X$;;$X....X$;;$X.X-#-X..X+:::;%*%X............XX-#o@==X.",
".X==-#o#&=XX.........X%*%;::::*X.XO&#&OX;$;:$X....X$:;$;XO&#&OX.X*::::;%*%X.........XX=&#o#-==X.",
".X===&#o#&&=XXX.....X%*%;:;;::*X.X-##&-X$%;:%XXXXXX%:;%$X-&##-X.X*::;;:;%*%X.....XXX=&&#o#&===X.",
".XO==@##oo#&&@=XXXXX%$%;:%%%;:$%XO&##&-X$;;::%%%%%%::;;$X-&##&OX%$:;%%%:;%$%XXXXX=@&&#oo##@==OX.",
".X>==-####oo###&&@-X$%;;%%%%;;%*XXXXXXX;%::%$$$$$$$$%::%;XXXXXXX*%;;%%%%;;%$X-@&&###oo####-==>X.",
"..X===##&#&#ooo###X%$;;%%%%%%;%*X&&&&@X;:$$$$******$$$$:;X@&&&&X*%;%%%%%%;;$%X###ooo#&#&##===X..",
"..X===#&#&&&@&#oooX$%;%%%;%%%;;$%X#&&&X:$$$$*++++++*$$$$:X&&&#X%$;;%%%;%%%;%$Xooo#&@&&&#&#===X..",
"..X===##&&&@@@@@@@X$%;%%%%%%%%;%$%X&&X:%$$$$*++++++*$$$$%:X&&X%$%;%%%%%%%%;%$X@@@@@@@&&&##===X..",
"..X===&#&&&@&@@@@X%$;;%%%%;%%%;:%$%XXX:%$$%$*++++++*$%$$%:XXX%$%:;%%%;%%%%;;$%X@@@@&@&&&#&===X..",
"..XO==@#&@@@@@@@@X$%;%%%;;;%%;%;:%$%X:,,%$$$$******$$$$%,,:X%$%:;%;%%;;;%%%;%$X@@@@@@@@&#@==OX..",
"..X>==-#&@&&@@@@@X$;;;;:XXXX;%%%;::::,<<,%$$$$$$$$$$$$%,<<,::::;%%%;XXXX:;;;;$X@@@@@&&@&#-==>X..",
"...X===&&@&&@@@@@X$;;XXXOOOOXX:;;;:X%,<1<,,%%%%%%%%%%,,<1<,%X:;;;:XXOOOOXXX;;$X@@@@@&&@&&===X...",
"...X===&&@@@@@@@@X%;XOOOOOOOOOX:;;;X$,<121<,,;;;;;;,,<121<,$X;;;:XOOOOOOOOOX;%X@@@@@@@@&&===X...",
"...X===@&@@@@@@@@X%XOOO==----=OXX:;X$,<12221<,,XX,,<12221<,$X;:XXO=----==OOOX%X@@@@@@@@&@===X...",
"...XO==-&@@@@@@@@@XOOO=-@@@=O@=OOX:X%,<122221<,::,<122221<,%X:XOO=@O=@@@-=OOOX@@@@@@@@@&-==OX...",
"...X>===&@@@@@@@@@=OO=-@@@=O>-&@=OXX;+,<1221<,,%%,,<1221<,+;XXO=@&->O=@@@-=OO=@@@@@@@@@&===>X...",
"....X===@&@@@@@@@@@=O-@@@=O>O=&@-=OX;%+,,,,,,$$$$$$,,,,,,+%;XO=-@&=O>O=@@@-O=@@@@@@@@@&@===X....",
"....XO==-&@@@@@@@@@@=@@@=OO>O=@&@=OX:;%+*****$$%%$$*****+%;:XO=@&@=O>OO=@@@=@@@@@@@@@@&-==OX....",
"...XX>===@&@@@@@@@@@@@@=OOO>OO-&@-OOX;;;%$$$$%;::;%$$$$%;;;XOO-@&-OO>OOO=@@@@@@@@@@@@&@===>XX...",
"...X=>===-&@@@@@@@@@@@=OOO>>OO=&@@=OX:;;;;;;;:XXXX:;;;;;;;:XO=@@&=OO>>OOO=@@@@@@@@@@@&-===>=X...",
"..X=->O==-@&&@@@@@@@@-OOO>O>OOO-&@-=OX:;;;::XX:;;:XX::;;;:XO=-@&-OOO>O>OOO-@@@@@@@@&&@-==O>-=X..",
"..X@-O>=-O=-@&&@@@@@@=OO>O=O>OO=-&@-=XX:::XX:;;;;;;:XX:::XX=-@&-=OO>O=O>OO=@@@@@@&&@-=O-=>O-@X..",
".X=&-=>OOOOO=-@&&@@@-OO>O=-=>OOO=-&@-X:%$;X;;;;;;;;;;X;$%:X-@&-=OOO>=-=O>OO-@@@&&@-=OOOOO>=-&=X.",
".X@&--O>OOOOOO=-@&&&=OO>=---O>OOO=-&@-X%$;X::::::::::X;$%X-@&-=OOO>O---=>OO=&&&@-=OOOOOO>O--&@X.",
".X&@---=>>OOOOOO=-@->O>O----=O>OOO=-&@X;%:XXXXXXXXXXXX:%;X@&-=OOO>O=----O>O>-@-=OOOOOO>>=---@&X.",
".X&-----=O>>OOOOOOOO>O>=-----=O>OOO=-&X:;XOOOOOOOOOOOOX;:X&-=OOO>O=-----=>O>OOOOOOOO>>O=-----&X.",
".X&-------=O>>OOOOOO>O>-------=O>OOO=-@XXOOO========OOOXX@-=OOO>O=------->O>OOOOOO>>O=-------&X.",
".X&---------=O>>OOOO>>O-@@@@@--=O>OOOOOOOOOOOOOOOOOOOOOOOOOOOO>O=--@@@@@-O>>OOOO>>O=---------&X.",
".X&-----------=O>>>>>>OOOOOOOOOOOO>OOOOO>>OOOOOOOOOOOO>>OOOOO>OOOOOOOOOOOO>>>>>>O=-----------&X.",
".X&---@---------=O>>>>>>>>>>>>>>>>XX>>>>>>>>>>>>>>>>>>>>>>>>XX>>>>>>>>>>>>>>>>O=---------@---&X.",
".X&@------=------=OOXXXXXXXXXXXXXXXXXXXXXXXXXXXXXXXXXXXXXXXXXXXXXXXXXXXXXXXXOO=------=------@&X.",
".X@&-----------@=O33345533333FFFFFFFFFFFFFFFFFFFFFFFFFFFFFFFFFFFFFF33333554333O=@-----------&@X.",
".XO@&---------@=O334665533333FFFFFFFFFFFFFFFFFFFFFFFFFFFFFFFFFFFFFF333335566433O=@---------&@OX.",
"..XO@&-------@=OO446775533333FFFFFFFFFFFFFFFFFFFFFFFFFFFFFFFFFFFFFF333335577644OO=@-------&@OX..",
"..XOO@&-----@=OO>666775533333FFFFFFFFFFFFFFFFFFFFFFFFFFFFFFFFFFFFFF333335577666>OO=@-----&@OOX..",
"..XOOO-&---@=OO>X873375533333FFFFFFFFFFFFFFFFFFFFFFFFFFFFFFFFFFFFFF333335573378X>OO=@---&-OOOX..",
"..X>OOO-@-@=OO>>X835575533333FFFFFFFFFFFFFFFFFFFFFFFFFFFFFFFFFFFFFF333335575538X>>OO=@-@-OOO>X..",
"..XX>OOO-@=OO>O>X854675533333FFFFFFFFFFFFFFFFFFFFFFFFFFFFFFFFFFFFFF333335576458X>O>OO=@-OOO>XX..",
"..XOO>OOO=OO>O=>X854875533333FFFFFFFFFFFFFFFFFFFFFFFFFFFFFFFFFFFFFF333335578458X>=O>OO=OOO>OOX..",
"..XO=O>OOOO>O==>X854875533333FFFFFFFFFFFFFFFFFFFFFFFFFFFFFFFFFFFFFF333335578458X>==O>OOOO>O=OX..",
"..XO-=O>OOO>O==>X854875533333FFFFFFFFFFFFFFFFFFFFFFFFFFFFFFFFFFFFFF333335578458X>==O>OOO>O=-OX..",
"..XO@-=O>OO>O==>X854875533333FFFFFFFFFFFFFFFFFFFFFFFFFFFFFFFFFFFFFF333335578458X>==O>OO>O=-@OX..",
"..X>@--=O>O>O=->X854875533333FFFFFFFFFFFFFFFFFFFFFFFFFFFFFFFFFFFFFF333335578458X>-=O>O>O=--@>X..",
"..X>>&--=O>>O=->X854875533333FFFFFFFFFFFFFFFFFFFFFFFFFFFFFFFFFFFFFF333335578458X>-=O>>O=--&>>X..",
"...X>>&---=OO=->X854875533333FFFFFFFFFFFFFFFFFFFFFFFFFFFFFFFFFFFFFF333335578458X>-=OO=---&>>X...",
"...XO>>&----==->X854875533333FFFFFFFFFFFFFFFFFFFFFFFFFFFFFFFFFFFFFF333335578458X>-==----&>>OX...",
"...XO=>>&----=->X854875533333FFFFFFFFFFFFFFFFFFFFFFFFFFFFFFFFFFFFFF333335578458X>-=----&>>=OX...",
"...XO@O>>&----->X854875533333FFFFFFFFFFFFFFFFFFFFFFFFFFFFFFFFFFFFFF333335578458X>-----&>>O@OX...",
"...XO@=O>>&---->X854875533333FFFFFFFFFFFFFFFFFFFFFFFFFFFFFFFFFFFFFF333335578458X>----&>>O=@OX...",
"...XO@==O>>&--->X854675533333FFFFFFFFFFFFFFFFFFFFFFFFFFFFFFFFFFFFFF333335576458X>---&>>O==@OX...",
"...XO@===O>>&-->X854475533333FFFFFFFFFFFFFFFFFFFFFFFFFFFFFFFFFFFFFF333335574458X>--&>>O===@OX...",
"...XO@====O>>@->X854475533333FFFFFFFFFFFFFFFFFFFFFFFFFFFFFFFFFFFFFF333335574458X>-@>>O====@OX...",
"...XO@=-===O>>->X854475533333FFFFFFFFFFFFFFFFFFFFFFFFFFFFFFFFFFFFFF333335574458X>->>O===-=@OX...",
"...XO@=--===O>>>X854475533333FFFFFFFFFFFFFFFFFFFFFFFFFFFFFFFFFFFFFF333335574458X>>>O===--=@OX...",
"...XO@----===O>XX854475533333FFFFFFFFFFFFFFFFFFFFFFFFFFFFFFFFFFFFFF333335574458XX>O===----@OX...",
"...XO@-----====XX854475533333FFFFFFFFFFFFFFFFFFFFFFFFFFFFFFFFFFFFFF333335574458XX====-----@OX...",
"..XXO@------==@>X854475533333FFFFFFFFFFFFFFFFFFFFFFFFFFFFFFFFFFFFFF333335574458X>@==------@OXX..",
"..XO>=-------=@>X854475533333FFFFFFFFFFFFFFFFFFFFFFFFFFFFFFFFFFFFFF333335574458X>@=-------=>OX..",
"..XO&O=-------@>X854475533333FFFFFFFFFFFFFFFFFFFFFFFFFFFFFFFFFFFFFF333335574458X>@-------=O&OX..",
"..XO&&O=-----=@>X854475533333FFFFFFFFFFFFFFFFFFFFFFFFFFFFFFFFFFFFFF333335574458X>@=-----=O&&OX..",
"..XO&-&O=-----@>X854475533333FFFFFFFFFFFFFFFFFFFFFFFFFFFFFFFFFFFFFF333335574458X>@-----=O&-&OX..",
"..XO@--@O=----@>X854475533333FFFFFFFFFFFFFFFFFFFFFFFFFFFFFFFFFFFFFF333335574458X>@----=O@--@OX..",
"..XO@---@O=---@>X854475533333FFFFFFFFFFFFFFFFFFFFFFFFFFFFFFFFFFFFFF333335574458X>@---=O@---@OX..",
"..XO@---@O=---@>X854475533333FFFFFFFFFFFFFFFFFFFFFFFFFFFFFFFFFFFFFF333335574458X>@---=O@---@OX..",
"..XO@--@OO=---@>X854475533333FFFFFFFFFFFFFFFFFFFFFFFFFFFFFFFFFFFFFF333335574458X>@---=OO@--@OX..",
"..XO@-@OO=----@>X854475533333FFFFFFFFFFFFFFFFFFFFFFFFFFFFFFFFFFFFFF333335574458X>@----=OO@-@OX..",
"..XO@@OO=-----@>X854475533333FFFFFFFFFFFFFFFFFFFFFFFFFFFFFFFFFFFFFF333335574458X>@-----=OO@@OX..",
"..XO@OO=------@>X854475533333FFFFFFFFFFFFFFFFFFFFFFFFFFFFFFFFFFFFFF333335574458X>@------=OO@OX..",
"..XO>O=------=@>X854675533333FFFFFFFFFFFFFFFFFFFFFFFFFFFFFFFFFFFFFF333335576458X>@=------=O>OX..",
"..XX>@=------=@>X854875533333FFFFFFFFFFFFFFFFFFFFFFFFFFFFFFFFFFFFFF333335578458X>@=------=@>XX..",
"..XXO@=------=-XX854875533333FFFFFFFFFFFFFFFFFFFFFFFFFFFFFFFFFFFFFF333335578458XX-=------=@OXX..",
"...XO@==-=-=-=>XX854875533333FFFFFFFFFFFFFFFFFFFFFFFFFFFFFFFFFFFFFF333335578458XX>=-=-=-==@OX...",
"...XO@=-=-=-=>>>X854875533333FFFFFFFFFFFFFFFFFFFFFFFFFFFFFFFFFFFFFF333335578458X>>>=-=-=-=@OX...",
"...XO@==-===>>->X854685533333FFFFFFFFFFFFFFFFFFFFFFFFFFFFFFFFFFFFFF333335586458X>->>===-==@OX...",
"...XO-=====>>@@>X854675533333FFFFFFFFFFFFFFFFFFFFFFFFFFFFFFFFFFFFFF333335576458X>@@>>=====-OX...",
"...X>-====>>@=@>X854685533333FFFFFFFFFFFFFFFFFFFFFFFFFFFFFFFFFFFFFF333335586458X>@=@>>====->X...",
"...X>-==O>>@===>X854685533333FFFFFFFFFFFFFFFFFFFFFFFFFFFFFFFFFFFFFF333335586458X>===@>>O==->X...",
"...X>=OO>>@O=O=>X654465333333FFFFFFFFFFFFFFFFFFFFFFFFFFFFFFFFFFFFFF333333564456X>=O=O@>>OO=>X...",
"...X>=O>>@O====>X654463533333FFFFFFFFFFFFFFFFFFFFFFFFFFFFFFFFFFFFFF333335364456X>====O@>>O=>X...",
"...X>=>>@==O=O=>X654545333333FFFFFFFFFFFFFFFFFFFFFFFFFFFFFFFFFFFFFF333333545456X>=O=O==@>>=>X...",
"...X>>>@=OO=OO=>X455543333333FFFFFFFFFFFFFFFFFFFFFFFFFFFFFFFFFFFFFF333333345554X>=OO=OO=@>>>X...",
"...X>>@=OOOOOOO>X455543333333FFFFFFFFFFFFFFFFFFFFFFFFFFFFFFFFFFFFFF333333345554X>OOOOOOO=@>>X...",
"...X>@=OOOOOOOO>X455553333333FFFFFFFFFFFFFFFFFFFFFFFFFFFFFFFFFFFFFF333333355554X>OOOOOOOO=@>X...",
"..XX@=OOOOOOOOO>X455553333333FFFFFFFFFFFFFFFFFFFFFFFFFFFFFFFFFFFFFF333333355554X>OOOOOOOOO=@XX..",
"..X>-OOOOOOOOOO>X455553333333FFFFFFFFFFFFFFFFFFFFFFFFFFFFFFFFFFFFFF333333355554X>OOOOOOOOOO->X..",
"..X>->OOOOOOOOO>X455553333333FFFFFFFFFFFFFFFFFFFFFFFFFFFFFFFFFFFFFF333333355554X>OOOOOOOOO>->X..",
"..X>->OOOOOOO>O>X466653333333FFFFFFFFFFFFFFFFFFFFFFFFFFFFFFFFFFFFFF333333356664X>O>OOOOOOO>->X..",
"..X>=>>O>O>O>>O>X444453333333FFFFFFFFFFFFFFFFFFFFFFFFFFFFFFFFFFFFFF333333354444X>O>>O>O>O>>=>X..",
"..X>O>O>O>O>O>O>X555553333333FFFFFFFFFFFFFFFFFFFFFFFFFFFFFFFFFFFFFF333333355555X>O>O>O>O>O>O>X..",
"..X>O>>>>>>>>>O>O555553333333FFFFFFFFFFFFFFFFFFFFFFFFFFFFFFFFFFFFFF333333355555O>O>>>>>>>>>O>X..",
"..XXXXXXXXXXXXXXXXXXXXXXXXXXXFFFFFFFFFFFFFFFFFFFFFFFFFFFFFFFFFFFFFFXXXXXXXXXXXXXXXXXXXXXXXXXXX.."
};
