/* XPM */
static char *door_closing31682521392[] = {
/* columns rows colors chars-per-pixel */
"96 96 30 1 ",
"  c #546D8E",
". c black",
"F c black",
"X c #201808",
"o c #A898B8",
"O c #482860",
"+ c #D860B8",
"@ c #685080",
"# c #9070A8",
"$ c #A83090",
"% c #802880",
"& c #8058A0",
"* c #C848A8",
"= c #503868",
"- c #604878",
"; c #602068",
": c #481828",
"> c #302040",
", c #B00038",
"< c #C84800",
"1 c #E09008",
"2 c #F8C800",
"3 c #482818",
"4 c black",
"5 c #705020",
"6 c #806020",
"7 c #907018",
"8 c #A88018",
"9 c #604018",
"0 c white",
/* pixels */
".XX.................................X.......XX....XX.......X.................................XX.",
".XoX........................XXXXXX.XOX.....X+X....X+X.....XOX.XXXXXX........................XoX.",
".X@#X.....................XX$+++%X.X&X....X*+X....X+*X....X&X.X%+++$XX.....................X#@X.",
".X=o#X..................XX%*+++$X..X#X...X$%+X....X+%$X...X#X..X$+++*%XX..................X#o=X.",
".X=-o#XX...............X%**;::+%X.XO#OX.X%$;*X....X*;$%X.XO#OX.X%+::;**%X...............XX#o-=X.",
".X==@o#-XX............X%*%;:::+X..X-#-X.X$;;$X....X$;;$X.X-#-X..X+:::;%*%X............XX-#o@==X.",
".X==-#o#&=XX.........X%*%;::::*X.XO&#&OX;$;:$X....X$:;$;XO&#&OX.X*::::;%*%X.........XX=&#o#-==X.",
".X===&#o#&&=XXX.....X%*%;:;;::*X.X-##&-X$%;:%XXXXXX%:;%$X-&##-X.X*::;;:;%*%X.....XXX=&&#o#&===X.",
".XO==@##oo#&&@=XXXXX%$%;:%%%;:$%XO&##&-X$;;::%%%%%%::;;$X-&##&OX%$:;%%%:;%$%XXXXX=@&&#oo##@==OX.",
".X>==-####oo###&&@-X$%;;%%%%;;%*XXXXXXX;%::%$$$$$$$$%::%;XXXXXXX*%;;%%%%;;%$X-@&&###oo####-==>X.",
"..X===##&#&#ooo###X%$;;%%%%%%;%*X&&&&@X;:$$$$******$$$$:;X@&&&&X*%;%%%%%%;;$%X###ooo#&#&##===X..",
"..X===#&#&&&@&#oooX$%;%%%;%%%;;$%X#&&&X:$$$$*++++++*$$$$:X&&&#X%$;;%%%;%%%;%$Xooo#&@&&&#&#===X..",
"..X===##&&&@@@@@@@X$%;%%%%%%%%;%$%X&&X:%$$$$*++++++*$$$$%:X&&X%$%;%%%%%%%%;%$X@@@@@@@&&&##===X..",
"..X===&#&&&@&@@@@X%$;;%%%%;%%%;:%$%XXX:%$$%$*++++++*$%$$%:XXX%$%:;%%%;%%%%;;$%X@@@@&@&&&#&===X..",
"..XO==@#&@@@@@@@@X$%;%%%;;;%%;%;:%$%X:,,%$$$$******$$$$%,,:X%$%:;%;%%;;;%%%;%$X@@@@@@@@&#@==OX..",
"..X>==-#&@&&@@@@@X$;;;;:XXXX;%%%;::::,<<,%$$$$$$$$$$$$%,<<,::::;%%%;XXXX:;;;;$X@@@@@&&@&#-==>X..",
"...X===&&@&&@@@@@X$;;XXXOOOOXX:;;;:X%,<1<,,%%%%%%%%%%,,<1<,%X:;;;:XXOOOOXXX;;$X@@@@@&&@&&===X...",
"...X===&&@@@@@@@@X%;XOOOOOOOOOX:;;;X$,<121<,,;;;;;;,,<121<,$X;;;:XOOOOOOOOOX;%X@@@@@@@@&&===X...",
"...X===@&@@@@@@@@X%XOOO==----=OXX:;X$,<12221<,,XX,,<12221<,$X;:XXO=----==OOOX%X@@@@@@@@&@===X...",
"...XO==-&@@@@@@@@@XOOO=-@@@=O@=OOX:X%,<122221<,::,<122221<,%X:XOO=@O=@@@-=OOOX@@@@@@@@@&-==OX...",
"...X>===&@@@@@@@@@=OO=-@@@=O>-&@=OXX;+,<1221<,,%%,,<1221<,+;XXO=@&->O=@@@-=OO=@@@@@@@@@&===>X...",
"....X===@&@@@@@@@@@=O-@@@=O>O=&@-=OX;%+,,,,,,$$$$$$,,,,,,+%;XO=-@&=O>O=@@@-O=@@@@@@@@@&@===X....",
"....XO==-&@@@@@@@@@@=@@@=OO>O=@&@=OX:;%+*****$$%%$$*****+%;:XO=@&@=O>OO=@@@=@@@@@@@@@@&-==OX....",
"...XX>===@&@@@@@@@@@@@@=OOO>OO-&@-OOX;;;%$$$$%;::;%$$$$%;;;XOO-@&-OO>OOO=@@@@@@@@@@@@&@===>XX...",
"...X=>===-&@@@@@@@@@@@=OOO>>OO=&@@=OX:;;;;;;;:XXXX:;;;;;;;:XO=@@&=OO>>OOO=@@@@@@@@@@@&-===>=X...",
"..X=->O==-@&&@@@@@@@@-OOO>O>OOO-&@-=OX:;;;::XX:;;:XX::;;;:XO=-@&-OOO>O>OOO-@@@@@@@@&&@-==O>-=X..",
"..X@-O>=-O=-@&&@@@@@@=OO>O=O>OO=-&@-=XX:::XX:;;;;;;:XX:::XX=-@&-=OO>O=O>OO=@@@@@@&&@-=O-=>O-@X..",
".X=&-=>OOOOO=-@&&@@@-OO>O=-=>OOO=-&@-X:%$;X;;;;;;;;;;X;$%:X-@&-=OOO>=-=O>OO-@@@&&@-=OOOOO>=-&=X.",
".X@&--O>OOOOOO=-@&&&=OO>=---O>OOO=-&@-X%$;X::::::::::X;$%X-@&-=OOO>O---=>OO=&&&@-=OOOOOO>O--&@X.",
".X&@---=>>OOOOOO=-@->O>O----=O>OOO=-&@X;%:XXXXXXXXXXXX:%;X@&-=OOO>O=----O>O>-@-=OOOOOO>>=---@&X.",
".X&-----=O>>OOOOOOOO>O>=-----=O>OOO=-&X:;XOOOOOOOOOOOOX;:X&-=OOO>O=-----=>O>OOOOOOOO>>O=-----&X.",
".X&-------=O>>OOOOOO>O>-------=O>OOO=-@XXOOO========OOOXX@-=OOO>O=------->O>OOOOOO>>O=-------&X.",
".X&---------=O>>OOOO>>O-@@@@@--=O>OOOOOOOOOOOOOOOOOOOOOOOOOOOO>O=--@@@@@-O>>OOOO>>O=---------&X.",
".X&-----------=O>>>>>>OOOOOOOOOOOO>OOOOO>>OOOOOOOOOOOO>>OOOOO>OOOOOOOOOOOO>>>>>>O=-----------&X.",
".X&---@---------=O>>>>>>>>>>>>>>>>XX>>>>>>>>>>>>>>>>>>>>>>>>XX>>>>>>>>>>>>>>>>O=---------@---&X.",
".X&@------=------=OOXXXXXXXXXXXXXXXXXXXXXXXXXXXXXXXXXXXXXXXXXXXXXXXXXXXXXXXXOO=------=------@&X.",
".X@&-----------@=OO33333333333333333334FFFFFFFFFFFFFFFFFF43333333333333333333OO=@-----------&@X.",
".XO@&---------@=OO>33333333566678833334FFFFFFFFFFFFFFFFFF43333887666533333333>OO=@---------&@OX.",
"..XO@&-------@=OO>355555667777788833334FFFFFFFFFFFFFFFFFF433338887777766555553>OO=@-------&@OX..",
"..XOO@&-----@=OO>X366667777777788833334FFFFFFFFFFFFFFFFFF433338887777777766663X>OO=@-----&@OOX..",
"..XOOO-&---@=OO>X3688633333333333833334FFFFFFFFFFFFFFFFFF4333383333333333368863X>OO=@---&-OOOX..",
"..X>OOO-@-@=OO>>X9688399999999999833334FFFFFFFFFFFFFFFFFF4333389999999999938869X>>OO=@-@-OOO>X..",
"..XX>OOO-@=OO>O>X9685966666666669833334FFFFFFFFFFFFFFFFFF4333389666666666695869X>O>OO=@-OOO>XX..",
"..XOO>OOO=OO>O=>X9669577777777779833334FFFFFFFFFFFFFFFFFF4333389777777777759669X>=O>OO=OOO>OOX..",
"..XO=O>OOOO>O==>X9699677777777779833334FFFFFFFFFFFFFFFFFF4333389777777777769969X>==O>OOOO>O=OX..",
"..XO-=O>OOO>O==>X9695777777777779833334FFFFFFFFFFFFFFFFFF4333389777777777775969X>==O>OOO>O=-OX..",
"..XO@-=O>OO>O==>X9695777777777779833334FFFFFFFFFFFFFFFFFF4333389777777777775969X>==O>OO>O=-@OX..",
"..X>@--=O>O>O=->X9695777777777779833334FFFFFFFFFFFFFFFFFF4333389777777777775969X>-=O>O>O=--@>X..",
"..X>>&--=O>>O=->X9695777776777779833334FFFFFFFFFFFFFFFFFF4333389777776777775969X>-=O>>O=--&>>X..",
"...X>>&---=OO=->X9695777775777779833334FFFFFFFFFFFFFFFFFF4333389777775777775969X>-=OO=---&>>X...",
"...XO>>&----==->X9695777765677779833334FFFFFFFFFFFFFFFFFF4333389777765677775969X>-==----&>>OX...",
"...XO=>>&----=->X9695777755577779833334FFFFFFFFFFFFFFFFFF4333389777755577775969X>-=----&>>=OX...",
"...XO@O>>&----->X9695777755577779833334FFFFFFFFFFFFFFFFFF4333389777755577775969X>-----&>>O@OX...",
"...XO@=O>>&---->X9695777655567779833334FFFFFFFFFFFFFFFFFF4333389777655567775969X>----&>>O=@OX...",
"...XO@==O>>&--->X9695777555557779833334FFFFFFFFFFFFFFFFFF4333389777555557775969X>---&>>O==@OX...",
"...XO@===O>>&-->X9695777555557779833334FFFFFFFFFFFFFFFFFF4333389777555557775969X>--&>>O===@OX...",
"...XO@====O>>@->X9695776555556779833334FFFFFFFFFFFFFFFFFF4333389776555556775969X>-@>>O====@OX...",
"...XO@=-===O>>->X9695775555555779833334FFFFFFFFFFFFFFFFFF4333389775555555775969X>->>O===-=@OX...",
"...XO@=--===O>>>X9695775555555779833334FFFFFFFFFFFFFFFFFF4333389775555555775969X>>>O===--=@OX...",
"...XO@----===O>XX9695765555555679833334FFFFFFFFFFFFFFFFFF4333389765555555675969XX>O===----@OX...",
"...XO@-----====XX9695755555555579833334FFFFFFFFFFFFFFFFFF4333389755555555575969XX====-----@OX...",
"..XXO@------==@>X9695755555555579833334FFFFFFFFFFFFFFFFFF4333389755555555575969X>@==------@OXX..",
"..XO>=-------=@>X9695655555555569833334FFFFFFFFFFFFFFFFFF4333389655555555565969X>@=-------=>OX..",
"..XO&O=-------@>X9695555555555559833334FFFFFFFFFFFFFFFFFF4333389555555555555969X>@-------=O&OX..",
"..XO&&O=-----=@>X9695555555555559833334FFFFFFFFFFFFFFFFFF4333389555555555555969X>@=-----=O&&OX..",
"..XO&-&O=-----@>X9695655555555569833334FFFFFFFFFFFFFFFFFF4333389655555555565969X>@-----=O&-&OX..",
"..XO@--@O=----@>X9695755555555579833334FFFFFFFFFFFFFFFFFF4333389755555555575969X>@----=O@--@OX..",
"..XO@---@O=---@>X9695755555555579833334FFFFFFFFFFFFFFFFFF4333389755555555575969X>@---=O@---@OX..",
"..XO@---@O=---@>X9695765555555679833334FFFFFFFFFFFFFFFFFF4333389765555555675969X>@---=O@---@OX..",
"..XO@--@OO=---@>X9695775555555779833334FFFFFFFFFFFFFFFFFF4333389775555555775969X>@---=OO@--@OX..",
"..XO@-@OO=----@>X9695775555555779833334FFFFFFFFFFFFFFFFFF4333389775555555775969X>@----=OO@-@OX..",
"..XO@@OO=-----@>X9695776555556779833334FFFFFFFFFFFFFFFFFF4333389776555556775969X>@-----=OO@@OX..",
"..XO@OO=------@>X9695777555557779833334FFFFFFFFFFFFFFFFFF4333389777555557775969X>@------=OO@OX..",
"..XO>O=------=@>X9695777555557779833334FFFFFFFFFFFFFFFFFF4333389777555557775969X>@=------=O>OX..",
"..XX>@=------=@>X9695777655567779833334FFFFFFFFFFFFFFFFFF4333389777655567775969X>@=------=@>XX..",
"..XXO@=------=-XX9695777755577779833334FFFFFFFFFFFFFFFFFF4333389777755577775969XX-=------=@OXX..",
"...XO@==-=-=-=>XX9695677755577779833334FFFFFFFFFFFFFFFFFF4333389777755577765969XX>=-=-=-==@OX...",
"...XO@=-=-=-=>>>X9695677765677773833334FFFFFFFFFFFFFFFFFF4333383777765677765969X>>>=-=-=-=@OX...",
"...XO@==-===>>->X9635667675776773733334FFFFFFFFFFFFFFFFFF4333373776775767665369X>->>===-==@OX...",
"...XO-=====>>@@>X9635776766667663833334FFFFFFFFFFFFFFFFFF4333383667666676775369X>@@>>=====-OX...",
"...X>-====>>@=@>X9635666666666663733334FFFFFFFFFFFFFFFFFF4333373666666666665369X>@=@>>====->X...",
"...X>-==O>>@===>X9639665665556553733334FFFFFFFFFFFFFFFFFF4333373556555665669369X>===@>>O==->X...",
"...X>=OO>>@O=O=>X9639555556565663633334FFFFFFFFFFFFFFFFFF4333363665656555559369X>=O=O@>>OO=>X...",
"...X>=O>>@O====>X9639555555555553633334FFFFFFFFFFFFFFFFFF4333363555555555559369X>====O@>>O=>X...",
"...X>=>>@==O=O=>X9539999595955553533334FFFFFFFFFFFFFFFFFF4333353555595959999359X>=O=O==@>>=>X...",
"...X>>>@=OO=OO=>X9539999999999993533334FFFFFFFFFFFFFFFFFF4333353999999999999359X>=OO=OO=@>>>X...",
"...X>>@=OOOOOOO>X9539999999999993533334FFFFFFFFFFFFFFFFFF4333353999999999999359X>OOOOOOO=@>>X...",
"...X>@=OOOOOOOO>X9939999999999993933334FFFFFFFFFFFFFFFFFF4333393999999999999399X>OOOOOOOO=@>X...",
"..XX@=OOOOOOOOO>X9939999999999993933334FFFFFFFFFFFFFFFFFF4333393999999999999399X>OOOOOOOOO=@XX..",
"..X>-OOOOOOOOOO>X9939999999999993933334FFFFFFFFFFFFFFFFFF4333393999999999999399X>OOOOOOOOOO->X..",
"..X>->OOOOOOOOO>X9939999999999993933334FFFFFFFFFFFFFFFFFF4333393999999999999399X>OOOOOOOOO>->X..",
"..X>->OOOOOOO>O>X9936666666666663933334FFFFFFFFFFFFFFFFFF4333393666666666666399X>O>OOOOOOO>->X..",
"..X>=>>O>O>O>>O>X9955555555555555933334FFFFFFFFFFFFFFFFFF4333395555555555555599X>O>>O>O>O>>=>X..",
"..X>O>O>O>O>O>O>X9999999999999999933334FFFFFFFFFFFFFFFFFF4333399999999999999999X>O>O>O>O>O>O>X..",
"..X>O>>>>>>>>>O>O9999999999999999933334FFFFFFFFFFFFFFFFFF4333399999999999999999O>O>>>>>>>>>O>X..",
"..XXXXXXXXXXXXXXXXXXXXXXXXXXXXXXXXXXXXFFFFFFFFFFFFFFFFFFFFXXXXXXXXXXXXXXXXXXXXXXXXXXXXXXXXXXXX.."
};
