/* XPM */
static char *door_closing41682521392[] = {
/* columns rows colors chars-per-pixel */
"96 96 30 1 ",
"  c #546D8E",
". c black",
"F c black",
"X c #201808",
"o c #A898B8",
"O c #482860",
"+ c #D860B8",
"@ c #685080",
"# c #9070A8",
"$ c #A83090",
"% c #802880",
"& c #8058A0",
"* c #C848A8",
"= c #503868",
"- c #604878",
"; c #602068",
": c #481828",
"> c #302040",
", c #B00038",
"< c #C84800",
"1 c #E09008",
"2 c #F8C800",
"3 c #482818",
"4 c #806020",
"5 c #705020",
"6 c #907018",
"7 c #A88018",
"8 c #604018",
"9 c black",
"0 c white",
/* pixels */
".XX.................................X.......XX....XX.......X.................................XX.",
".XoX........................XXXXXX.XOX.....X+X....X+X.....XOX.XXXXXX........................XoX.",
".X@#X.....................XX$+++%X.X&X....X*+X....X+*X....X&X.X%+++$XX.....................X#@X.",
".X=o#X..................XX%*+++$X..X#X...X$%+X....X+%$X...X#X..X$+++*%XX..................X#o=X.",
".X=-o#XX...............X%**;::+%X.XO#OX.X%$;*X....X*;$%X.XO#OX.X%+::;**%X...............XX#o-=X.",
".X==@o#-XX............X%*%;:::+X..X-#-X.X$;;$X....X$;;$X.X-#-X..X+:::;%*%X............XX-#o@==X.",
".X==-#o#&=XX.........X%*%;::::*X.XO&#&OX;$;:$X....X$:;$;XO&#&OX.X*::::;%*%X.........XX=&#o#-==X.",
".X===&#o#&&=XXX.....X%*%;:;;::*X.X-##&-X$%;:%XXXXXX%:;%$X-&##-X.X*::;;:;%*%X.....XXX=&&#o#&===X.",
".XO==@##oo#&&@=XXXXX%$%;:%%%;:$%XO&##&-X$;;::%%%%%%::;;$X-&##&OX%$:;%%%:;%$%XXXXX=@&&#oo##@==OX.",
".X>==-####oo###&&@-X$%;;%%%%;;%*XXXXXXX;%::%$$$$$$$$%::%;XXXXXXX*%;;%%%%;;%$X-@&&###oo####-==>X.",
"..X===##&#&#ooo###X%$;;%%%%%%;%*X&&&&@X;:$$$$******$$$$:;X@&&&&X*%;%%%%%%;;$%X###ooo#&#&##===X..",
"..X===#&#&&&@&#oooX$%;%%%;%%%;;$%X#&&&X:$$$$*++++++*$$$$:X&&&#X%$;;%%%;%%%;%$Xooo#&@&&&#&#===X..",
"..X===##&&&@@@@@@@X$%;%%%%%%%%;%$%X&&X:%$$$$*++++++*$$$$%:X&&X%$%;%%%%%%%%;%$X@@@@@@@&&&##===X..",
"..X===&#&&&@&@@@@X%$;;%%%%;%%%;:%$%XXX:%$$%$*++++++*$%$$%:XXX%$%:;%%%;%%%%;;$%X@@@@&@&&&#&===X..",
"..XO==@#&@@@@@@@@X$%;%%%;;;%%;%;:%$%X:,,%$$$$******$$$$%,,:X%$%:;%;%%;;;%%%;%$X@@@@@@@@&#@==OX..",
"..X>==-#&@&&@@@@@X$;;;;:XXXX;%%%;::::,<<,%$$$$$$$$$$$$%,<<,::::;%%%;XXXX:;;;;$X@@@@@&&@&#-==>X..",
"...X===&&@&&@@@@@X$;;XXXOOOOXX:;;;:X%,<1<,,%%%%%%%%%%,,<1<,%X:;;;:XXOOOOXXX;;$X@@@@@&&@&&===X...",
"...X===&&@@@@@@@@X%;XOOOOOOOOOX:;;;X$,<121<,,;;;;;;,,<121<,$X;;;:XOOOOOOOOOX;%X@@@@@@@@&&===X...",
"...X===@&@@@@@@@@X%XOOO==----=OXX:;X$,<12221<,,XX,,<12221<,$X;:XXO=----==OOOX%X@@@@@@@@&@===X...",
"...XO==-&@@@@@@@@@XOOO=-@@@=O@=OOX:X%,<122221<,::,<122221<,%X:XOO=@O=@@@-=OOOX@@@@@@@@@&-==OX...",
"...X>===&@@@@@@@@@=OO=-@@@=O>-&@=OXX;+,<1221<,,%%,,<1221<,+;XXO=@&->O=@@@-=OO=@@@@@@@@@&===>X...",
"....X===@&@@@@@@@@@=O-@@@=O>O=&@-=OX;%+,,,,,,$$$$$$,,,,,,+%;XO=-@&=O>O=@@@-O=@@@@@@@@@&@===X....",
"....XO==-&@@@@@@@@@@=@@@=OO>O=@&@=OX:;%+*****$$%%$$*****+%;:XO=@&@=O>OO=@@@=@@@@@@@@@@&-==OX....",
"...XX>===@&@@@@@@@@@@@@=OOO>OO-&@-OOX;;;%$$$$%;::;%$$$$%;;;XOO-@&-OO>OOO=@@@@@@@@@@@@&@===>XX...",
"...X=>===-&@@@@@@@@@@@=OOO>>OO=&@@=OX:;;;;;;;:XXXX:;;;;;;;:XO=@@&=OO>>OOO=@@@@@@@@@@@&-===>=X...",
"..X=->O==-@&&@@@@@@@@-OOO>O>OOO-&@-=OX:;;;::XX:;;:XX::;;;:XO=-@&-OOO>O>OOO-@@@@@@@@&&@-==O>-=X..",
"..X@-O>=-O=-@&&@@@@@@=OO>O=O>OO=-&@-=XX:::XX:;;;;;;:XX:::XX=-@&-=OO>O=O>OO=@@@@@@&&@-=O-=>O-@X..",
".X=&-=>OOOOO=-@&&@@@-OO>O=-=>OOO=-&@-X:%$;X;;;;;;;;;;X;$%:X-@&-=OOO>=-=O>OO-@@@&&@-=OOOOO>=-&=X.",
".X@&--O>OOOOOO=-@&&&=OO>=---O>OOO=-&@-X%$;X::::::::::X;$%X-@&-=OOO>O---=>OO=&&&@-=OOOOOO>O--&@X.",
".X&@---=>>OOOOOO=-@->O>O----=O>OOO=-&@X;%:XXXXXXXXXXXX:%;X@&-=OOO>O=----O>O>-@-=OOOOOO>>=---@&X.",
".X&-----=O>>OOOOOOOO>O>=-----=O>OOO=-&X:;XOOOOOOOOOOOOX;:X&-=OOO>O=-----=>O>OOOOOOOO>>O=-----&X.",
".X&-------=O>>OOOOOO>O>-------=O>OOO=-@XXOOO========OOOXX@-=OOO>O=------->O>OOOOOO>>O=-------&X.",
".X&---------=O>>OOOO>>O-@@@@@--=O>OOOOOOOOOOOOOOOOOOOOOOOOOOOO>O=--@@@@@-O>>OOOO>>O=---------&X.",
".X&-----------=O>>>>>>OOOOOOOOOOOO>OOOOO>>OOOOOOOOOOOO>>OOOOO>OOOOOOOOOOOO>>>>>>O=-----------&X.",
".X&---@---------=O>>>>>>>>>>>>>>>>XX>>>>>>>>>>>>>>>>>>>>>>>>XX>>>>>>>>>>>>>>>>O=---------@---&X.",
".X&@------=------=OOXXXXXXXXXXXXXXXXXXXXXXXXXXXXXXXXXXXXXXXXXXXXXXXXXXXXXXXXOO=------=------@&X.",
".X@&-----------@=O3333443333333FFFFFFFFFFFFFFFFFFFFFFFFFFFFFFFFFF3333333443333O=@-----------&@X.",
".XO@&---------@=O33354443333333FFFFFFFFFFFFFFFFFFFFFFFFFFFFFFFFFF33333334445333O=@---------&@OX.",
"..XO@&-------@=OO55544673333333FFFFFFFFFFFFFFFFFFFFFFFFFFFFFFFFFF33333337644555OO=@-------&@OX..",
"..XOO@&-----@=OO>44677773333333FFFFFFFFFFFFFFFFFFFFFFFFFFFFFFFFFF33333337777644>OO=@-----&@OOX..",
"..XOOO-&---@=OO>X67333373333333FFFFFFFFFFFFFFFFFFFFFFFFFFFFFFFFFF33333337333376X>OO=@---&-OOOX..",
"..X>OOO-@-@=OO>>X63888873333333FFFFFFFFFFFFFFFFFFFFFFFFFFFFFFFFFF33333337888836X>>OO=@-@-OOO>X..",
"..XX>OOO-@=OO>O>X68544473333333FFFFFFFFFFFFFFFFFFFFFFFFFFFFFFFFFF33333337444586X>O>OO=@-OOO>XX..",
"..XOO>OOO=OO>O=>X68566673333333FFFFFFFFFFFFFFFFFFFFFFFFFFFFFFFFFF33333337666586X>=O>OO=OOO>OOX..",
"..XO=O>OOOO>O==>X68566673333333FFFFFFFFFFFFFFFFFFFFFFFFFFFFFFFFFF33333337666586X>==O>OOOO>O=OX..",
"..XO-=O>OOO>O==>X68566673333333FFFFFFFFFFFFFFFFFFFFFFFFFFFFFFFFFF33333337666586X>==O>OOO>O=-OX..",
"..XO@-=O>OO>O==>X68566673333333FFFFFFFFFFFFFFFFFFFFFFFFFFFFFFFFFF33333337666586X>==O>OO>O=-@OX..",
"..X>@--=O>O>O=->X68566673333333FFFFFFFFFFFFFFFFFFFFFFFFFFFFFFFFFF33333337666586X>-=O>O>O=--@>X..",
"..X>>&--=O>>O=->X68564673333333FFFFFFFFFFFFFFFFFFFFFFFFFFFFFFFFFF33333337646586X>-=O>>O=--&>>X..",
"...X>>&---=OO=->X68565673333333FFFFFFFFFFFFFFFFFFFFFFFFFFFFFFFFFF33333337656586X>-=OO=---&>>X...",
"...XO>>&----==->X68565673333333FFFFFFFFFFFFFFFFFFFFFFFFFFFFFFFFFF33333337656586X>-==----&>>OX...",
"...XO=>>&----=->X68565673333333FFFFFFFFFFFFFFFFFFFFFFFFFFFFFFFFFF33333337656586X>-=----&>>=OX...",
"...XO@O>>&----->X68565673333333FFFFFFFFFFFFFFFFFFFFFFFFFFFFFFFFFF33333337656586X>-----&>>O@OX...",
"...XO@=O>>&---->X68565673333333FFFFFFFFFFFFFFFFFFFFFFFFFFFFFFFFFF33333337656586X>----&>>O=@OX...",
"...XO@==O>>&--->X68545473333333FFFFFFFFFFFFFFFFFFFFFFFFFFFFFFFFFF33333337454586X>---&>>O==@OX...",
"...XO@===O>>&-->X68555573333333FFFFFFFFFFFFFFFFFFFFFFFFFFFFFFFFFF33333337555586X>--&>>O===@OX...",
"...XO@====O>>@->X68555573333333FFFFFFFFFFFFFFFFFFFFFFFFFFFFFFFFFF33333337555586X>-@>>O====@OX...",
"...XO@=-===O>>->X68555573333333FFFFFFFFFFFFFFFFFFFFFFFFFFFFFFFFFF33333337555586X>->>O===-=@OX...",
"...XO@=--===O>>>X68555573333333FFFFFFFFFFFFFFFFFFFFFFFFFFFFFFFFFF33333337555586X>>>O===--=@OX...",
"...XO@----===O>XX68555573333333FFFFFFFFFFFFFFFFFFFFFFFFFFFFFFFFFF33333337555586XX>O===----@OX...",
"...XO@-----====XX68555573333333FFFFFFFFFFFFFFFFFFFFFFFFFFFFFFFFFF33333337555586XX====-----@OX...",
"..XXO@------==@>X68555573333333FFFFFFFFFFFFFFFFFFFFFFFFFFFFFFFFFF33333337555586X>@==------@OXX..",
"..XO>=-------=@>X68555573333333FFFFFFFFFFFFFFFFFFFFFFFFFFFFFFFFFF33333337555586X>@=-------=>OX..",
"..XO&O=-------@>X68555573333333FFFFFFFFFFFFFFFFFFFFFFFFFFFFFFFFFF33333337555586X>@-------=O&OX..",
"..XO&&O=-----=@>X68555573333333FFFFFFFFFFFFFFFFFFFFFFFFFFFFFFFFFF33333337555586X>@=-----=O&&OX..",
"..XO&-&O=-----@>X68555573333333FFFFFFFFFFFFFFFFFFFFFFFFFFFFFFFFFF33333337555586X>@-----=O&-&OX..",
"..XO@--@O=----@>X68555573333333FFFFFFFFFFFFFFFFFFFFFFFFFFFFFFFFFF33333337555586X>@----=O@--@OX..",
"..XO@---@O=---@>X68555573333333FFFFFFFFFFFFFFFFFFFFFFFFFFFFFFFFFF33333337555586X>@---=O@---@OX..",
"..XO@---@O=---@>X68555573333333FFFFFFFFFFFFFFFFFFFFFFFFFFFFFFFFFF33333337555586X>@---=O@---@OX..",
"..XO@--@OO=---@>X68555573333333FFFFFFFFFFFFFFFFFFFFFFFFFFFFFFFFFF33333337555586X>@---=OO@--@OX..",
"..XO@-@OO=----@>X68555573333333FFFFFFFFFFFFFFFFFFFFFFFFFFFFFFFFFF33333337555586X>@----=OO@-@OX..",
"..XO@@OO=-----@>X68555573333333FFFFFFFFFFFFFFFFFFFFFFFFFFFFFFFFFF33333337555586X>@-----=OO@@OX..",
"..XO@OO=------@>X68555573333333FFFFFFFFFFFFFFFFFFFFFFFFFFFFFFFFFF33333337555586X>@------=OO@OX..",
"..XO>O=------=@>X68545473333333FFFFFFFFFFFFFFFFFFFFFFFFFFFFFFFFFF33333337454586X>@=------=O>OX..",
"..XX>@=------=@>X68565673333333FFFFFFFFFFFFFFFFFFFFFFFFFFFFFFFFFF33333337656586X>@=------=@>XX..",
"..XXO@=------=-XX68565673333333FFFFFFFFFFFFFFFFFFFFFFFFFFFFFFFFFF33333337656586XX-=------=@OXX..",
"...XO@==-=-=-=>XX68565673333333FFFFFFFFFFFFFFFFFFFFFFFFFFFFFFFFFF33333337656586XX>=-=-=-==@OX...",
"...XO@=-=-=-=>>>X68565673333333FFFFFFFFFFFFFFFFFFFFFFFFFFFFFFFFFF33333337656586X>>>=-=-=-=@OX...",
"...XO@==-===>>->X68545463333333FFFFFFFFFFFFFFFFFFFFFFFFFFFFFFFFFF33333336454586X>->>===-==@OX...",
"...XO-=====>>@@>X68546673333333FFFFFFFFFFFFFFFFFFFFFFFFFFFFFFFFFF33333337664586X>@@>>=====-OX...",
"...X>-====>>@=@>X68544463333333FFFFFFFFFFFFFFFFFFFFFFFFFFFFFFFFFF33333336444586X>@=@>>====->X...",
"...X>-==O>>@===>X68544463333333FFFFFFFFFFFFFFFFFFFFFFFFFFFFFFFFFF33333336444586X>===@>>O==->X...",
"...X>=OO>>@O=O=>X48555543333333FFFFFFFFFFFFFFFFFFFFFFFFFFFFFFFFFF33333334555584X>=O=O@>>OO=>X...",
"...X>=O>>@O====>X48555543333333FFFFFFFFFFFFFFFFFFFFFFFFFFFFFFFFFF33333334555584X>====O@>>O=>X...",
"...X>=>>@==O=O=>X48585853333333FFFFFFFFFFFFFFFFFFFFFFFFFFFFFFFFFF33333335858584X>=O=O==@>>=>X...",
"...X>>>@=OO=OO=>X58888853333333FFFFFFFFFFFFFFFFFFFFFFFFFFFFFFFFFF33333335888885X>=OO=OO=@>>>X...",
"...X>>@=OOOOOOO>X58888853333333FFFFFFFFFFFFFFFFFFFFFFFFFFFFFFFFFF33333335888885X>OOOOOOO=@>>X...",
"...X>@=OOOOOOOO>X58888883333333FFFFFFFFFFFFFFFFFFFFFFFFFFFFFFFFFF33333338888885X>OOOOOOOO=@>X...",
"..XX@=OOOOOOOOO>X58888883333333FFFFFFFFFFFFFFFFFFFFFFFFFFFFFFFFFF33333338888885X>OOOOOOOOO=@XX..",
"..X>-OOOOOOOOOO>X58888883333333FFFFFFFFFFFFFFFFFFFFFFFFFFFFFFFFFF33333338888885X>OOOOOOOOOO->X..",
"..X>->OOOOOOOOO>X58888883333333FFFFFFFFFFFFFFFFFFFFFFFFFFFFFFFFFF33333338888885X>OOOOOOOOO>->X..",
"..X>->OOOOOOO>O>X54444483333333FFFFFFFFFFFFFFFFFFFFFFFFFFFFFFFFFF33333338444445X>O>OOOOOOO>->X..",
"..X>=>>O>O>O>>O>X55555583333333FFFFFFFFFFFFFFFFFFFFFFFFFFFFFFFFFF33333338555555X>O>>O>O>O>>=>X..",
"..X>O>O>O>O>O>O>X88888883333333FFFFFFFFFFFFFFFFFFFFFFFFFFFFFFFFFF33333338888888X>O>O>O>O>O>O>X..",
"..X>O>>>>>>>>>O>O88888883333333FFFFFFFFFFFFFFFFFFFFFFFFFFFFFFFFFF33333338888888O>O>>>>>>>>>O>X..",
"..XXXXXXXXXXXXXXXXXXXXXXXXXXXXXFFFFFFFFFFFFFFFFFFFFFFFFFFFFFFFFFFXXXXXXXXXXXXXXXXXXXXXXXXXXXXX.."
};
