/* XPM */
static char *door_closing11682521392[] = {
/* columns rows colors chars-per-pixel */
"96 96 29 1 ",
"  c #546D8E",
". c black",
"X c #201808",
"o c #A898B8",
"O c #482860",
"+ c #D860B8",
"@ c #685080",
"# c #9070A8",
"$ c #A83090",
"% c #802880",
"& c #8058A0",
"* c #C848A8",
"= c #503868",
"- c #604878",
"; c #602068",
": c #481828",
"> c #302040",
", c #B00038",
"< c #C84800",
"1 c #E09008",
"2 c #F8C800",
"3 c #482818",
"4 c black",
"5 c #705020",
"6 c #806020",
"7 c #A88018",
"8 c #604018",
"9 c #907018",
"0 c white",
/* pixels */
".XX.................................X.......XX....XX.......X.................................XX.",
".XoX........................XXXXXX.XOX.....X+X....X+X.....XOX.XXXXXX........................XoX.",
".X@#X.....................XX$+++%X.X&X....X*+X....X+*X....X&X.X%+++$XX.....................X#@X.",
".X=o#X..................XX%*+++$X..X#X...X$%+X....X+%$X...X#X..X$+++*%XX..................X#o=X.",
".X=-o#XX...............X%**;::+%X.XO#OX.X%$;*X....X*;$%X.XO#OX.X%+::;**%X...............XX#o-=X.",
".X==@o#-XX............X%*%;:::+X..X-#-X.X$;;$X....X$;;$X.X-#-X..X+:::;%*%X............XX-#o@==X.",
".X==-#o#&=XX.........X%*%;::::*X.XO&#&OX;$;:$X....X$:;$;XO&#&OX.X*::::;%*%X.........XX=&#o#-==X.",
".X===&#o#&&=XXX.....X%*%;:;;::*X.X-##&-X$%;:%XXXXXX%:;%$X-&##-X.X*::;;:;%*%X.....XXX=&&#o#&===X.",
".XO==@##oo#&&@=XXXXX%$%;:%%%;:$%XO&##&-X$;;::%%%%%%::;;$X-&##&OX%$:;%%%:;%$%XXXXX=@&&#oo##@==OX.",
".X>==-####oo###&&@-X$%;;%%%%;;%*XXXXXXX;%::%$$$$$$$$%::%;XXXXXXX*%;;%%%%;;%$X-@&&###oo####-==>X.",
"..X===##&#&#ooo###X%$;;%%%%%%;%*X&&&&@X;:$$$$******$$$$:;X@&&&&X*%;%%%%%%;;$%X###ooo#&#&##===X..",
"..X===#&#&&&@&#oooX$%;%%%;%%%;;$%X#&&&X:$$$$*++++++*$$$$:X&&&#X%$;;%%%;%%%;%$Xooo#&@&&&#&#===X..",
"..X===##&&&@@@@@@@X$%;%%%%%%%%;%$%X&&X:%$$$$*++++++*$$$$%:X&&X%$%;%%%%%%%%;%$X@@@@@@@&&&##===X..",
"..X===&#&&&@&@@@@X%$;;%%%%;%%%;:%$%XXX:%$$%$*++++++*$%$$%:XXX%$%:;%%%;%%%%;;$%X@@@@&@&&&#&===X..",
"..XO==@#&@@@@@@@@X$%;%%%;;;%%;%;:%$%X:,,%$$$$******$$$$%,,:X%$%:;%;%%;;;%%%;%$X@@@@@@@@&#@==OX..",
"..X>==-#&@&&@@@@@X$;;;;:XXXX;%%%;::::,<<,%$$$$$$$$$$$$%,<<,::::;%%%;XXXX:;;;;$X@@@@@&&@&#-==>X..",
"...X===&&@&&@@@@@X$;;XXXOOOOXX:;;;:X%,<1<,,%%%%%%%%%%,,<1<,%X:;;;:XXOOOOXXX;;$X@@@@@&&@&&===X...",
"...X===&&@@@@@@@@X%;XOOOOOOOOOX:;;;X$,<121<,,;;;;;;,,<121<,$X;;;:XOOOOOOOOOX;%X@@@@@@@@&&===X...",
"...X===@&@@@@@@@@X%XOOO==----=OXX:;X$,<12221<,,XX,,<12221<,$X;:XXO=----==OOOX%X@@@@@@@@&@===X...",
"...XO==-&@@@@@@@@@XOOO=-@@@=O@=OOX:X%,<122221<,::,<122221<,%X:XOO=@O=@@@-=OOOX@@@@@@@@@&-==OX...",
"...X>===&@@@@@@@@@=OO=-@@@=O>-&@=OXX;+,<1221<,,%%,,<1221<,+;XXO=@&->O=@@@-=OO=@@@@@@@@@&===>X...",
"....X===@&@@@@@@@@@=O-@@@=O>O=&@-=OX;%+,,,,,,$$$$$$,,,,,,+%;XO=-@&=O>O=@@@-O=@@@@@@@@@&@===X....",
"....XO==-&@@@@@@@@@@=@@@=OO>O=@&@=OX:;%+*****$$%%$$*****+%;:XO=@&@=O>OO=@@@=@@@@@@@@@@&-==OX....",
"...XX>===@&@@@@@@@@@@@@=OOO>OO-&@-OOX;;;%$$$$%;::;%$$$$%;;;XOO-@&-OO>OOO=@@@@@@@@@@@@&@===>XX...",
"...X=>===-&@@@@@@@@@@@=OOO>>OO=&@@=OX:;;;;;;;:XXXX:;;;;;;;:XO=@@&=OO>>OOO=@@@@@@@@@@@&-===>=X...",
"..X=->O==-@&&@@@@@@@@-OOO>O>OOO-&@-=OX:;;;::XX:;;:XX::;;;:XO=-@&-OOO>O>OOO-@@@@@@@@&&@-==O>-=X..",
"..X@-O>=-O=-@&&@@@@@@=OO>O=O>OO=-&@-=XX:::XX:;;;;;;:XX:::XX=-@&-=OO>O=O>OO=@@@@@@&&@-=O-=>O-@X..",
".X=&-=>OOOOO=-@&&@@@-OO>O=-=>OOO=-&@-X:%$;X;;;;;;;;;;X;$%:X-@&-=OOO>=-=O>OO-@@@&&@-=OOOOO>=-&=X.",
".X@&--O>OOOOOO=-@&&&=OO>=---O>OOO=-&@-X%$;X::::::::::X;$%X-@&-=OOO>O---=>OO=&&&@-=OOOOOO>O--&@X.",
".X&@---=>>OOOOOO=-@->O>O----=O>OOO=-&@X;%:XXXXXXXXXXXX:%;X@&-=OOO>O=----O>O>-@-=OOOOOO>>=---@&X.",
".X&-----=O>>OOOOOOOO>O>=-----=O>OOO=-&X:;XOOOOOOOOOOOOX;:X&-=OOO>O=-----=>O>OOOOOOOO>>O=-----&X.",
".X&-------=O>>OOOOOO>O>-------=O>OOO=-@XXOOO========OOOXX@-=OOO>O=------->O>OOOOOO>>O=-------&X.",
".X&---------=O>>OOOO>>O-@@@@@--=O>OOOOOOOOOOOOOOOOOOOOOOOOOOOO>O=--@@@@@-O>>OOOO>>O=---------&X.",
".X&-----------=O>>>>>>OOOOOOOOOOOO>OOOOO>>OOOOOOOOOOOO>>OOOOO>OOOOOOOOOOOO>>>>>>O=-----------&X.",
".X&---@---------=O>>>>>>>>>>>>>>>>XX>>>>>>>>>>>>>>>>>>>>>>>>XX>>>>>>>>>>>>>>>>O=---------@---&X.",
".X&@------=------=OOXXXXXXXXXXXXXXXXXXXXXXXXXXXXXXXXXXXXXXXXXXXXXXXXXXXXXXXXOO=------=------@&X.",
".X@&-----------@=OO>X333333333333333333333333334433333333333333333333333333X>OO=@-----------&@X.",
".XO@&---------@=OO>X33333333333333333333333333344333333333333333333333333333X>OO=@---------&@OX.",
"..XO@&-------@=OO>X3555555555555555555555555555445555555555555555555555555553X>OO=@-------&@OX..",
"..XOO@&-----@=OO>X356666666666666666666666666664466666666666666666666666666653X>OO=@-----&@OOX..",
"..XOOO-&---@=OO>X36777777333333333333333333777744777733333333333333333377777763X>OO=@---&-OOOX..",
"..X>OOO-@-@=OO>>X86777773888888888888888888777744777788888888888888888837777768X>>OO=@-@-OOO>X..",
"..XX>OOO-@=OO>O>X86777738666666666666666658777744777785666666666666666683777768X>O>OO=@-OOO>XX..",
"..XOO>OOO=OO>O=>X86777386999999999999999968777744777786999999999999999968377768X>=O>OO=OOO>OOX..",
"..XO=O>OOOO>O==>X86778869999999999999999968777744777786999999999999999996887768X>==O>OOOO>O=OX..",
"..XO-=O>OOO>O==>X86778699999999999999999968777744777786999999999999999999687768X>==O>OOO>O=-OX..",
"..XO@-=O>OO>O==>X86778699999999999999999968777744777786999999999999999999687768X>==O>OO>O=-@OX..",
"..X>@--=O>O>O=->X86778699999999999999999968777744777786999999999999999999687768X>-=O>O>O=--@>X..",
"..X>>&--=O>>O=->X86778699999999669999999968777744777786999999996699999999687768X>-=O>>O=--&>>X..",
"...X>>&---=OO=->X86778699999999559999999968777744777786999999995599999999687768X>-=OO=---&>>X...",
"...XO>>&----==->X86778699999996556999999968777744777786999999965569999999687768X>-==----&>>OX...",
"...XO=>>&----=->X86778699999995555999999968777744777786999999955559999999687768X>-=----&>>=OX...",
"...XO@O>>&----->X86778699999965555699999968777744777786999999655556999999687768X>-----&>>O@OX...",
"...XO@=O>>&---->X86778699999955555599999968777744777786999999555555999999687768X>----&>>O=@OX...",
"...XO@==O>>&--->X86778699999655555569999968777744777786999996555555699999687768X>---&>>O==@OX...",
"...XO@===O>>&-->X86778699999555555559999968777744777786999995555555599999687768X>--&>>O===@OX...",
"...XO@====O>>@->X86778699996555555556999968777744777786999965555555569999687768X>-@>>O====@OX...",
"...XO@=-===O>>->X86778699995555555555999968777744777786999955555555559999687768X>->>O===-=@OX...",
"...XO@=--===O>>>X86778699965555555555699968777744777786999655555555556999687768X>>>O===--=@OX...",
"...XO@----===O>XX86778699955555555555599968777744777786999555555555555999687768XX>O===----@OX...",
"...XO@-----====XX86778699655555555555569968777744777786996555555555555699687768XX====-----@OX...",
"..XXO@------==@>X86778699555555555555559968777744777786995555555555555599687768X>@==------@OXX..",
"..XO>=-------=@>X86778696555555555555556968777744777786965555555555555569687768X>@=-------=>OX..",
"..XO&O=-------@>X86778695555555555555555968777744777786955555555555555559687768X>@-------=O&OX..",
"..XO&&O=-----=@>X86778695555555555555555968777744777786955555555555555559687768X>@=-----=O&&OX..",
"..XO&-&O=-----@>X86778696555555555555556968777744777786965555555555555569687768X>@-----=O&-&OX..",
"..XO@--@O=----@>X86778699555555555555559968777744777786995555555555555599687768X>@----=O@--@OX..",
"..XO@---@O=---@>X86778699655555555555569968777744777786996555555555555699687768X>@---=O@---@OX..",
"..XO@---@O=---@>X86778699955555555555599968777744777786999555555555555999687768X>@---=O@---@OX..",
"..XO@--@OO=---@>X86778699965555555555699968777744777786999655555555556999687768X>@---=OO@--@OX..",
"..XO@-@OO=----@>X86778699995555555555999968777744777786999955555555559999687768X>@----=OO@-@OX..",
"..XO@@OO=-----@>X86778699996555555556999968777744777786999965555555569999687768X>@-----=OO@@OX..",
"..XO@OO=------@>X86778699999555555559999968777744777786999995555555599999687768X>@------=OO@OX..",
"..XO>O=------=@>X86778699999655555569999968777744777786999996555555699999687768X>@=------=O>OX..",
"..XX>@=------=@>X86778699999955555599999968777744777786999999555555999999687768X>@=------=@>XX..",
"..XXO@=------=-XX86778699999965555699999968777744777786999999655556999999687768XX-=------=@OXX..",
"...XO@==-=-=-=>XX86978696699995555999999968777744777786999999955559999669687968XX>=-=-=-==@OX...",
"...XO@=-=-=-=>>>X86778596699996556999999963777744777736999999965569999669587768X>>>=-=-=-=@OX...",
"...XO@==-===>>->X86973596669699559996969953797944979735996969995599696669537968X>->>===-==@OX...",
"...XO-=====>>@@>X86793569696966666969696953979744797935969696966666969696539768X>@@>>=====-OX...",
"...X>-====>>@=@>X86993566666696666666666653999944999935666666666669666666539968X>@=@>>====->X...",
"...X>-==O>>@===>X86693856565666565656565653996944969935656565656566656565839668X>===@>>O==->X...",
"...X>=OO>>@O=O=>X86963855555565655565656553966644666935565656555656555555836968X>=O=O@>>OO=>X...",
"...X>=O>>@O====>X86563855555555555555555583665644656638555555555555555555836568X>====O@>>O=>X...",
"...X>=>>@==O=O=>X85563858588588588855585883656544565638858555888588588585836558X>=O=O==@>>=>X...",
"...X>>>@=OO=OO=>X85553888888888888888888883555544555538888888888888888888835558X>=OO=OO=@>>>X...",
"...X>>@=OOOOOOO>X85853888888888888888888883558844885538888888888888888888835858X>OOOOOOO=@>>X...",
"...X>@=OOOOOOOO>X88553888888888888888888883588844888538888888888888888888835588X>OOOOOOOO=@>X...",
"..XX@=OOOOOOOOO>X88853888888888888888888883588844888538888888888888888888835888X>OOOOOOOOO=@XX..",
"..X>-OOOOOOOOOO>X88853888888888888888888883588844888538888888888888888888835888X>OOOOOOOOOO->X..",
"..X>->OOOOOOOOO>X88853888888888888888888883588844888538888888888888888888835888X>OOOOOOOOO>->X..",
"..X>->OOOOOOO>O>X88853666666666666666666663588844888536666666666666666666635888X>O>OOOOOOO>->X..",
"..X>=>>O>O>O>>O>X88855555555555555555555555588844888555555555555555555555555888X>O>>O>O>O>>=>X..",
"..X>O>O>O>O>O>O>X88888888888888888888888888888844888888888888888888888888888888X>O>O>O>O>O>O>X..",
"..X>O>>>>>>>>>O>O88888888888888888888888888888844888888888888888888888888888888O>O>>>>>>>>>O>X..",
"..XXXXXXXXXXXXXXX<<<<<<<<<<<<<<<<<<<<<<<<<<<<<<<<<<<<<<<<<<<<<<<<<<<<<<<<<<<<<<XXXXXXXXXXXXXXX.."
};
