/* XPM */
static char *enemy1682075094[] = {
/* columns rows colors chars-per-pixel */
"64 64 221 2 ",
"   c None",
".  c #593659",
"X  c #773A69",
"o  c #6D446E",
"O  c #6A4B6C",
"+  c #6B4565",
"@  c #7B4A6C",
"#  c #78446A",
"$  c #61536E",
"%  c #7E4C7B",
"&  c #784874",
"*  c #6D4974",
"=  c #8C3C6D",
"-  c #813A6C",
";  c #963F6E",
":  c #8B3E70",
">  c #A16658",
",  c #83426E",
"<  c #8C466E",
"1  c #93456F",
"2  c #9B446F",
"3  c #864671",
"4  c #8C4674",
"5  c #8E4A76",
"6  c #8C457A",
"7  c #834C7A",
"8  c #8B4A7B",
"9  c #844C72",
"0  c #934C74",
"q  c #94477C",
"w  c #944C7C",
"e  c #9A4D7C",
"r  c #96547C",
"t  c #9C547C",
"y  c #985779",
"u  c #91546E",
"i  c #A0416F",
"p  c #A04376",
"a  c #A44A7A",
"s  c #BB4C7F",
"d  c #A25175",
"f  c #AC517E",
"g  c #A1577E",
"h  c #BC5A7F",
"j  c #DCB82F",
"k  c #EDCD35",
"l  c #F3D528",
"z  c #D4AA42",
"x  c #7F6387",
"c  c #8C4A81",
"v  c #884D85",
"b  c #934C83",
"n  c #9A4E85",
"m  c #965484",
"M  c #9D5483",
"N  c #935981",
"B  c #9D5B83",
"V  c #975188",
"C  c #9D548C",
"Z  c #9B5B8A",
"A  c #934D95",
"S  c #934D9B",
"D  c #9E5393",
"F  c #9C539B",
"G  c #95509A",
"H  c #B14F82",
"J  c #BF4F89",
"K  c #A25685",
"L  c #A45B85",
"P  c #A2558B",
"I  c #AC568D",
"U  c #A45B8B",
"Y  c #AB5D8D",
"T  c #AD5782",
"R  c #BE5D8C",
"E  c #B65984",
"W  c #AA5C93",
"Q  c #A1559E",
"!  c #A4599C",
"~  c #AB5D9D",
"^  c #A85795",
"/  c #B75B98",
"(  c #876089",
")  c #9A6F92",
"_  c #A6638D",
"`  c #A9628D",
"'  c #A36488",
"]  c #B76489",
"[  c #AD6394",
"{  c #A86699",
"}  c #B16494",
"|  c #B2649C",
" . c #BA669C",
".. c #B76B9C",
"X. c #BA6E9A",
"o. c #B26A96",
"O. c #A9759C",
"+. c #B4719B",
"@. c #BB749D",
"#. c #BB7699",
"$. c #A559A2",
"%. c #AD5DA1",
"&. c #A157A1",
"*. c #B15EA3",
"=. c #AD63A4",
"-. c #A860A9",
";. c #B464A3",
":. c #BA66A4",
">. c #B469A5",
",. c #BD6CA4",
"<. c #B765A9",
"1. c #B965A8",
"2. c #BD6CA9",
"3. c #B66BAC",
"4. c #BB74A1",
"5. c #BD7AA2",
"6. c #BC74AB",
"7. c #B777A9",
"8. c #BF77B1",
"9. c #C45486",
"0. c #C5558D",
"q. c #C55B8C",
"w. c #C95C8C",
"e. c #CA5E90",
"r. c #C7628D",
"t. c #CD6493",
"y. c #CB6992",
"u. c #C46B9D",
"i. c #D66C96",
"p. c #D56E9A",
"a. c #D26793",
"s. c #CB7899",
"d. c #D6729C",
"f. c #DA749D",
"g. c #DB7B9E",
"h. c #D4789A",
"j. c #C36CA6",
"k. c #C56DAA",
"l. c #C96CAE",
"z. c #C86DA5",
"x. c #C273A5",
"c. c #C57AA6",
"v. c #C572AB",
"b. c #CA74AC",
"n. c #C57BAB",
"m. c #CB7AAD",
"M. c #C97FA5",
"N. c #DA76A0",
"B. c #DE7DA4",
"V. c #D37CAE",
"C. c #D277A1",
"Z. c #C56EB1",
"A. c #CA75B1",
"S. c #C37CB2",
"D. c #CD7CB3",
"F. c #CD79B8",
"G. c #D27EB2",
"H. c #E17CA4",
"J. c #BE83A6",
"K. c #C485AD",
"L. c #CB83AE",
"P. c #C589A9",
"I. c #DE81A6",
"U. c #CD82B3",
"Y. c #CC84B9",
"T. c #CC8DB2",
"R. c #D383B4",
"E. c #D58BB5",
"W. c #D485BA",
"Q. c #D58BBA",
"!. c #DB8DBC",
"~. c #D988B9",
"^. c #CD95B5",
"/. c #D491BC",
"(. c #DC91BD",
"). c #D699BB",
"_. c #E285A7",
"`. c #E68AA9",
"'. c #E490AD",
"]. c #E08FBD",
"[. c #EA96B4",
"{. c #E899B7",
"}. c #DC8EC1",
"|. c #D788C0",
" X c #DD93C1",
".X c #DD9CC3",
"XX c #DF9EC8",
"oX c #D496C3",
"OX c #E094C3",
"+X c #E29DC6",
"@X c #E29DC9",
"#X c #DEA1C5",
"$X c #DFA4C9",
"%X c #DDABCA",
"&X c #D4A3C2",
"*X c #E1A1C5",
"=X c #E3A4CA",
"-X c #E4ABCC",
";X c #E9A7CF",
":X c #E2B2CE",
">X c #E3A5D1",
",X c #E6AFD1",
"<X c #E9AFD2",
"1X c #E4B3D2",
"2X c #EBB4D4",
"3X c #EBBAD6",
"4X c #EEB5D9",
"5X c #ECBDDA",
"6X c #E5BAD3",
"7X c #F1BBDA",
"8X c #F0B5D7",
"9X c #EDC3DC",
"0X c #E3C0D6",
"qX c #F2C0DF",
"wX c #EDCCE1",
"eX c #F1C3E1",
"rX c #F2CDE4",
"tX c #F6CEE8",
"yX c #EED1E5",
"uX c #F3D1E7",
"iX c #F4D3E7",
/* pixels */
"                                                                                                                                ",
"                                                                                                                                ",
"                                                                                                                                ",
"                                                                                                                                ",
"                                                                                                                                ",
"                                                                                                                                ",
"                                                                      J.)                                                       ",
"                                                                    O.!.uX(                                                     ",
"                                                    7 N           $ 3X#X5X9X                                                    ",
"                                                    [ OXn.        +.*X3X7X-X      7 :X                                          ",
"                                                    S.}.(.G.      .X-X$XtX3X+.  O 1X0X                                          ",
"                                                    A.R.U.R.m   + T.;X;XrXrX-X  b.iXuX                                          ",
"                                                  % ;.j.R.G.V.f e R.Q.*XrXyXyX5 Y.rXyX                                          ",
"                                                    ;.<.R.G.G.L X.V.R.(.rXrXwX.X;X%X6X                                          ",
"                                                    1.;.U.G.V.G.V.G.V.G.1XiXwXwXyX-XT.                                          ",
"                                            *       >.3.A.V.G.b.k.G.G.R.@X5XiX5XrX9XJ.                                          ",
"                                        s.  @ 7.9 @ ;.1.,.G.b.j.j.v.G.R.+X-X2X3X0XyXJ.                                          ",
"                                      9 I.`.e 2.3.< W :.,.b.k.l.k.v.k.G. X*XE.2X3X9X@                                           ",
"                                      y g.`.0 3.=.! P <.~ 1.:.u.l.j.k.v.OX X!.(.1X4X#                                           ",
"                                      E g.H.g ! %.=.C ! ! 1.} u C ;.:.;.v.b.l.j.[ L.                                            ",
"                                      + e.E P.C $.-.-.F ~ :.| j l > <.;.,.l.:.z k |                                             ",
"                                  O i.I.H P.:X8 ! q r ! 1.,.;.| M  .1.:.j.v.k.[ ` A.                                            ",
"                              h.d y.a.[.I.y.^.J.V { !.q ~ k.j.z.l.l.v.k.G. X!. XOX!.                                            ",
"                              # T t.y.{.{.N.] >X- F W.U.D j. . .} Y L K M [ o.@.c.K.o.                                          ",
"                              r H R p.'.{.[.f.^.8 Q ! }.` W o.E.E.*X9X3X7X].(.).8X2XR.                                          ",
"                              a r.H d.f.B.[._.#.B &.&.Y.(.R.(.!.!.!.*X3X3X8X].].).3X3X+.                                        ",
"                            I g a.t.w.f.p._.`.T.).F Q ~ !.(.(.(.(.!.(.-X3X3X7X(.!.+X5X-X                                        ",
"                          X *.; f.N.w.e.N._.s.<X1Xc $.%.,.R.~.!.!.!.!.!.-X3X5X5X X].#X4X                                        ",
"                          ~ / b q.f.f.q.a.g.e >X6X_ ~ ;.1.;.k.k.v.b.k.b.b.Q.W.D.m.b.C.U                                         ",
"                          ..} W e t.f.p.w.C...Q. X3XC ;.<.j.k.k.z.k.k.l.b.b.b.b.b.m.u.                                          ",
"                        & u.,.3.g g y.p.] 1 !. Xn.W.T.C ;.k.b.k.k.k.k.k.A.b.m.m.G.b.                                            ",
"                        V.b.V.4X(.t U.w m.U.+X+X!.m.Q./.n ,.k.k.k.k.k.k.G.b.b.A.m.                                              ",
"                        2.!.OX5X-X!.r ~ ;.E.XX*X@XoXb.!.+XK.Y M K I ,.x.X.Y e _ P.                                              ",
"                      % %.~.}.$X5X+X6 A S 8.+X+X+X*XQ.b.(.XX+X=X-X3X%X&X<X(. X-X3X                                              ",
"                      Z *.k.~.!.5X5XB G G G R.*X+X*XXXE.b.).@X=X.X5X5X5X9X3X(.(.:X                                              ",
"                      ..D.j.b. X2X5X).A A S =.W.@X=X@XXXQ.A. X=X.X5X9X3X3X3X4X(.$X                                              ",
"                      x.R.~.k.v. X3X5X- A S F v.W.+X+X*X@XR.m. X#X5X5X5X5X3X,X#XZ                                               ",
"                      | D.~.G.j.W.5X9XU 8 A Q b.k.R.(.(. X+XR.m..X9XeX,X-X;X#X' #X4.                                            ",
"                      ;.3.OX Xb.k.-X5X4 7.6 | k.k.k.R.OXOX!.!.m.L.-X-X=X#XQ._ (.qX$X                                            ",
"                      { %.m.(.!.k.~.5X* 3.6.} t r K } m. X(. X}.D.U.$X#.B 4.k.R.-X5XO.                                          ",
"                      8 *.2.W.(.!.!.).  ! 3.|. X XG.2.n.@.L e P o.B U.L.U.(.W.l.D.5X1X                                          ",
"                        ;.;.j.}.(.;X(.  ^ F b b Z !.W.b.R.OXG.b. X=X=X=X[ !.(.!.v.(.5X                                          ",
"                        V ;.l.k.!.9X(.  7 v @.(.m.0  XQ.j.R.].E.n.oX=X/.5 ;.}.!.(.U 8 #     c M                                 ",
"                          / <.;.| |.oX    6 G.(.OX4.-.U.G.2.F.(.}.v.n.| 5.;.*.Q.M.m.D.:.l.P k.R.                                ",
"                          8 F Q ! M U     Z 3.].OXE.{ Y.S.6.>.3.Y.D.| e R.b ;.*.q R.U.!.R.0 k.D.                                ",
"                            r _ L !.*Xb.  N G.m.(.(.b 8.K.S.8.%.l.Y.U U.b.  ( ~ q >.F.}.L.4 ;.j.                                ",
"                            X.+X!.m.@X.X~.< R.b.~.(.& C ..7.8.M.V P m.` f ,       ;.~ m.e 5 ;.^ M                               ",
"                            ` ).OXS.m.@XOXL.v.K.a X.              c ..X 0.0.      P ^ 3 :.4 b n b.%                             ",
"                            X E.XX@Xb.!.>X^.4 X 0.R                 - X a s       x q I | j.n ;.j.j.                            ",
"                              v.XX$XQ.b.-X7.4 = 0.q.              ,.Q = J 2         , ;.q *.[ C =.;.                            ",
"                              M v. X+XF.Q.P.! p 9.i              .m.G.n.x.Q.          C ;.6 ^ + o                               ",
"                                8 A.D.G.!.*X6.R.K @.            ~ ;.R.E. XQ.            4                                       ",
"                                    @ U.n.(.x.Q.R.Q.          r F.v.;.m.|.XX                                                    ",
"                                      M x.c.M.Q.R.m.          9 V.R.W.Z.m.}.                                                    ",
"                                      W 6.} R. X+X@.            j.!.R.!.(.Q.<                                                   ",
"                                      a G.j.b. X@X` .           3 ;.b.~.(.L H.h                                                 ",
"                                      9.d !.v.m..X] y.          = T e e 2 p.H.H.                                                ",
"                                    O p C.E t e f f._.          < 9.i.H.a.w.f._.                                                ",
"                                      X 0 0 y y 5 0 y                                                                           ",
"                                                                                                                                ",
"                                                                                                                                ",
"                                                                                                                                ",
"                                                                                                                                ",
"                                                                                                                                "
};
