/* XPM */
static char *tile0471682427511[] = {
/* columns rows colors chars-per-pixel */
"64 64 51 1 ",
"  c None",
". c #00001A",
"X c #00001C",
"o c #00002C",
"O c #000034",
"+ c #202020",
"@ c #2C2C2C",
"# c gray22",
"$ c #483818",
"% c #543C1C",
"& c #5C4020",
"* c #6C4824",
"= c #000040",
"- c #00004C",
"; c #000058",
": c #000064",
"> c #000070",
", c #00007C",
"< c #484848",
"1 c gray33",
"2 c #646464",
"3 c gray44",
"4 c #7C7C7C",
"5 c #9C4C00",
"6 c #80502C",
"7 c #885830",
"8 c #905C34",
"9 c #9C6038",
"0 c #A0643C",
"q c #A86840",
"w c #B47044",
"e c #C87C4C",
"r c #B4AC00",
"t c #CCC400",
"y c #FCF400",
"u c #DC8854",
"i c #E88C58",
"p c #F0945C",
"a c #FC9C60",
"s c #FCA470",
"d c #000088",
"f c #000098",
"g c #0000A4",
"h c #0000B0",
"j c #0000E0",
"k c #0000FC",
"l c gray55",
"z c gray66",
"x c #FCB080",
"c c #FCC4A4",
"v c #FCD8C4",
/* pixels */
"                                                                ",
"                                                                ",
"                                                                ",
"                                                                ",
"                                                                ",
"                                                                ",
"                                                                ",
"                                                                ",
"                                                                ",
"                                                                ",
"                                                                ",
"                                  ggk                           ",
"                                gggkd.                          ",
"                              gggggj;...                        ",
"                             jjjjjj>....                        ",
"                             hhff>>.....                        ",
"                             hhf>>>....5                        ",
"                             wyxpq9x9qet                        ",
"                             6yxccxi7ppr                        ",
"                             eaxxxsssspw                        ",
"                              xiixvvcpw8                        ",
"                             pxiixssspw8                        ",
"                      >,+++++9axxxsesiw6                        ",
"                     hhh,+++++p0ee666&                          ",
"                   hhhjhf,++z++ep6&6&.                          ",
"                 hhhhh:,,:+++zl..&6&.1===                       ",
"                hhhhdd>::;++++.-...-1.-====                     ",
"               hhd>-d,>===++++;;;-=;.>--====                    ",
"              fhhhddo>;===....;;;:=;;;---===o                   ",
"              fhhhhh,,-==444<.=;;:=;>>>;===oo                   ",
"              ffhhhhg,ll442131#@;X=;=;>>oooooo                  ",
"               dfhhhhlfd421#<11<<#@X====oooXXo                  ",
"                dfhhlhfX@@@@++@#<<<#@XXXXXXXXoo                 ",
"                 -dflf,wXXX#@@++@@#<<<#+XXX+Xoo                 ",
"                  -dlf0aai8&.@.@@+@@###<<#X#XXo                 ",
"                   -1huau0%@@..@#@@+@@@###<<#Xo                 ",
"                      uaa0%XX..####....@@###<Xo                 ",
"                       00*%.XX.@##@...**$@@@Xoo                 ",
"                       d:==..XXXXX....***$$Xoo                  ",
"                        gd:==OoXXXXXXX$&*$$oo                   ",
"                        gd::=OoXXXXXXX$$$$oo                    ",
"                        dggdOOoXXXXXXXXXX                       ",
"                        gggd>;=OXOXXXXXXXO                      ",
"                       ggggd>;=OX-oXXXXXXO=                     ",
"                       ggggd>;=OXOoooXXXXX=                     ",
"                       ggggd>;=OX--OooXXXX=                     ",
"                       ggggd,d;;=--OOoXXXXo=                    ",
"                       ggggd,>;=X--=OOoXXXO=                    ",
"                       ggggdd>;oX-===O-oXXO=                    ",
"                       ggggdd>=oX =;=-oXXoO=-                   ",
"                      gggggf>;=X  ==oooooo==-                   ",
"                      gdddddg:--X -ooO==OO==-                   ",
"                      g>ddd,==OOX ---===OOOoX                   ",
"                       >>>,:--OXX  .OXXoooooX                   ",
"                       =::---OXX   .OXXXXooo                    ",
"                       =oooX....   OOo.....                     ",
"                        =ooX....  =OXOoo..                      ",
"                        ==oX...   =OoX...                       ",
"                        =o=oX...  ==ooXX.                       ",
"                         .oX....  ==OoX...                      ",
"                         oooX...   XOOX....                     ",
"                        o==ooX..   XXXX.....                    ",
"                       o===oX...    ........                    ",
"                       o==ooX..                                 "
};
