/* XPM */
static char *result[] = {
/* columns rows colors chars-per-pixel */
"48 64 218 2 ",
"   c #4E3A6B",
".  c #401000",
"X  c #281000",
"o  c #502000",
"O  c #481800",
"+  c #582800",
"@  c #180800",
"#  c #0D0D0D",
"$  c #603000",
"%  c #683800",
"&  c #202020",
"*  c #181818",
"=  c gray3",
"-  c #704000",
";  c gray19",
":  c #282828",
">  c gray22",
",  c gray25",
"<  c #784800",
"1  c #585858",
"2  c #888888",
"3  c #686868",
"4  c #A0A0A0",
"5  c #808080",
"6  c #805000",
"7  c #B88800",
"8  c #885800",
"9  c #484848",
"0  c #505050",
"q  c gray44",
"w  c #606060",
"e  c #909090",
"r  c gray66",
"t  c gray69",
"y  c #101010",
"u  c #906000",
"i  c #381800",
"p  c #986800",
"a  c #A07000",
"s  c #A87800",
"d  c #B08000",
"f  c #C09000",
"g  c #C89800",
"h  c #D0A000",
"j  c #D8A800",
"k  c #402000",
"l  c #482808",
"z  c #503010",
"x  c #583818",
"c  c gray72",
"v  c #604020",
"b  c #705030",
"n  c #785838",
"m  c #684828",
"M  c gray47",
"N  c #806040",
"B  c #989898",
"V  c #C8C8C8",
"C  c #E8B000",
"Z  c #F8C000",
"A  c #F8E8D8",
"S  c #907048",
"D  c gray88",
"F  c #F8F8F8",
"G  c #F8D810",
"H  c #004860",
"J  c #006078",
"K  c #B04800",
"L  c #B03000",
"P  c #B00000",
"I  c #007088",
"U  c #007890",
"Y  c #880000",
"T  c #A88888",
"R  c #A8A098",
"E  c #000098",
"W  c #480000",
"Q  c #007800",
"!  c #980000",
"~  c #F0E840",
"^  c #A80000",
"/  c gray91",
"(  c #C0C0C0",
")  c #780000",
"_  c #D0D0D0",
"`  c #D8D8D8",
"'  c #580000",
"]  c #680000",
"[  c #380000",
"{  c #006880",
"}  c #B80000",
"|  c #003000",
" . c #F0B800",
".. c #F8D020",
"X. c #D80000",
"o. c #00C000",
"O. c #984040",
"+. c #985858",
"@. c #009000",
"#. c #70F870",
"$. c #002000",
"%. c #009800",
"&. c #280038",
"*. c #000060",
"=. c #0000C0",
"-. c #003850",
";. c #004058",
":. c #005068",
">. c #005870",
",. c #003048",
"<. c #002840",
"1. c #002800",
"2. c #001800",
"3. c #00D800",
"4. c #008800",
"5. c #007000",
"6. c #00A800",
"7. c #008000",
"8. c #006800",
"9. c #005800",
"0. c #005000",
"q. c #004000",
"w. c #00B800",
"e. c #006000",
"r. c #F8E020",
"t. c #0000E8",
"y. c #008098",
"u. c #0088A0",
"i. c #0090A8",
"p. c #0098B0",
"a. c #00A8C0",
"s. c #00B0C8",
"d. c #C0C0F0",
"f. c #003800",
"g. c #001830",
"h. c #000800",
"j. c #004800",
"k. c #00A000",
"l. c #00C800",
"z. c #00B8D0",
"x. c #A88868",
"c. c #F0D8B8",
"v. c #D8B898",
"b. c #00B000",
"n. c #B09070",
"m. c #002038",
"M. c #00E000",
"N. c #D00000",
"B. c #000820",
"V. c #886840",
"C. c #987858",
"Z. c #A08060",
"A. c #400058",
"S. c #580870",
"D. c #681880",
"F. c #782890",
"G. c #9040A8",
"H. c #C070D8",
"J. c #E090F8",
"K. c #F8D8F0",
"L. c #8838A0",
"P. c #9848B0",
"I. c #A050B8",
"U. c #A858C0",
"Y. c #D080E8",
"T. c #D888F0",
"R. c #F0A0F8",
"E. c #F8C0F0",
"W. c #C0A080",
"Q. c #E898F8",
"!. c #B060C8",
"~. c #B868D0",
"^. c #F8A8F8",
"/. c #C878E0",
"(. c #100018",
"). c #300048",
"_. c #500868",
"`. c #380850",
"'. c #702088",
"]. c #803098",
"[. c #000088",
"{. c #00D000",
"}. c #00A0B8",
"|. c #C00000",
" X c #200000",
".X c #E80000",
"XX c #280000",
"oX c #9898F0",
"OX c #B0B0F0",
"+X c #D8D8F0",
"@X c #9088F0",
"#X c navy",
"$X c #0000A0",
"%X c #0000D0",
"&X c #4040F0",
"*X c #E00000",
"=X c #A850A8",
"-X c #6060F0",
";X c #7070F0",
":X c #8080F0",
">X c #F8C808",
",X c #00F000",
"<X c #000078",
"1X c #000090",
"2X c #0000A8",
"3X c #0000C8",
"4X c #5050F0",
"5X c #3030F0",
"6X c #0000E0",
"7X c #0000B8",
"8X c #0000F0",
"9X c #D84000",
"0X c #F87800",
"qX c #00E800",
"wX c #900800",
"eX c #B05000",
"rX c #B87000",
"tX c #B88000",
/* pixels */
"h.h.h.h.2.2.2.2.2.2.2.2.2.2.2.2.2.2.2.2.2.2.2.2.2.2.2.2.2.2.2.2.2.2.2.2.2.2.2.2.2.2.h.h.h.h.h.= ",
"h.h.h.2.2.$.$.$.$.$.$.$.$.$.$.$.$.$.$.$.$.$.$.$.$.$.$.$.$.$.$.$.$.$.$.$.$.$.$.$.$.2.2.2.h.h.h.= ",
"h.h.2.2.$.$.1.1.1.1.1.1.1.1.1.1.1.1.1.1.1.1.1.1.1.1.1.1.1.1.1.1.1.1.1.1.1.1.1.$.$.$.$.2.2.h.h.= ",
"= h.2.$.$.1.1.1.1.1.1.1.1.1.1.1.1.1.1.1.1.1.1.1.1.1.1.1.1.1.1.1.1.1.1.1.1.1.1.1.1.1.$.$.2.2.h.= ",
"= h.2.$.$.1.1.1.1.1.1.| | | | | | | | | | | | | | | | | | | | | | | | | | | 1.1.1.1.1.$.$.2.h.= ",
"= h.2.$.$.1.1.1.1.1.| | f.f.q.q.q.q.q.q.q.q.q.q.q.q.q.q.q.q.q.q.q.q.q.f.f.| | 1.1.1.1.$.$.2.h.= ",
"= h.2.$.$.1.1.| | f.f.q.q.j.j.j.0.0.9.e.8.8.8.8.8.8.8.8.8.e.9.0.0.j.j.j.q.q.f.f.| | 1.$.$.2.h.= ",
"@ @ @ h.2.2.2.2.2.2.2.2.2.2.2.2.2.2.2.2.2.2.2.2.2.2.2.2.2.2.2.2.2.2.2.2.2.2.2.2.2.2.2.2.h.@ @ @ ",
"2.$.$.$.$.$.$.$.$.$.$.$.$.$.1.1.1.1.1.1.1.1.1.1.| | | | | | | 2.| | | | | | | | | 1.1.1.1.1.1.2.",
"2.$.> # > # > # > # & # & f.1.2.2.2.2.2.2.2.2.2.$.| f.f.f.f.f.2.f.> # > # > # > # & # & f.| 1.2.",
"2.$.# # # # # # # # # # # q.1.2.q.q.q.q.q.2.0.0.e.e.q.q.q.q.f.2.q.# # # # # # # # # # # q.f.1.2.",
"2.$.> # > # > # > # & # & j.| 2.q.0.0.0.2.t.2.e.e.5.j.j.j.j.q.2.0.> # > # > # > # & # & j.f.1.2.",
"2.$.# # # # # # # # # # # 0.f.2.j.9.8.8.5.2.5.5.5.5.0.0.0.0.j.2.9.# # # # # # # # # # # j.f.1.2.",
"2.$.& # & # & # & # & # & 0.0.f.9.e.8.5.Q 4.4.4.4.4.0.0.0.0.j.2.8.& # & # & # & # & # & 0.f.1.2.",
"2.$.1.| f.f.q.q.j.j.0.0.0.0.0.0.0.0.0.0.0.0.0.0.0.0.0.0.0.0.0.2.5.0.0.0.0.0.0.0.0.0.0.0.0.f.1.2.",
"2.$.1.| f.j.0.9.e.e.8.8.5.5.Q Q 7.7.7.7.7.Q Q 5.5.8.8.e.e.9.0.2.Q Q Q Q 5.5.8.8.e.e.9.9.0.f.1.2.",
"h.h.h.h.h.2.2.2.$.$.$.$.$.$.$.$.$.$.$.$.$.$.$.$.$.$.$.$.$.$.$.h.2.$.$.$.$.$.$.$.$.$.2.2.2.h.h.h.",
"2.$.1.f.f.f.f.f.f.f.f.f.f.f.f.f.f.f.f.f.f.f.f.f.f.f.f.f.f.f.f.2.f.f.f.f.f.f.f.f.f.f.f.| | 1.$.2.",
"2.$.1.1.1.1.1.1.1.1.1.1.1.1.1.1.1.1.1.1.1.1.1.1.1.1.1.1.1.1.1.2.| h.| h.| h.1.h.1.h.$.h.$.h.$.2.",
"2.2.2.2.2.2.2.2.2.2.2.2.2.2.2.2.2.2.2.2.2.2.2.2.2.2.2.2.2.2.1.2.0.h.0.h.0.h.q.h.q.h.q.h.q.h.$.2.",
"2.2.f.q.q.q.q.q.q.q.q.q.q.q.q.q.q.q.q.q.q.q.q.q.q.q.q.q.q.q.| 2.8.2.8.2.0.2.q.2.q.2.q.2.q.2.$.2.",
"2.2.f.q.| 1.2.2.= = = = = = = = = = = = = = = = = 2.1.q.j.j.| 2.2.2.2.2.2.2.2.2.2.2.h.h.h.h.2.2.",
"2.2.f.| $.y y y y y y y y y y y y y y y y y y y y = = 1.j.9.| 2.Q 8.e.9.9.0.j.j.j.q.q.q.q.f.1.2.",
"2.2.f.1.y y 0 w 1 0 , > > ; ; : : & & & * * * * y = = 2.j.e.f.2.%.# # # # # # # # # # # # # 1.2.",
"2.2.f.2.y 0 r 5 0 ; : & & & * * * * * * y y y = = # # # 0.8.f.2.6.# ] } ] # ] } ] # ] } ] # 1.2.",
"2.2.f.2.y w 5 w , ; & & * * * y y y y y y y = = = # # # 0.5.f.2.w.# } # } # } # } # } # } # 1.2.",
"2.2.f.y y 1 0 , ; : & * y y y y = = = = = = = # # # # # 9.Q f.2.6.# } # } # } # } # } # } # 1.2.",
"2.2.f.y y , ; ; : & * y y = = = = = # # # # # # # # # # 9.4.f.2.%.# ] } ] # ] } ] # ] } ] # 1.2.",
"2.2.f.y y , : & & * y y = = = = # # # # # # # # # # # # 9.%.f.2.%.# # # # # # # # # # # # # 1.2.",
"2.2.f.y y , & * * y y = = = # # # # # # # # # # # # # # 9.%.f.2.%.e.0.q.q.q.q.q.q.q.q.q.f.| 1.2.",
"2.2.f.y y > & * y y = = # # # # # # # # # # # # # # # # 9.k.f.2.4.e.0.F x.2.F x.2.c.x.f.f.| 1.2.",
"2.2.f.y y > & * y = = = # # # # # # # # # # # # # # # # 9.k.q.2.4.e.0.x.S 2.x.S 2.x.S 2.f.| 1.2.",
"2.2.f.y y ; * * y = = # # # # # # # # # # # # # # # # # 9.6.q.2.4.e.0.2.2.2.2.2.2.2.2.2.f.| 1.2.",
"2.2.f.y y ; * y y = = # # # # # # # # # # # # # # # # # 9.6.q.2.7.e.0.F x.2.c.x.2.v.x.2.f.| 1.2.",
"2.$.f.y y : * y = = # # # # # # # # # # # # # # # # # # 9.6.q.2.7.e.0.x.S 2.x.S 2.x.S 2.f.| 1.2.",
"2.$.f.y y : * y = = # # # # # # # # # # # # # # # # # # 9.6.q.2.Q e.0.2.2.2.2.2.2.2.2.2.f.| 1.2.",
"2.$.f.y y & * y = = # # # # # # # # # # # # # # # # # # 9.b.q.2.Q e.0.F x.2.v.x.2.n.S 2.f.| 1.2.",
"2.$.f.y y & * y = # # # # # # # # # # # # # # # # # # # 9.w.q.2.Q e.0.x.S 2.x.S 2.S b 2.f.| 1.2.",
"2.$.f.y y & * y = # # # # # # # # # # # # # # # # # # # 9.w.q.2.5.e.0.2.2.2.2.2.2.2.2.2.f.| 1.2.",
"2.$.f.y y & y = # # # # # # # # # # # # # # # # # # # # 9.w.q.2.5.e.0.0.0.0.0.0.0.0.0.0.f.| 1.2.",
"2.$.f.1.= = # # # # # # # # # # # # # # # # # # # # # 2.9.w.q.2.5.9.0.4 4 4 4 4 4 4 5 f.f.| 1.2.",
"2.$.f.1.$.# # # # # # # # # # # # # # # # # # # # # # 1.9.w.q.2.5.9.0.4 u u C g g u M 2.f.| 1.2.",
"2.$.f.1.1.1.2.2.# # # # # # # # # # # # # # # # # 2.1.q.9.k.q.2.8.9.0.4 g u u u u u q 2.f.| 1.2.",
"2.$.f.1.1.1.1.1.1.1.1.1.| | | f.f.f.q.q.q.j.j.j.9.9.9.9.9.k.q.2.8.9.0.4 # # # # # # 3 2.f.| 1.2.",
"2.$.f.j.0.9.9.e.e.e.e.8.8.5.Q Q 7.7.4.4.4.@.@.@.@.k.k.k.k.k.q.2.8.9.0.5 M q 3 3 1 1 1 2.f.| 1.2.",
"2.$.f.q.q.q.q.q.q.q.q.q.q.q.q.q.q.q.q.q.q.q.q.q.q.q.q.q.q.q.q.2.e.9.0.f.2.2.2.2.2.2.2.2.f.| 1.2.",
"2.$.| | | | | | | | | | | | | | | | | | | | | | | | | | | | | 2.e.9.0.q.q.f.f.f.f.f.f.f.f.| 1.2.",
"2.h.h.h.h.h.h.h.h.h.h.h.h.h.h.h.h.h.h.h.h.h.h.h.h.h.h.h.2.2.2.2.2.2.2.2.2.2.2.2.2.2.2.2.2.2.2.2.",
"2.$.1.| | f.q.j.0.9.e.8.5.5.8.8.e.e.e.e.e.e.e.9.9.9.9.9.9.9.9.9.9.0.0.q.q.f.f.f.f.f.f.f.f.| 1.2.",
"2.$.1.# # # # # # # # # # # # # # # # # # # 0.0.0.# Q 0.0.M.o.b.k.%.@.4.7.Q 5.5.8.8.e.e.f.| 1.2.",
"2.$.1.# ] ] # ] ] # ] ] # ] ] # ] ] # ] ] # 0.0.0.# Q 0.0.M.e.e.e.e.e.e.e.e.e.e.e.e.e.e.| | 1.2.",
"2.$.1.# # # # # # # # # # # # # # # # # # # 0.0.0.# Q 0.0.M.e.e.e.e.e.e.e.e.e.e.e.e.e.e.1.| 1.2.",
"2.$.1.# N.N.# N.N.# N.N.# N.N.# N.N.# N.N.# 0.0.N.^ Y 0.0.w.e.e.e.e.e.e.e.e.e.e.e.e.e.e.1.| 1.2.",
"2.$.1.# # # # # # # # # # # # # # # # # # # 0.0.^ ] W 0.0.w.e.2.7.e.e.e.e.e.e.e.e.2.7.e.$.| 1.2.",
"2.$.1.# ! ! # ! ! # ! ! # ! ! # ! ! # ! ! # 0.0.Y W W 0.0.k.e.7.%.9.9.9.9.9.9.9.9.7.%.e.2.| 1.2.",
"2.$.1.# # # # # # # # # # # # # # # # # # # 0.0.0.# Q 0.0.%.0.0.0.0.0.0.0.0.0.0.0.0.0.0.h.| 1.2.",
"2.$.1.# ] ] # ] ] # ] ] # ] ] # ] ] # ] ] # 0.0.0.# 4.0.0.4.j.j.j.j.j.j.j.j.j.j.j.j.j.j.h.| 1.2.",
"2.$.1.# # # # # # # # # # # # # # # # # # # 0.0.0.# b.0.0.Q q.q.q.q.q.q.q.q.q.q.q.q.q.q.h.| 1.2.",
"2.$.1.| | | | | f.f.q.q.q.q.q.q.q.q.q.q.q.q.q.q.q.4.b.q.q.| | | | | | | | 1.1.$.2.2.h.h.h.| 1.2.",
"2.$.1.1.1.1.1.1.1.1.1.1.1.1.1.1.1.1.1.1.1.1.1.1.1.1.1.1.1.1.1.1.1.1.1.1.1.1.1.1.1.1.1.1.1.1.1.2.",
"# # # # # # # # # # # # # # # # # # # # # # # # # # # # # # # # # # # # # # # # # # # # # # # = ",
"= = = = = = = = = = = = = = = = = = = = = = = = = = = = = = = = = = = = = = = = = = = = = = = = ",
"= = = = = = = = = = = = = = = = = = = = = = = = = = = = = = = = = = = = = = = = = = = = = = = = ",
"= = = = = = = = = = = = = = = = = = = = = = = = = = = = = = = = = = = = = = = = = = = = = = = = "
};
