/* XPM */
static char *result[] = {
/* columns rows colors chars-per-pixel */
"48 65 218 2 ",
"   c #4E3A6B",
".  c #401000",
"X  c #281000",
"o  c #502000",
"O  c #481800",
"+  c #582800",
"@  c #180800",
"#  c #0D0D0D",
"$  c #603000",
"%  c #683800",
"&  c #202020",
"*  c #181818",
"=  c gray3",
"-  c #704000",
";  c gray19",
":  c #282828",
">  c gray22",
",  c gray25",
"<  c #784800",
"1  c #585858",
"2  c #888888",
"3  c #686868",
"4  c #A0A0A0",
"5  c #808080",
"6  c #805000",
"7  c #B88800",
"8  c #885800",
"9  c #484848",
"0  c #505050",
"q  c gray44",
"w  c #606060",
"e  c #909090",
"r  c gray66",
"t  c gray69",
"y  c #101010",
"u  c #906000",
"i  c #381800",
"p  c #986800",
"a  c #A07000",
"s  c #A87800",
"d  c #B08000",
"f  c #C09000",
"g  c #C89800",
"h  c #D0A000",
"j  c #D8A800",
"k  c #402000",
"l  c #482808",
"z  c #503010",
"x  c #583818",
"c  c gray72",
"v  c #604020",
"b  c #705030",
"n  c #785838",
"m  c #684828",
"M  c gray47",
"N  c #806040",
"B  c #989898",
"V  c #C8C8C8",
"C  c #E8B000",
"Z  c #F8C000",
"A  c #F8E8D8",
"S  c #907048",
"D  c gray88",
"F  c #F8F8F8",
"G  c #F8D810",
"H  c #004860",
"J  c #006078",
"K  c #B04800",
"L  c #B03000",
"P  c #B00000",
"I  c #007088",
"U  c #007890",
"Y  c #880000",
"T  c #A88888",
"R  c #A8A098",
"E  c #000098",
"W  c #480000",
"Q  c #007800",
"!  c #980000",
"~  c #F0E840",
"^  c #A80000",
"/  c gray91",
"(  c #C0C0C0",
")  c #780000",
"_  c #D0D0D0",
"`  c #D8D8D8",
"'  c #580000",
"]  c #680000",
"[  c #380000",
"{  c #006880",
"}  c #B80000",
"|  c #003000",
" . c #F0B800",
".. c #F8D020",
"X. c #D80000",
"o. c #00C000",
"O. c #984040",
"+. c #985858",
"@. c #009000",
"#. c #70F870",
"$. c #002000",
"%. c #009800",
"&. c #280038",
"*. c #000060",
"=. c #0000C0",
"-. c #003850",
";. c #004058",
":. c #005068",
">. c #005870",
",. c #003048",
"<. c #002840",
"1. c #002800",
"2. c #001800",
"3. c #00D800",
"4. c #008800",
"5. c #007000",
"6. c #00A800",
"7. c #008000",
"8. c #006800",
"9. c #005800",
"0. c #005000",
"q. c #004000",
"w. c #00B800",
"e. c #006000",
"r. c #F8E020",
"t. c #0000E8",
"y. c #008098",
"u. c #0088A0",
"i. c #0090A8",
"p. c #0098B0",
"a. c #00A8C0",
"s. c #00B0C8",
"d. c #C0C0F0",
"f. c #003800",
"g. c #001830",
"h. c #000800",
"j. c #004800",
"k. c #00A000",
"l. c #00C800",
"z. c #00B8D0",
"x. c #A88868",
"c. c #F0D8B8",
"v. c #D8B898",
"b. c #00B000",
"n. c #B09070",
"m. c #002038",
"M. c #00E000",
"N. c #D00000",
"B. c #000820",
"V. c #886840",
"C. c #987858",
"Z. c #A08060",
"A. c #400058",
"S. c #580870",
"D. c #681880",
"F. c #782890",
"G. c #9040A8",
"H. c #C070D8",
"J. c #E090F8",
"K. c #F8D8F0",
"L. c #8838A0",
"P. c #9848B0",
"I. c #A050B8",
"U. c #A858C0",
"Y. c #D080E8",
"T. c #D888F0",
"R. c #F0A0F8",
"E. c #F8C0F0",
"W. c #C0A080",
"Q. c #E898F8",
"!. c #B060C8",
"~. c #B868D0",
"^. c #F8A8F8",
"/. c #C878E0",
"(. c #100018",
"). c #300048",
"_. c #500868",
"`. c #380850",
"'. c #702088",
"]. c #803098",
"[. c #000088",
"{. c #00D000",
"}. c #00A0B8",
"|. c #C00000",
" X c #200000",
".X c #E80000",
"XX c #280000",
"oX c #9898F0",
"OX c #B0B0F0",
"+X c #D8D8F0",
"@X c #9088F0",
"#X c navy",
"$X c #0000A0",
"%X c #0000D0",
"&X c #4040F0",
"*X c #E00000",
"=X c #A850A8",
"-X c #6060F0",
";X c #7070F0",
":X c #8080F0",
">X c #F8C808",
",X c #00F000",
"<X c #000078",
"1X c #000090",
"2X c #0000A8",
"3X c #0000C8",
"4X c #5050F0",
"5X c #3030F0",
"6X c #0000E0",
"7X c #0000B8",
"8X c #0000F0",
"9X c #D84000",
"0X c #F87800",
"qX c #00E800",
"wX c #900800",
"eX c #B05000",
"rX c #B87000",
"tX c #B88000",
/* pixels */
"& & & & & & * * * & & & & & & & & & & & & & & & & & & & & & * = & & & & & & & & & & * = & & * * ",
": ; : : ; ; , = : & : ; : : : ; : ; , = : & : ; ; : ; : ; ; > * & & : : : : : : ; ; > * & & : & ",
"> > > > > > 5 : : ; > > > > > > > > 5 : : > > > ; ; ; ; ; ; 5 > & ; ; ; ; ; ; ; ; ; 1 > & ; ; ; ",
", > > > > > ; > > > , 9 9 9 0 0 1 1 0 1 0 1 1 1 0 0 1 1 1 1 1 1 0 0 , , , > > > ; ; : : : : : : ",
", , , , , , 0 w 3 M M 5 M M 5 M 5 M q 3 5 5 5 M M 5 5 5 5 5 5 5 5 5 5 5 5 5 M q w 0 , : & & & & ",
"* * & : : > 1.1.1.f.f.j.j.9.8.5.8.9.9.8.5.5.5.5.5.5.5.5.9.9.5.5.5.0.q.q.q.| | 1.$.$.> : * * * * ",
"* y # # 0 5 1.1.f.j.8.8.Q 4.7.7.5.8.9.5.Q k.oXa.a.k.@.4.5.9.k.a.k.4.7.5.e.j.q.| 1.$.5 0 # # y * ",
"y # & 0 w e 1.| j.j.0.Q 4.k.q.k.9.4.5.8.4.4.k.OXa.a.a.a.6.7.6.a.a.%.@.7.5.e.j.q.1.$.e w 0 & # y ",
"y # > c w e 1.f.8.0.q.4.k.q.q.5.q.9.5.5.4.k.OXOXOXOXOXOXOX6.a.a.a.p.p.%.Q e.0.j.f.1.e w c > # y ",
": & * : m r | f.Q 8.q.q.6.q.8.8.q.q.4.4.k.OXOXOXOX{.{.o.b.b.o.a.a.p.p.6.7.8.0.j.q.1.r m : * & : ",
": l k x m r f.| 8.Q q.q.oX8.1.1.1.a.k.k.d.d.OXd.d.d.{.o.o.w.w.}.s.a.oXp.@.8.9.j.q.| r m x k l : ",
": x l x w B f.| 0.8.@.q.8.1.s.a.q.q.9.d._ _ _ _ _ d.d.3.3.z.s.z.a.a.oXoX6.5.e.0.q.| B w x l x : ",
": > + v 1 2 q.| | 8.@.8.1.s.q.}.a.q.q.9._ +X+X+X_ _ _ d.d.d.d.OXoXoXw.k.4.f.f.0.j.f.2 1 v + > : ",
": > x , 1 2 q.j.| | q.1.k.6.}.q.9.OXd.q._ +X+X+X+X+X+X+X+X_ d.OXoX6.k.Q j.Q e.f.f.f.2 1 , x > : ",
": > v , 1 2 j.j.9.0.1.q.q.6.}.q.q.9.6.d.d._ +X+X+X+X+X+X+X+Xd.OXoXoXw.j.6.Q 8.e.j.f.2 1 , v > : ",
": > , , 1 B j.0.9.q.1.@.@.6.w.w.q.q.%.6.z.d._ _ _ _ _ +X+X+Xd.z.a.}.9.oXw.6.5.q.f.f.B 1 , , > : ",
": > , , 1 r j.9.q.1.@.q.q.9.%.%.4.7.7.4.s.oXOXd.+X+X_ _ d.d.OXz.s.a.5.a.OX6.q.e.j.$.r 1 , , > : ",
": > , , w r j.e.1.5.5.4.q.q.9.7.7.5.5.7.%.}.oXoXw.6.6.OXd.OXOXOXz.s.4.OXOXf.9.e.j.$.r w , , > : ",
"* * & > w r j.q.1.5.5.Q 4.%.%.4.| e.9.Q 4.%.%.6.%.%.%.6.oXOXOXOXa.a.a.a.f.8.Q e.j.$.r w > & * * ",
"* # > 4 > e 0.1.e.e.5.5.5.a.| | | 9.e.5.Q 7.7.%.oX%.%.6.oXa.a.a.a.a.oXf.8.f.5.e.j.$.e > 4 > # * ",
"* # & 0 > e q.1.| 0.9.5.5.a.| | 5.9.9.e.5.Q %.%.oXs.s.s.a.a.a.a.a.oXf.8.8.f.7.e.$.1.e > 0 & # * ",
"* y # y m 5 1.q.9.e.5.| | | 0.j.j.j.9.e.8.Q %.@Xs.a.a.a.%.@.a.a.}.p.8.k.k.f.8.5.$.1.5 m y # y * ",
": x i + m B 1.0.0.9.e.| j.0.| | | 9.9.e.8.Q q.p.%.a.%.@.7.5.}.p.u.y.k.%.@.f.8.$.f.1.B m + i x : ",
": > k x m 2 1.j.0.0.| | 0.q.| | | | 7.5.5.7.q.p.%.%.7.5.e.0.u.y.U I @.4.4.8.f.$.j.1.2 m x k > : ",
": > k v 1 B 1.q.j.0.| | f.$.q.$.9.j.| 7.7.7.i.q.I i.5.e.1.q.J J I J 7.7.7.8.1.$.f.1.B 1 v k > : ",
": > x , 1 r 1.f.q.j.| f.$.$.| $.5.5.e.e.y.y.y.q.J I e.1.q.q.;.q.j.0.8.7.Q Q 1.j.1.1.r 1 , x > : ",
": > x > w r $.| f.q.f.$.$.$.| j.j.e.e.8.7.>.>.0.q.J 1.:.:.;.;.| q.0.e.5.8.5.1.f.1.$.r w > x > : ",
": ; > , w B $.$.| f.| $.f.$.9.e.e.f.e.8.5.7.:.:.q.:.2.>.;.;.j.1.q.j.9.e.8.e.1.f.1.$.B w > , ; : ",
": ; > , w B $.$.| | $.$.f.j.j.9.f.$.j.j.5.5.7.:.q.2.:.;.;.j.| $.f.q.0.9.e.j.9.1.1.$.B w , , ; : ",
"& ; > , w B $.$.$.$.$.$.| q.0.f.$.e.j.j.8.5.5.7.8.2.;.;.j.j.$.1.1.q.j.0.j.0.7.1.$.$.B w , > ; & ",
"* ; > > 1 B $.| $.1.$.$.| q.0.f.$.2.h.9.e.8.8.5.9.2.;.;.j.| $.j.1.f.j.j.0.%.q.$.$.2.B 1 > > ; * ",
"* : > 4 1 B $.2.| q.0.q.| | f.$.j.j.j.0.0.f.8.e.j.1.2.e.j.$.1.9.$.| q.f.%.q.0.$.2.2.B 1 4 > # * ",
"y & : > w B 9.2.j.e.Q 8.q.| $.q.0.7.6.3.3.6.%.4.5.5.5.1.$.1.f.8.$.| q.0.7.q.j.$.2.2.B w > : # y ",
"y * y : w r 9.$.9.Q 6.7.8.| f.8.%.6.4.4.9.j.f.f.f.j.| $.$.| j.8.$.| f.7.q.e.f.$.2.2.r w : # X y ",
"y & y & w r 9.1.e.7.3.7.8.| f.7.5.8.j.q.f.f.0.5.9.1.q.$.| | 8.e.$.| | 7.| 9.| $.2.2.r w l i l y ",
"* : * & w 2 0.| 8.7.o.5.e.| f.0.0.j.q.f.f.Q 5.9.f.| e.$.| f.7.j.$.1.0.5.1.j.1.$.2.2.2 w z k x * ",
"* ; & > 1 2 0.f.Q 4.6.8.e.1.f.q.q.f.| | %.5.9.f.2.q.Q j.| j.k.j.1.$.5.| j.f.1.2.1.1.2 1 x k > * ",
"* ; : , w B 0.q.7.4.6.e.j.$.f.f.f.| 1.%.7.9.0.1.2.j.@.j.| j.o.f.| $.5.| j.| 1.2.j.9.B w , l > * ",
"* > ; , w B 0.j.7.6.Q 0.f.$.1.| | 1.4.5.9.0.f.$.2.j.Q e.| j.k.f.f.$.e.1.j.1.2.j.8.8.B w > z > * ",
"* > > , w r j.j.7.6.e.j.| $.$.$.1.0.0.0.0.j.1.2.2.q.e.Q | f.7.j.f.$.j.1.f.$.j.8.j.f.r w , > > * ",
"* > > , w r j.j.%.Q j.f.$.2.2.$.j.j.j.j.q.f.$.2.2.| j.Q f.1.Q e.f.1.$.1.$.j.8.j.f.2.r w , , > * ",
"* > > > 1 r q.0.4.j.f.| 2.2.| q.q.q.q.f.f.$.2.1.2.2.j.e.f.$.e.Q f.1.$.1.j.8.j.f.2.1.r 1 > > > * ",
"* > & : w e q.8.e.f.| 2.2.1.| | | | 1.1.$.2.1.f.2.2.| | $.$.j.Q j.| $.j.8.j.f.2.1.j.e w : & > * ",
"* y > 4 1 e 0.e.f.| 2.2.$.$.$.1.1.$.$.$.2.q.j.j.j.0.e.8.8.f.f.Q e.f.$.8.j.f.2.1.j.| e 1 4 > y * ",
"* y : > w 5 0.f.| 2.2.2.2.2.2.2.2.2.2.2.q.j.0.9.e.8.5.5.5.@.Q f.Q j.$.j.f.2.1.j.| 2.5 w > : y * ",
"* & y : w 5 q.| 2.2.2.h.2.2.2.2.2.2.2.$.$.$.f.j.j.j.j.9.9.Q @.Q f.e.$.| 2.1.j.| 2.h.5 w : y & * ",
"& l X + 0 3 f.h.h.h.h.h.h.h.h.h.2.2.2.2.2.2.1.1.1.f.j.j.j.j.j.j.j.f.$.1.1.2.2.2.h.h.3 0 + X l & ",
"& z k , 0 9 0 0 0 w 3 w 3 M q 5 5 M M M q 5 M q 3 3 M M 5 q q M 3 3 w 3 w w 0 0 0 0 9 0 v k z & ",
": > + , 0 1 ; > > > , 9 9 0 0 0 1 1 1 0 0 1 1 0 0 1 1 0 1 0 0 0 0 9 9 9 , , > > ; ; 1 0 v + > : ",
": > $ , 0 w > 5 : : > > > > > > > > 5 : : > > > ; ; ; ; 1 > & ; ; ; ; ; ; ; ; 1 > * w 0 m $ > : ",
": > , , 0 q ; , = : : ; : : : ; : ; , = : & : ; ; : ; ; > * & & : : : : : : : > * * 1 0 , $ > : ",
": > , , 0 q * : : : : : : : : : : : : : : : : : : : : : : & * = : : : : : : : & * * 0 0 , , > : ",
": > , , 0 w # # # # # # # # # # # # # # # # # # # # # # # # # # # # # # # # # # # # 0 0 , , > : ",
": > , , 0 w y # y y y y y y y y y y # y y y y y y y y y y # y y y y y y y y y # y y 1 0 , , > : ",
": & & > 0 w y # y * * * * * * * * y # y * * * * * * * * * # * * * * * * * * * # * * 1 0 > & & : ",
"& * > 1 > w & y & : : : : : : : : & y & : : : : : : : : & # & : : : * * : : * * & * 0 > 1 > * & ",
"& * : > > w ; & : : : : : ; ; : ; ; & ; ; ; : : ; : ; ; : * : ; ; : ; : : : : * : & 0 > > : * & ",
": & * : v w > : > ; ; ; > > ; ; ; > : > > > > : : > > > ; : ; > ; > ; > ; ; ; > ; : 0 v : * & : ",
": + X v 0 w > > , , > > > > , > > > ; > , > > > > , , , > : > , , > > > > > > , > ; 0 0 v X + : ",
"& & & & > 1 > > > > , , > , , , > , > , , , , , , , , , , > , , , , , , , , > > > ; 0 > & & & & ",
": : : : : : : : : : & & & & & & & & & & & & & & : : : : : : : : : : ; : : & & & & & & * * * * * ",
"; ; ; ; ; ; q > * & > > ; ; ; > ; > q > * & > ; : : : : : q > * & : : : : : : : : : 2 > * & ; ; ",
"& & & & & & y y * & & & & & & & & & y y * & & & & & & & & = y * & & & & & & & & & & = y * & & & ",
"y y y y y y = = = * * * * * * * * * = = = * * * y y y y y = = = y y y y y y y y y y = = = y y y ",
"                                                                                                "
};
