/* XPM */
static char *result[] = {
/* columns rows colors chars-per-pixel */
"48 65 218 2 ",
"   c #4E3A6B",
".  c #401000",
"X  c #281000",
"o  c #502000",
"O  c #481800",
"+  c #582800",
"@  c #180800",
"#  c #0D0D0D",
"$  c #603000",
"%  c #683800",
"&  c #202020",
"*  c #181818",
"=  c gray3",
"-  c #704000",
";  c gray19",
":  c #282828",
">  c gray22",
",  c gray25",
"<  c #784800",
"1  c #585858",
"2  c #888888",
"3  c #686868",
"4  c #A0A0A0",
"5  c #808080",
"6  c #805000",
"7  c #B88800",
"8  c #885800",
"9  c #484848",
"0  c #505050",
"q  c gray44",
"w  c #606060",
"e  c #909090",
"r  c gray66",
"t  c gray69",
"y  c #101010",
"u  c #906000",
"i  c #381800",
"p  c #986800",
"a  c #A07000",
"s  c #A87800",
"d  c #B08000",
"f  c #C09000",
"g  c #C89800",
"h  c #D0A000",
"j  c #D8A800",
"k  c #402000",
"l  c #482808",
"z  c #503010",
"x  c #583818",
"c  c gray72",
"v  c #604020",
"b  c #705030",
"n  c #785838",
"m  c #684828",
"M  c gray47",
"N  c #806040",
"B  c #989898",
"V  c #C8C8C8",
"C  c #E8B000",
"Z  c #F8C000",
"A  c #F8E8D8",
"S  c #907048",
"D  c gray88",
"F  c #F8F8F8",
"G  c #F8D810",
"H  c #004860",
"J  c #006078",
"K  c #B04800",
"L  c #B03000",
"P  c #B00000",
"I  c #007088",
"U  c #007890",
"Y  c #880000",
"T  c #A88888",
"R  c #A8A098",
"E  c #000098",
"W  c #480000",
"Q  c #007800",
"!  c #980000",
"~  c #F0E840",
"^  c #A80000",
"/  c gray91",
"(  c #C0C0C0",
")  c #780000",
"_  c #D0D0D0",
"`  c #D8D8D8",
"'  c #580000",
"]  c #680000",
"[  c #380000",
"{  c #006880",
"}  c #B80000",
"|  c #003000",
" . c #F0B800",
".. c #F8D020",
"X. c #D80000",
"o. c #00C000",
"O. c #984040",
"+. c #985858",
"@. c #009000",
"#. c #70F870",
"$. c #002000",
"%. c #009800",
"&. c #280038",
"*. c #000060",
"=. c #0000C0",
"-. c #003850",
";. c #004058",
":. c #005068",
">. c #005870",
",. c #003048",
"<. c #002840",
"1. c #002800",
"2. c #001800",
"3. c #00D800",
"4. c #008800",
"5. c #007000",
"6. c #00A800",
"7. c #008000",
"8. c #006800",
"9. c #005800",
"0. c #005000",
"q. c #004000",
"w. c #00B800",
"e. c #006000",
"r. c #F8E020",
"t. c #0000E8",
"y. c #008098",
"u. c #0088A0",
"i. c #0090A8",
"p. c #0098B0",
"a. c #00A8C0",
"s. c #00B0C8",
"d. c #C0C0F0",
"f. c #003800",
"g. c #001830",
"h. c #000800",
"j. c #004800",
"k. c #00A000",
"l. c #00C800",
"z. c #00B8D0",
"x. c #A88868",
"c. c #F0D8B8",
"v. c #D8B898",
"b. c #00B000",
"n. c #B09070",
"m. c #002038",
"M. c #00E000",
"N. c #D00000",
"B. c #000820",
"V. c #886840",
"C. c #987858",
"Z. c #A08060",
"A. c #400058",
"S. c #580870",
"D. c #681880",
"F. c #782890",
"G. c #9040A8",
"H. c #C070D8",
"J. c #E090F8",
"K. c #F8D8F0",
"L. c #8838A0",
"P. c #9848B0",
"I. c #A050B8",
"U. c #A858C0",
"Y. c #D080E8",
"T. c #D888F0",
"R. c #F0A0F8",
"E. c #F8C0F0",
"W. c #C0A080",
"Q. c #E898F8",
"!. c #B060C8",
"~. c #B868D0",
"^. c #F8A8F8",
"/. c #C878E0",
"(. c #100018",
"). c #300048",
"_. c #500868",
"`. c #380850",
"'. c #702088",
"]. c #803098",
"[. c #000088",
"{. c #00D000",
"}. c #00A0B8",
"|. c #C00000",
" X c #200000",
".X c #E80000",
"XX c #280000",
"oX c #9898F0",
"OX c #B0B0F0",
"+X c #D8D8F0",
"@X c #9088F0",
"#X c navy",
"$X c #0000A0",
"%X c #0000D0",
"&X c #4040F0",
"*X c #E00000",
"=X c #A850A8",
"-X c #6060F0",
";X c #7070F0",
":X c #8080F0",
">X c #F8C808",
",X c #00F000",
"<X c #000078",
"1X c #000090",
"2X c #0000A8",
"3X c #0000C8",
"4X c #5050F0",
"5X c #3030F0",
"6X c #0000E0",
"7X c #0000B8",
"8X c #0000F0",
"9X c #D84000",
"0X c #F87800",
"qX c #00E800",
"wX c #900800",
"eX c #B05000",
"rX c #B87000",
"tX c #B88000",
/* pixels */
"1 1 1 1 1 1 1 1 1 1 1 1 1 1 1 1 1 1 0 0 0 0 0 0 0 0 , , , , , , , , , , , , , , , , , , , , , ; ",
"F D D D D D ` ` _ V V ( ( c c t t r r 4 4 B B e e 2 2 5 5 M M q q q 3 3 3 w w w 1 1 1 0 0 0 0 ; ",
"F D D D D ` ` _ V V ( ( c c t t r r 4 4 B B e e 2 2 5 5 M M q q q 3 3 3 w w w 1 1 1 0 0 0 0 9 ; ",
"F D D F 4 5 _ V V ( ( F 2 5 t r r 4 4 F q 3 5 2 2 5 5 V 1 0 q q 3 3 3 ( , , 9 1 1 0 0 e , ; > ; ",
"F D D _ 5 0 e V ( ( c _ 5 1 5 r 4 4 B 4 q 1 3 2 5 5 M e 1 , 1 3 3 3 w 5 , ; > 9 0 0 0 q , : ; ; ",
"F D ` 5 0 1 5 t ( c c 5 1 9 q e 4 B B 3 1 9 1 q 5 M M 1 , > 9 w 3 w w 9 ; ; > , 9 0 0 ; : & : ; ",
"F ` ` _ 5 5 5 2 t c t t 5 5 q q e B e 5 3 w w 1 q M q q 1 0 0 9 1 w w 1 9 , , > , 9 9 , > ; : ; ",
"/ ` _ V V r B 2 4 t t r r e e 5 5 e e 2 2 q q 3 q q q q 3 w 1 1 1 w 1 1 1 9 9 , , 9 9 9 , > > ; ",
"/ _ V V ( ( t 4 4 t r r 4 4 B e e e 2 2 5 5 M M q q q 3 3 3 w w w 1 1 1 0 0 0 0 9 9 9 9 , , , ; ",
"D V V ( ( c c t t r r 4 4 B B e e 2 2 5 5 M M q q q 3 3 3 w w w 1 1 1 0 0 0 0 9 9 9 9 , , , , ; ",
"_ V ( ( c c t t r r 4 4 B B e e 2 2 5 5 M M q q q 3 3 3 w w w 1 1 1 0 0 0 0 9 9 9 9 , , , , , ; ",
"_ ( ( F 2 5 t r r 4 4 B B e e 2 2 5 5 M M q q q 3 3 3 w w w 1 1 1 0 0 0 0 9 9 9 9 , , q > ; > ; ",
"V ( c _ 5 1 5 r 4 4 B ` V V V V ( c t r B e 2 5 M q 3 3 3 w w 1 0 0 9 9 ; > , , , , , > ; & : ; ",
"V c c 5 1 9 M B 4 B B ` V ( ( c t r 4 B e 2 5 5 q 3 3 w 1 1 0 9 9 , , ; & & > , , , , ; & * & : ",
"V c t t 5 5 M 5 B B e ` ` ( c t t r B e 2 2 5 M 3 3 w w 1 0 0 9 , , ; & & * ; > , , , > : : & & ",
"( t t r B 2 5 5 2 e e ` ` ( c t r 4 B e 2 2 M q 3 3 w 1 1 0 9 9 , , & & & * ; > , , > > > > : : ",
"( t r r 4 B 2 2 2 e 2 ` _ ` ( t r 4 B e 2 5 M q 3 3 w 1 0 0 9 9 , ; & & * * ; > , > > > > > > & ",
"( r r 4 4 B B e e 2 2 ` _ ` ( t r 4 B e 2 5 M q 3 w w 1 0 0 9 , ; & & & & * ; > > > > > > > ; & ",
"c r 4 4 B B e e 2 2 5 _ _ _ _ ( r 4 B e 2 5 M q 3 w 1 1 0 9 9 , & & & & * * ; ; > > > > > ; ; & ",
"c 4 4 F q 3 5 2 2 5 5 _ _ _ _ _ t 4 B e 2 5 M q 3 w 1 0 0 9 , ; & & & * * * : ; > > > q ; : ; & ",
"c 4 B 4 q 1 3 2 5 5 M _ V V _ _ ( 4 B e 2 5 M q 3 w 1 0 9 9 , & & & & & * y : ; > > > ; & * : & ",
"c B B 3 1 9 3 M 5 M M _ V V V _ _ r B e 2 5 M q 3 w 1 0 9 9 ; & & & & * * y : ; > > ; & * y * & ",
"r B e 5 3 3 3 q M M q V V V V V V _ B e 2 5 M q 3 w 1 0 0 ; & & & & * & * y : ; > ; ; : & & * * ",
"r e e 2 2 M 3 3 q q q V ( ( ( V V _ r e 2 5 M q 3 w 0 0 , & & & & & & * * y : ; ; ; ; ; : & & & ",
"r e 2 2 5 5 M q q q q ( ( c c ( ( V V B 2 5 M q 3 w 0 0 ; & & & & & * & * y : : ; ; ; ; : : & & ",
"r 2 2 5 5 M M q q q 3 ( c t t t c c ( V B 5 M q 3 w 0 ; & & & & & & & * * y & : ; ; ; : : : : * ",
"B 2 5 5 M M q q q 3 3 c t r r r r t c V r 2 M q 3 w 0 ; & & & & & & * * * y & : ; ; : : : : : * ",
"B 5 5 ( 1 0 q q 3 3 3 c r r 4 4 r r t c V B 5 q w w ; & & & & & & * & * * y & : ; : : w : * : * ",
"B 5 M e 1 9 1 3 3 3 w t r 4 4 4 4 r r r V r 2 3 w 0 ; & & & & & & & * * * y & : : : : : & y * * ",
"B M M 1 0 9 0 w 3 w w t r 4 4 B 4 4 r r c V r q 0 ; & & & & & & & * & * y y & & : : : * y y y * ",
"2 M q q 1 1 0 1 w w w r 4 4 B B B 4 4 r t c V B q & & & & & & & * & * * y y * & : : : : * * * y ",
"2 q q q 3 1 1 0 1 w 1 r 4 B B B B B 4 r r c c 2 w : & & & & & * & * * * y y * & : : : & & * * * ",
"2 q q 3 3 3 1 1 w 1 1 4 B B e e B B 4 4 r t c q w : & & & & & & * & * * y y * & : : & & & & & * ",
"2 q 3 3 3 w w w 1 1 1 4 B B e e e B B 4 r t 4 w 0 > & & & & & * & * * * y y * & : & & & & & & y ",
"5 3 3 3 w w w 1 1 1 0 4 B e e e e B B 4 r ( 3 , ; : > & & & * & * * * * y y * & & & & & & & & y ",
"M 3 3 ( 0 , 1 1 1 0 0 4 B e e e e B B 4 t ( 0 ; & & > & & * & * & * * y y y * * & & & 9 : y * y ",
"M 3 w 5 9 > 9 1 0 0 0 B B e e e e B 4 r ( 3 , : & * * > & & * & * * * y y y y * & & & : & # y y ",
"M w w 9 > > , 9 0 0 0 B e e e e e B 4 t ( 0 ; & * * * * ; & & * * * y y y = y * & & & y # # # y ",
"M w w 1 9 > , , 9 0 9 B e e e e e B 4 c 3 > : & * * * * ; & * * * y * y y = y * & & & * * y y # ",
"q w 1 1 1 9 9 , , 9 9 e e e e e e B t c 0 ; & * * * * * * : & * * * y y y = y * & & * * * * y y ",
"q 1 1 1 0 0 9 9 9 9 9 e e e e e e r t 3 ; : & * * * * * * * : & * y * y y = y * & * * * * * * y ",
"q 1 1 0 0 0 0 9 9 9 9 e e e e e B t 3 > : & * * * * * * * * & & y * y y y = y * * * * * * * * y ",
"3 1 0 0 0 0 9 9 9 9 , e e e e e r t 0 ; & * * * * * * * * * * & * y y y = = y * * * * * * * * y ",
"3 0 0 r , , 9 9 9 , , e e e e e r 3 > : & * * * * * * * * * * & y y y = y = y * * * * 9 ; = y y ",
"3 0 0 5 , ; , 9 , , , 2 e e e r r 0 ; & * * * * * * * * * * y * * y = y = = y * * * * ; & # y y ",
"w 0 0 , ; ; > , , , , 2 e e e 4 3 > : & * * * * * * * * * y * y * y y = y = y * * * * = # # # y ",
"w 0 9 9 , > > > , , , 2 2 2 4 3 > ; & * * * * * * * * * y * y * y * = = = = y * * * * * = # # # ",
"1 9 9 9 9 , > > > , > 2 2 2 4 0 ; : & * * * * * * * * y * y * y * y * = = = y * * * * y y y # # ",
"1 9 9 9 , , , , , > > 2 2 e 3 > : & * * * * * * y * y * y * y * y y * = = = y * * * y y y y y y ",
"1 9 9 , , , , , > > > 2 2 e 0 ; & * * y * y * y * y * y * y * y = y = * = = y * * y y y y y y y ",
"1 9 , , , , , > > > > 2 e 3 > : & * y * y * y * y * y y y = y = y = = y y = y * y y y y y y y y ",
"1 , , e , ; > > > > > 2 e 0 ; & * y * y * y * y y y y y = y = = = = = = y = y y y y y 9 : # y y ",
"0 , , q , : : > > > > e 0 > : * y * y * y y y y = = = = = = = = = = = = = = y y y y y : & # # y ",
"0 , , : : : : ; > > ; ; : : : & & & & & * * * * * * * * * * y y y y y y y y y y y y y # # # # y ",
"0 , , > ; ; : : ; ; ; ; ; ; : : : : : : & & & & & & & * * * * * * * * * y y y y y y y y # # # # ",
"9 , > > > ; ; : ; ; ; ; ; : : : : : : & & & & & & & * * * * * * * * * y y y y y y y y y y y # # ",
"9 > > > > > > ; ; ; ; ; : : : : : : & & & & & & & * * * * * * * * * y y y y y y y y y y y y y y ",
"9 > > > > > ; ; ; ; ; : : : : : : & & & & & & & * * * * * * * * * y y y y y y y y y y y y y y y ",
", > > > > ; ; ; ; ; : : : : : : & & & & & & & * * * * * * * * * y y y y y y y y y y y y y y y y ",
", > > 3 , : ; ; ; : : 3 , & : & & & & w , * * * * * * 9 ; = y y y y y 9 : # y y y y y 9 : # y y ",
", > > 1 , * : ; : : : , , y & & & & & , ; y * * * * * ; & # y y y y y : & # # y y y y : & # # y ",
"> > ; : & * & : : : : & y y * & & & & * y y * * * * * = # # # y y y y # # # # # y y y # # # # # ",
"> ; ; ; : & * & : : : & * * * * & & & * * y y * * * * * = # # # y y y y # # # # y y y y # # # # ",
"; ; ; ; ; : & & : : : & & * * * & & * * * * y y * * * y y y # # y y y y y y # y y y y y y y # y ",
"                                                                                                "
};
