/* XPM */
static char *shoot716826819951682682566[] = {
/* columns rows colors chars-per-pixel */
"176 102 65 1 ",
"  c None",
". c black",
"X c #070707",
"o c #0B0B0B",
"O c #170F07",
"+ c #1F170B",
"@ c #131313",
"# c #1B1B1B",
"$ c #2F1B0B",
"% c #2B230F",
"& c #372313",
"* c #332B13",
"= c #3F2F17",
"- c #232323",
"; c #272727",
": c #2F2F2F",
"> c #373737",
", c gray23",
"< c #430000",
"1 c #4F0000",
"2 c #5B0000",
"3 c #670000",
"4 c #730000",
"5 c #43331B",
"6 c #4B371B",
"7 c #533F1F",
"8 c #5F4323",
"9 c #5B472B",
"0 c #6B4727",
"q c #774F2B",
"w c #7F532F",
"e c #434343",
"r c gray28",
"t c #4B4B4B",
"y c gray31",
"u c #5B5B5B",
"i c gray39",
"p c gray42",
"a c #6F6F6F",
"s c #777777",
"d c gray50",
"f c #875733",
"g c #8F5F37",
"h c #9B633B",
"j c #A36B3F",
"k c #AB6F43",
"l c #B37347",
"z c #BF7B4B",
"x c #CB7F4F",
"c c #CF8353",
"v c #D78B5B",
"b c #DF9363",
"n c #E79B6B",
"m c #EFA373",
"M c #F7AB7B",
"N c #838383",
"B c #8B8B8B",
"V c #939393",
"C c #979797",
"Z c #A7A7A7",
"A c gray75",
"S c #FFB383",
"D c #FFBB93",
"F c #CBCBCB",
"G c gray86",
/* pixels */
"                                                        hhhhjlxcccxxxzlkkk                                                                                                      ",
"                                                        hjjklzcvvvvccxzlll                                                                                                      ",
"                                                      hhjklzxcvbbbbbvcccxzlk                                                                                                    ",
"                                                      hjklzxvvbbnnnnbbbbvvxz                                                                                                    ",
"                                                    jjjklzxcvbbnnnmmnnmmmnbvcxxzlk                                                                                              ",
"                                                    jjklzzxcvbbnnnnnnmmMMMMmbvvvxz                                                                                              ",
"                                                  fghklzzzzxcvbbnnbbbbnmMMSSMmmnbvczlk                                                                                          ",
"                                                  ghklzzzzzxxcvbbbvvcvbbnmMMMmmmnbvcxz                                                                                          ",
"                                                fghkzxxxzzxxcccvvvvcxxcccvbbbbnnnnbbbvczlk                                                                                      ",
"                                                fgjlxcccxcvvcccccccxzzzzlzxccvvbbnnnnbvczz                                                                                      ",
"                                              hgfgjlxcccvbbbvxxxccxzzzzzllzxccvvbbnnnnbbvvcx                                                                                    ",
"                                              hgghlzxccvbnnbvxzzzzzlllllkklzxccvvbbnnnnnbbvc                                                                                    ",
"                                            hhggjlzxccvbnnnbvxlkkkkjkkkjggkzzxxcvvvbbbnnnbbvzkhg                                                                                ",
"                                            hhhjlzcvvvbnmmnbvxkjjhhhjjjhwwhklzzxccvvvbbbbbbbczlk                                                                                ",
"                                          jhghklzcvbbnnmmmnbvxljhhhhhhhgwwgjkllzzxxccvvvvvbnbbvvzkhggg                                                                          ",
"                                          hhhjzxcvbbnnmmmnbbvxljhghhgggfqqfhjkkllzzzxcvvccbbbbbbczljhh                                                                          ",
"                                        ffghkzxcvbbbnnnnnnbbvxkgfghgfwwq0qfghhjkkkklzxccxxcvvvvbbvczljhggggg                                                                    ",
"                                        gghkzxxcvvvbbnnnnnbbvxjfwfffwq0870wfgghhjhhjkzxxzzzxzxcvbbvcxzlkjhhg                                                                    ",
"                                      fghklzxxxxcccvvbbbnnnbvxjwq0qqwq86560wfggggggggjklkkkkklzxccccvvvczljhgg                                                                  ",
"                                      llzxcccxzzxxxccvvbbnnbbcjw0978qq07==8qwfffffwwwfhhhhhgghlzzzzxvvvvcxzkjh                                                                  ",
"                                ghjlxvbbbbbvxzzzxxxxcccvvbbbbckf07==70q06=70000000qqqqfgfwwqqfkllllzzzxccccxljf0                                                                ",
"                                hjkzxvnnnnbczzzzzzzzzzzxccvvvclhf85&=7q06=677777788800qwq0088qhkkkkkkllzcvvcxlhf                                                                ",
"                              ghkzzxcvbbbvxzlllllzzzzllzzzzzxxxlhw85&=886=555====5678000087770wghjjjjjlzzcvvcxzkf0                                                              ",
"                              ghlzccccvvczlkkkkkkkkllllkkkkllzxxlhw8&%6765=**%%%%*=677887655670qfgggghkklzxcccxlg0                                                              ",
"                              ghlxccxxxxzlkkkkkkkkkkllkkkkkkklxxzkg0=%5776=%+++++%%*=555=*%%*570qwwffghhhhkkklzlg088                                                            ",
"                              fhkzccxzzzlkjjkkkkjjjjkkjjjjjjjkzxxlg0=%=687=%+OOOO+%%***%%+O+%=67000qwfggfffghkzlgq08                                                            ",
"                              qfjzccxzllkjjjkkkkjjjjjjjjjjjjhjkzczg8&%=677=%+@@@O+%%%%%%OO+%**=67780qwffqqqwgjlkgw08                                                            ",
"                              qfjlccxzlkjjjjkkkkjjjjjjjkkkkkkkjklkw7&+*577=%@@@@O++%%%%+OO%%**==566780qq088qgjkjgw08                                                            ",
"                            0qwgjlccxzkjjjjjjkkkjjjjjjkkkllzxzkhfq7=%+%=66*%OXXXOO+++++OXO%*****====6677668qghjhgw08                                                            ",
"                            qqwgjlccxlkjjjjjjjkkjjjjjkklllzzcxlhq7=%#@%*55*+O..O++OOOOOOO+%**************=60ghhhfw08                                                            ",
"                      ghhjjgqqwgjlccxlkjjjjjjjkkjjjjjkkllllzzxxzhq7%+@%*55*+O..O%%+XXXXO+%*****&&&%$$$$$++&8fhhgfq08                                                            ",
"                      hjklkhwqwgjlccxlkjjjjjjjkkjjjjjjkkkkkllzcxlhq6*%%*==*+O..O%%O....O%===*%%$$$$++$$&%&=0fhhfq088                                                            ",
"                    ghklzzzkfqwgjlccxlkjkkjjjjkkjjjjjjjkkkkklzzxxzhq7=*%**%+O..XOOX....+=676%OOOOOOOO+&=678qggfq86                                                              ",
"                    ghlzxxzkfqwgjlccxlkkkkkjjkkkkkkkkkkkkkkllzzzcxkf05*%%%%+o........X+&6775$XoOOOOOO+%=680wffw86=                                                              ",
"                    ghlzzzzkfqwgjlccxzkkkkkkkkkkkkkkkkkllzzzxzllzzkg05%+%%+o.........+*677=%+O%%*****%+%=780wq0856qfffffffwq86                                                  ",
"                    fhkllzlkfqwgjlccxzkkkkkkkkkklllllllzzxxccxzllllh0=%@++o..........+*565%O%&67888800876680008768qgghjklzljw8                                                  ",
"                    qfjkkkkhwqwgjlxczlkkkkkklkkkllllllzzxxccvcxzllljq=%@Oo...........o+$$$O+=70qfffghhhg0888887770whkzxbmMmvkwwq86                                              ",
"                    qwhjjjhgwqwgjlxxzlkjkkkkkkkkklllllzzxcccvvcxzlljw7=+Oo................O%68qfghhjklljw08777670whlxvnmDDSmckhf08                                              ",
"                  0qwfhjhhggqqwgjlxxzlkjjjjjkkkkkkllllzzxccvvvvcxzzlgq7=%+o..............O+*68qfghhjklkhf075=568whlcbmMSDDSMnclhgq86                                            ",
"                  0qwghhhggfqqwgjlxxzlkjjjjjjjkkkkllllzzxcvvvvvvvvczkhq75%O..............O%=680wggghjjhfq06==68qhkxbmMMSDDSMmbxljg07                                            ",
"                  0qwghhhgfwqqwgjlxxzzkkjjjjjkklllkkllzzxcvvvvbbbbbvclhq7=+..............O%=6780wfffgf08766668qhlxvbmMMSSSSMmbczlhw876                                          ",
"                  0qwghhgfwq0qwgjlxxzzlkkjjjjkklllkkllzzxxcvvvbnnnnbvzjf06%OOOOX.........O%=666700qq00656700qfhlxvbnmmMMSMMmnbvxzjf076                                          ",
"                gfqqwghhgfwq0qwgjlxxzzlkkkjjjkklllkklllzzxxccvvbbbnbvxkgq85&%+++o........O%*===5666666670wfhjlzcbbnnmmMMMMmmnbvxzkgq86                                          ",
"                fw00wghhgfqq0qwgjlxxzzkkkkjjjjkllllkllllzzzxxxcvvbbvvzkgw086===*&$+OOo...O+%%%%%*==5678qfhjlxvvbnnnnmmMMMmmnnbczlkgw86                                          ",
"              gfq880wghjhgq00qwgjlxxzlkjjjjjjjjklzlllllllllzzzzxccxzzlkhgwq0877776*%%%O..XOOOOO%56670qwfhkzvbnnnnnmmmmMMmmnnvczlljhf07&O                                        ",
"              fq8770wghjhgq00qwgjlxxzlkjjjjjjjjkllllllllllllllzzxxzzzzllkjhgfffwq08665&&&&&&&&&=788qfgghkzcbnnmnnbnnnnmmnnnbcxlkkjhfq8&O                                        ",
"            jgq87770fhjjjgq80qwgjlxxzlkjjjjjjjjjkklllllllllllllzzzxxxxcccczzzllkhgwq0088888888880qqfhjjklzcvbnnbvvvvvvbbbbvcxzlkhhhgw8=O                                        ",
"            khq7678qghjjjgq80qwgjlxxzkkjjjjjjjjjjjkkkkkkkkkkkklllzxxcccvvvccccxzlkjhgfwqqqqqqqwwwfghjkllzzcvvvvvcxxxxxcccccxzlkjhghgw0=O                                        ",
"          jkljq7678qgjkkjgq80qwgjlxxzkkjjjjjjjjjjjjkkkkkkkkjjjklllzxxccvvvcccccxxzzzkjhggggggghhhhhjkllzlzzxzzzzzzzzzzzzzxzzzkjhgghgw0=O                                        ",
"          klzkw7670wgjkkjgq80qwgjlxxlkjjjjjjjjjjjjjjjjjjjjjhhjkkkklzxxxcccxxxxxxxxzzljhggggghhjkkkkllzzzzzzzllkkkkkkkkllzzzzlkhggghgw8=O                                        ",
"        jklzzkw778qfhjkkhf080qwgjlxxljjjjjjjjjjjjjjjjjhhhhhhhjkkkkklzzzzxzzzzzzllkkjhggffwwfghjklzzzxxxxxzzzlkkjjjjjjjkllllllkhggghgw8&O                                        ",
"        kkllljq778qfhkkkhf080qwgjlzzkjjjjjjjjjjjjjjjjjhhhhhhhhjkjjklzzzzzzlllllkkjhhgffwqqqfgjklzzxcccccxxzzlkjjhhhhhjklllllkjgffghgq7&O                                        ",
"        llkkjhq778wghkkkhw080qwgjlzzkjjjjjjjjjjjjjjjjjhhhhhhhhjjjjklzzzzzzlllllkkjhhffwqqqqfhjklzzxcvvvvcxzzlkjjhhgghhjkllkkjhfqqwgg06%O                                        ",
"        zzkjhf0778wghkkkgw080qwgjlzlkjjjjjjjjjjjjkkjjjhhhhhhhhhjjjkklzzzzllllllkjjhgfwqqqwfghjklzxccvvbbcxzzlkjjhhgghhjkkkkjhgq00qff8=+O                                        ",
"        zzkjhf0778wghkkjgq080qwgjlzlkjjjjjjjjjjjkkkkjhjjjjjhhhhhhhjkklllllllllkjjjhgwqqqqwghjklzccvvvbbbvxzzlkjjhggghhjkkkhggfq080fw8*OX                                        ",
"        llkjhf0778wghkkjfq080qwgjlzlkjjjjjjjjjjjkkkkjhjjjjjjhhhhhjjkkkkkkkkkkkjjjhgfwqqqwfhjklzcbbbbnnnbvczzlkjhgggghhjjkjgwwq0878qq7%O-                                        ",
"        kkjhgf0778wghkkjfq0880wgjlzlkjjjjjjjjjjjjkkjjjhhhhhhhhhjjjkkkkkkkkkkkjjjjhgfwqqwfghklzvnmmmmmmnbvcxzlkkhgggghhjjhgwq087557006%+,isap                                    ",
"        jjhggf0778wghkkjfq0880wgjlzlkjjjjjjjjkkkkkkkkjhhhhhhhhhjjjjjjjjkkkjjjjjjjhhgfffghjklzvnmMSSMMmnbvcxzllkjhggghhhhfq0087=%*588=%#epsss                                    ",
"        jhgggf0778wghkkjfq0880wgjlzlkjhhjjjjkllllllkkkjhggggghhhhhhhhhhjjjhhhhhhhhhhghhklzxcvbmMSDDSMmnbvvxzllkjhggggggfq00886*%%=76&O#rpsddssss                                ",
"        hhgfgf0778wgjkkjfq0880wgjlllkjhhhjjjkllzzzzzlkjhhgggggghhhhhhhhhhhhhhhhhhhhhhjkzxcvbbmMSDDDSMmnnbvcxzlkjhgggggfw008876%+%=65$o#,upasssdd                                ",
"        ggffgf0778wgjkkhfq0880qfjkllkjhhhhhhjjlzzzxzllkjhhhhgggffffffggggghhhhhhhjjjjkzxcvbnmMSDDDSSMmnnbvcxzlkjhggggfwq088765%+%=6=+.o->etuadNNsi                              ",
"        ffffgf0778wgkkjgw08888qfhklkjhhhhhhhhjklzzxzllkjhhhhggffffffffgghhhhhhhjjklllzxcvbnnmMSDDSSMmmnnbbvxlkjhgggggfq008766=%+%=5=+..O<<%,usNNsp                              ",
"        ffffgf0778wgkkhfq888880fhklkjhhhgggghhjkllzlllkjhhhhgggffffffghhjjjjjjjkklzzzxcvbnnnmMSSSSMmmnnnnbvxlkjhggggfwq08876=*++%=5=+..<22<-,uassaiu                            ",
"        ffwfgf0778wgkkhf0888780whjkkjhhhggggghhjklllllkkjhhhggggfffgghhjklllllllllzxxcvbnnnnmMMMMMmnnnnnnbvxlkjhggggfq008765*%++%=5=+..<341<#>yiaaiu                            ",
"        fwqwff0778wgkkhf0888770wgjkkjhggggffghhjjkllllkkjjjhggggggghhhjklzzzzzzllllzxcbnnnnnmMMmmnnbbbbbbbvclkjhggggfq00875=*%++%=5=+..<2332<->yipiur,                          ",
"        fwqqfw0778wgjkhf0887678qgjkkjhgggfwfghhjjklllkkjjhhhgggghhjjjkklzzzzzzzzlllzxvbnnnnnmmmnnbbbbbbbbbvczkjhggggfq0086=**%+%*=5=+O<<2333<+#,uiiye,                          ",
"        gfqqww0778wgjjgw0877678qgjkkjhggffwwghhjklllkkkjhhgggghhjkllllzzzzzzzlllllzcvbnnnnnnmmnbbbbbbbbbbbbvxlkhggggfq0086=*%#%*=5=*O<1212332<+:yiuye>>,                        ",
"        fwqqwq8778wghhgw0876668qgjkkjhggfwqwghhjkkkkkjjhhhhhhhhjkllzzzzzzzzllllllzxcvbnnnnnnnnbbbbbbbbbbbbbvxzkjhgggfq0076=%##%*==*%O<12222221<;tuiu,:>,                        ",
"        000qwq8778wghhfq0876567qghjjhhggfwqwggghhjjjjhhhjjjjjjjkklllllllllllllzzzzxvvbnnnnbbbbbbbbbbbbbbbbbvxzlkhhggfq0876*%++%****%O<13442222<;euiue;:>,,                      ",
"        8800qq8778wghhfq0865=67qghhhhhgfwqqwfggghhhhhhhjkkkkkkkkllllllllllllllzzzxcvbbbbbbbbbbbbbbbbbbbbbbbvxzlkhhgfwq087=*%O+%%*%%+O<<2443221<-,ypie;;:>>                      ",
"        8800qq8768qghhfq076==670fhhhhgffwqqwffffgghhhjjkkllllkkllzzzzzzzzzzzzzzzxccvbbbbvvvvvvvvvvvvvvvvvvvvxlkhhgfwwq085*%+OO+%%%+O<<<123442<O-,ypir;;;::                      ",
"        8800q08768qghhw0876==670fghhgffwqqqwfffgghhjjkkkllllllllzzzzzzzzzzzzzzzxxcvvvbvvvvvvvvvvvvvvvvvvvvvczljhgffwqq97=*%+Oo+%$$O<<111124431<#,yiit:;;;:                      ",
"        7780008667qghgw0876==670fggggfwqqqwffffgjjkkkkkkllllzzzzzzzzzzzzzzzzzzxxccccvvvvvvvvvvvvvvvvvvvvvvvczkjhgfwwq086=%%+O.o+$<<<<233212343<#>yiiye:;;;::                    ",
"        6780087657qfggq0876==680fgggfwqqqwffgghjkkkkkkkkkllllllllllzzzzzzzzzzzzzxxxxcccccccvvvvvvvvvvvvccccxljhggffwq076*%%%+OO<<<<<<234321233&;,yippur:;;;:                    ",
"        6780075*=7qfgfq0875=*58qwfggfwqqwffghjkklkkjjjjkkkkkkkkkjkkllllllllllllllllllzzzxxxxccvvvvvvccxxxxzlkhgfggfq0865*%%$$<<<<<<<<1234311225,tuisNsue:;;:>,                  ",
"        678087=%*7qfffq8765=*58qwffffwwwggghkkkkkkkjjjjkkkkkkkkjjjkkkjjjjjjjjjjjjjjjjjkklllzzxccccccxzzlllkjhgffggw0865=*%%&<<11<<<<11123321<&>ruiaNCVsue:;:>>                  ",
"        678886*%*60wfw08765=*580qwfffffghjjjkkkjjjkkkkkkllllkkkkkklkjhhhhhhhhhhhhhhhhhhhhhhjklzzzzzzlkjjjjhhgfwwffq975**%%*&<1221<1122112222&:,yiaNCZZVsue::::                  ",
"        567876&+%60wfw0865===680qqwfggghjkjjkkkjjkllllllllllzzzzzzzzlkjjjjhhhhhhhjjjhhggffffghjjjjjhgggggggffwqqww076=%%%%%$<12211112211112&&>tuidCAAAZBpt,:::                  ",
"        *=6775%+%60wfw076===678000qwfghjkkjhjjkkkllzzzzzzzzzxxxcvbvcxzzlkkkjjjjkllzzljhfwq000qqqqwwwqqwwwwwqqq0qqq876=%%**++<112221112221<&&:euipBAFGFAZdur>::::                ",
"        %*666=%+%6qwfw075==678000qqfghhjkkjjjjkllllllkkkkkklzzzcbbbvvcxxzzllkkjklzzzlkhgw08777778888800qqqq000000076=*+%**+O<<<1221<1122<&:>,yipaVAGGGFACsu,>:::                ",
"        +%565=%+%6qwwq075=6700qqqqfgghhjklkkkkkkkkhhgffwwffghjkzcvvvvvvccczllkjhhjlllkjhfq0866677777780000088888775=%%+%**+.O<<<11<<<<1<$;>ryuupdVZAGGGFACar,>::>,              ",
"        O%=5=*++*7qwwq075=78qqqqwfghhhhjkllkkkjjhhfqq0877800qfgjlzzzxcccccxzzljhghhjjjhhfw08656666666788888777766=*%+++%**+..O<<<<<<<<<$;>ryyyyisNCZAGGGFZNur,>>>>              ",
"        O$==*%+%=7qwq0875680qqwwfgghhhhjklkjhhgffwq00876677800qfhhhjklzzxxxxxzkjhgffgggfqq086===5555556666666665=*%+OO+%=*+...O<<<<<<<$;>ryyteeruaNCZAGGFACsue,>>>>,            ",
"        O+**%++%58qq00876780qqwfgghhhjjklzllkjjjjjjhhhhhhhggggffggfgghjklzzxcxzlkjgwwwqq00086=%%******===55555=**%+OoO%**%O....O<<<<<$-:,rtt,:::,yaNCZAFFAZBpye,>>>>            ",
"        O+%%%+O&60qq08888800qqwfggghjklzzxccxcccvvvvvvbbbbccczlkjhhgggghjklzxcxxzzkgw00888875=%%%++%%%%***===*%%++OoO+**%OX....XOO++%;:>>>>:;-#-;,yaNCZAFFAZdut,,>>:            ",
"        O++%+++&70qq0888800qwwfgghhjlzzxccvvvvvbbbnnbnnmmnbvvvcxzlkjhgggghjlzxxxcxljgq0776665*%%+OOO+++%%%%%%%++OoXO+%**+...XXXXo@#-;;:::-#OO++++;,uaNCZAFAZVaure,::            ",
"        OO++++%=8000880000qffgghjklzzxxccccccccvvvvvvvvbbvvvvvvvvcxzlkhgffghkllzxxzkkhq8655==*%%+OOOOO+++++%%++OoXO+%%*%O..Xo@@@@#;;:;--#+OOOOOO++;,ypdVZAAACNpyr,>:::          ",
"        OOOOO+%58000000qqqwfgghhkllzzxxxzzzzzzxxxxxxxxxxxxxxxccvvvcxzlkhgffghjjlzzllkjf076==*%%++OOOOOOO++++++OOOO+%%**%@oXo@@@@@#-;;-@OOOOOOOOOOO+;,yisVZZZZBsiyr,:::          ",
"        OOOOO+%580000qwwwwffgghhjklllllkkkkkjkllllllllllllllllzzzzzzzzlljhhgggghjkkkjhgw075*%%%+OOOOOOO+++OOOooO+%**=*%##@@@@@@ooo@@@@XXOOOOOOOOOOO+;,yisBCZCVdaiyr,::::        ",
"        OO+++%=68000qqwfffffggghhhhhhhhhggggfghjjjjjjjjjjjjjjjjkkllzzzzzlkjhggffghjjhhhfq06*%%++OOOOOO++++++OO++%*===*#@@@@@@@oX........oOOOOOOOooOO+;,yisNVVVBdauye>:::        ",
"        O+%%%=678000qqwwfffgfffwwwqqqqqwqqqqwwfffffggghhhhhhhhhjjklllzzzzlkjjhgffggghhhgf07=%+++OOOOXO+%%%%%%%&*====%+OoooooooX..........XOOOOOOoooOO+;,yupdVCVBdpur,>::        ",
"        &*===67888000qqqwwffwwqq00000qwwwwwwfffffffggghhhhhhhhhjkklllzzzzzllkjgfffffghhgfq86=%++OOOoXO%****%**=5===%+OX...XooXX..........XoOOOOOooooOO+;,rupNVVVBdiyr,>:        ",
"      *=6766677888880000000000qqqqqwfghhhhhhhjjjjjjjjjjjjjjjjjjkklllzzzzzzzlljhgffwffghgfq086=%+OOXXO+*=======665=%+OOOX..XoXXXX..........oOOOOOoooooO+%;>eupdVCVBsiye,>::      ",
"      =677767777777778888000qwfffghjkkllllllllllllllllllllllllllzzlzzzzzzzzzlkjhgffwffggfw0875%+OOXO+%*=55555565=%+OOOOOXXXXXXooX........XooOOOOooooooO+%*:eypNVVVNsiye,>:      ",
"    *=6765=56666665567880qwfghjjjkzzzzxxxxxxxxxxxxxxxxxxxxxxxxxxxxzzzzzzzzzzzlkjhgffwffffwq076*+OoOO+%=5666766=%%+OOOOOOOoXXXooooXXX....XooooOOOooooooO++%*:eupdVVVNsur,>>::    ",
"    *5776=**==555556780qwfghjjkkklzxxxxxxxcccccccccccccccccxxxxxxzzzzzzzzzzzzllkjhgfwwwfww0086=%OoO+%*=566666=%OOOOOOOOOOOXXooooooooX..XooooooOOooooooOO++%*:eypNVVVNaue,>::    ",
"    *5776=*%%%%**5680qqfghhjjjjjjjklllzzzxxxxxxxxxxcccccccxzzzzllllllllllllllllkkjgfwwwqqq0086=%OoO+%=66=%%%%%+OOOOOOOOOOOoooooooooooXXoooooooooooooooOOO+%%*:eupdVVVNpt,:::-#  ",
"    *=66=*%++O+%*680qwfghhhhhhhhhhjjkkkllzzzzzzzzxxxcccccxxzzzlkkjjjjkkkkkklllllkjgfwq00080886=%Oo++%*5=%OOOOOOOOOOOOOOOOOooooooooooooooooooooooooooooOOO++%%*:eypdVVBsir>::;-  ",
"  76=*=*%+++++%%=70qwfffggggghhhhjjjjjjkkkkkklllzzxxxxxxxxxxzzlkjhhhhhjjhjkkkkkkkjhfq887778876=%OO%%++%%+OOOOOOOOOOOOOOOOOooooooooooooooooooooooXXooooOOOO++%%*:eyisBVBsue>:;;-#",
"  65*%%++O++%%%*570qwfffggfffgghhhhhhhhhhhhhhjjkkkzzzzzzzzzzzzlkjhhhhhggghjjjjjjjjhg0765567776*%O+%%+XoOOOOOOOOOOOOOOOOOOOoooooooooooooooooooooX..XoooOOOOO++%%*:,ypNBBNaur>:;-#",
"%***%++OO++%**==670qqqwwfgfffffgggggggggggggggggghjkkkkllllzxxxzkjhggfffwfghhhhhhhhg06=**=666=*%O+%%O...XXXXXXXXXXXXXXOOOOXXXXXooooooooooooooooX...XooOOOOOO++%%*:,uadBBNsue>;-#",
"%%%%+OOOO+%*====670qqqqwfgffffffffffffffffffffffffhhjjjjkklzxcxzljhgffwwqwfghhhhhhhg06*%%*565=*%O+%%O................XOOOOX.XXXXoooooooooooooooX....XoOOOOOOO+%%&=>tisNBBdir>;-#"
};
