/* XPM */
static char *shoot71682593578[] = {
/* columns rows colors chars-per-pixel */
"88 51 68 1 ",
"  c None",
". c black",
"X c #070707",
"o c #0B0B0B",
"O c #170F07",
"+ c #1F170B",
"@ c #131313",
"# c #1B1B1B",
"$ c #2F1B0B",
"% c #2B230F",
"& c #372313",
"* c #332B13",
"= c #3F2F17",
"- c #232323",
"; c #272727",
": c #2F2F2F",
"> c #373737",
", c gray23",
"< c #430000",
"1 c #4F0000",
"2 c #5B0000",
"3 c #670000",
"4 c #730000",
"5 c #7F0000",
"6 c #43331B",
"7 c #4B371B",
"8 c #533F1F",
"9 c #5F4323",
"0 c #5B472B",
"q c #6B4727",
"w c #774F2B",
"e c #7F532F",
"r c #434343",
"t c gray28",
"y c #4B4B4B",
"u c gray31",
"i c #5B5B5B",
"p c gray39",
"a c gray42",
"s c #6F6F6F",
"d c #777777",
"f c gray50",
"g c #8B0000",
"h c #875733",
"j c #8F5F37",
"k c #9B633B",
"l c #A36B3F",
"z c #AB6F43",
"x c #B37347",
"c c #BF7B4B",
"v c #CB7F4F",
"b c #CF8353",
"n c #D78B5B",
"m c #DF9363",
"M c #E79B6B",
"N c #EFA373",
"B c #F7AB7B",
"V c #838383",
"C c #8B8B8B",
"Z c #939393",
"A c #979797",
"S c #A7A7A7",
"D c gray75",
"F c #FFB383",
"G c #FFBB93",
"H c #FFBF9B",
"J c #CBCBCB",
"K c gray86",
/* pixels */
"                            kkzbbvvzz                                                   ",
"                           kzcnmMMnnvz                                                  ",
"                          llcbmMMNNBBMvvz                                               ",
"                         hlcccbmMnnMBHBBMvz                                             ",
"                        hlbbcbbbnbccxbnmMMMvz                                           ",
"                       khxbbmMbcbcccxcbnmMMMmv                                          ",
"                      khxbbmNMbklkllqxcvnnmMMmxj                                        ",
"                     lhcbmMNNmbxjkkkwjxxcvbnbMMMxjj                                     ",
"                    hhcbmmMMMmnhhkwq9jjlllcncbbnMnxjjj                                  ",
"                   hzbbcvvnmMMnh00h7%qjjjhhlllkccvmmvlj                                 ",
"                jzbNNmccvvvvnmmk9.7h%9999qqhwq9xxxxcnnxq                                ",
"               jcbbmbxzzxxxxxxcbk9.9==***79q978wkkkxcnnvq                               ",
"               jcnccxlzzllxllllbce@79%OOO%**%.*8wwhkhkkvw9                              ",
"               qzncxllzzllllllklnq@=9%@@O%%%.%*=78whq9kxh9                              ",
"              qhzncllllzlllxxcnk**@%7%..OOOO.******==9kkh9                              ",
"           jllqhzncllllzlllxxxcnk*@%7%..=...%**&&$$$.$kkw9                              ",
"          jcbcqhznclzllzllllllxcnj7%*%......89.....=9wkw*                               ",
"          jcccqhznczzzzzxxxxcvbzcz7@%......79oO*===.=9w9*hhhhe7                         ",
"          qlllqhzbclzzxzxxxcvbnvzx7@..........8ekkxx99979jcmHFje7                       ",
"         qhljjqhzbcllllzzxxcbnnnbcj7%........*8ekkxle**8jvBFHFMxj7                      ",
"         qhljeqhzbczlllxxzxcvnnMMMbj7........*88eee**88jvmNBFBMbxq7                     ",
"        jqhlhwqhzbczzllxxzxxcvbnmMnkq=%%.....******8hkcnMMNBBNMbxh7                     ",
"       j88hlkqqhzbclllllcxxxxxxcbxxljw999**.....88hhznNNMNNBNMbxzjqO                    ",
"      l879kll9qhzbxllllllxxxxxxxcbbnmbbclhwqqqqqwhzzcnmmbbbnnbczjkwO                    ",
"     lc87qkxk9qhzbxlllllllllllkxzcvbnbbbbbxkkkklllzcxcxxxxxxccxjjkwO                    ",
"    lcc88elxj9qhzblllllllllkkkkzlzcccxxxlkhhwwkzcvbvvczlkkkxxxxjjkqO                    ",
"    clk88hlxh9qhzclllllllllkkkkllzcccxxxlkhwwelzcbnmvczlkjklxzkqqk7O                    ",
"    czj88hlxw9qhzcllllllxxklllkkklzzzxxlljwwwllcnnmMbczljjklxhhq9h*.                    ",
"    lkj88hlxw99hzclllllllllkkkklzzzzxlllljwejlcMBBBMncxljjklhq9**q*Oda                  ",
"    lhj88hlxw99hzclkllxccxxkjjjkkkkkkkkkkkkzvnmBGGBMnvxzjjjhq98O*8.;dVdd                ",
"    hhj88hxlw99wzxlkkkkxcbxzkkjhhhhjjkkklzzvnMBGGFNMmbxljjjw987O*7...;dZp               ",
"    hhj88hxj998wlxkkjjklxxxzkkjjhhjkzzzzxvvnMMBFFNMMMbzljjeq97*O*7..5.;adi              ",
"    hqj88hxj997qkxkjjejklxxzlljjjkkzccccxxvMMMBNMmmmmnzljjeq8**O*7..34.;ai,             ",
"    jqh88hlh9879kxkjhwklxxzljjjkzcccccxxxbmMMMNmmmmmmmcljjeq8*#%7*.3<32.ii:,            ",
"    9qe88hle97=9kkkjewjjkkkkzzzzxxxzzzxccbmMMmmmmmmmmmcxkjeq7%O%*%.1g<3.ts-:,           ",
"    9qw87hlw9==9jkjhwwhhjklzxxxzccccccccbnmnnnnnnnnnnnckjew0*%.%%.<<1g<.ts:-:           ",
"    7qq8=hkq9==9jjhwwhhjzxxzxxcccccccccvbbnnnnnnnnnnnnzkhew8%%..<<15<15.,ay:-:          ",
"    7q9%=hjq8=*qhjewhjzxxlklzzllkzzzzzzzzzzxccbnnnbccxkeke86%%<<<<<15<1>iaAy:-,         ",
"    798+*wh97=*qwhjhzlxlkxxxxxxxxxkkkkkkjjjjjjzxxxkkkjhwh06%%*13<13<13-taADCy::         ",
"    %87+*eh9=*8qqwjlxkkxxcccccbbMmbcxzzzcbxjq88899qwwwqqw86O=.<13<13<->aaKKDa,::        ",
"    O7=O*ee9*8wwwjkkxxxzzhw99whlbbnnncxjjzzlhq=8888q99887*++=..<<<<<@tiiCSKKDu,:,       ",
"    O=%O7eq9=qwejkkkxljewq97779qhhkxcbbzkqheqq=%====777=*+.%=...<<<@ti,:tCSKJCy,:,      ",
"    O%+O9e999qwhjjzcbnnmMNMBBmmclkhhkxbbbzq888=%OO+%%**+O.+=.....@-,:O++%tCSKDar,:      ",
"    O+O*qq9qqhjkzcbbbbbbbbbbbbbmmbckeelxbxxq==*%OOOO++++.+%*..@@#::OOOOOO%tdSDAir::     ",
"    OOO*qqwhehjkzzllkkjzzzzzzzzzzccczkhhkzkjq*%+OOO++Oo.%==##@@o....OOOOoO%tdAAfir::    ",
"    O**99qwehjhwq99qqqwwwehjkkkkzxxcczzhhhkke7++OO.%%%%===O..oo......OOOooO%tpAAfy,:    ",
"   *98889999999wwhkzzzzzzzzzzzzzxxcccczkhehkeq7+O.+====8=OOO.o.o.....oOOooo+%,pAAsy,:   ",
"  *9=*777*79wjlxxbbbbbbbbbbbbbbbbcccccczkhehhq8%XO%=888OOOOOO.oooo..oooOoooO+%,pAAs,,:  ",
"  *9=%O+*9whlllkklzxcvvvvvbbbcczzzzxzxxxzhewqq8*XO*8OOOOOOOOOooooooooooooooOO%%,pAAi::# ",
" 8*%OO+%7whhjhjklllllllxxvvvvvczkkkkkzzzzk87798%X*XOOOOOOOOOOooooooooooo.ooOOO%%,iACu::#",
"%%OOO%==7wwwjhhhhhhhhhhhhkllzxbvzjhewjkkkk8%%7=%X*.........OO.XXoooooooo..oOOOO%&,sCCy:#"
};
