/* XPM */
static char *shoot81682593578[] = {
/* columns rows colors chars-per-pixel */
"81 80 66 1 ",
"  c None",
". c black",
"X c #070707",
"o c #0B0B0B",
"O c #170F07",
"+ c #0B1707",
"@ c #1F170B",
"# c #131313",
"$ c #1B1B1B",
"% c #2F1B0B",
"& c #2B230F",
"* c #372313",
"= c #332B13",
"- c #3F2F17",
"; c #3F2B1B",
": c #232323",
"> c #272727",
", c #2F2F2F",
"< c #373737",
"1 c gray23",
"2 c #43331B",
"3 c #4B371B",
"4 c #533F1F",
"5 c #4F3B23",
"6 c #533F2F",
"7 c #5F4323",
"8 c #6B4727",
"9 c #774F2B",
"0 c #7F532F",
"q c #434343",
"w c gray28",
"e c #4B4B4B",
"r c gray31",
"t c gray34",
"y c #5B5B5B",
"u c gray39",
"i c gray42",
"p c #6F6F6F",
"a c #777777",
"s c gray50",
"d c #875733",
"f c #8F5F37",
"g c #9B633B",
"h c #A36B3F",
"j c #AB6F43",
"k c #B37347",
"l c #BF7B4B",
"z c #CB7F4F",
"x c #CF8353",
"c c #D78B5B",
"v c #DF9363",
"b c #E79B6B",
"n c #EFA373",
"m c #838383",
"M c #8B8B8B",
"N c #939393",
"B c #9F9F9F",
"V c #A7A7A7",
"C c gray67",
"Z c gray75",
"A c gray78",
"S c #CBCBCB",
"D c LightGray",
"F c gray85",
"G c gray86",
"H c #EFEFEF",
/* pixels */
"                                                                  wwwwww         ",
"                                                                <1<1qqqw,        ",
"                                                       ,,11,>  >,,,,<1wrw:       ",
"                                                      ,,<<<,>$><>>>>,<wrq:       ",
"                                                     :,,,,,>:$<,::::>,1w1:.      ",
"                                                     q<,,,>$$,,:$@@:>>1q1#.      ",
"                                                    ,,>>>>>$$<>:$$@@>>11>#.      ",
"                                                   :,:::::$$,,:O$@@@:>1,..       ",
"                                                   ::::#$O$$,>OO$@@@>,<,..       ",
"                                                  <,.$$$O$$,,@O@@@@@>,<:.&       ",
"                                                 .:.@@@$O$,,:OO@@@@:><>..        ",
"                                                 <>.@@@OO$,>@OO@@@@:><:..        ",
"                                                $>.@@@$O$,,:OO$@@@@>,<..&        ",
"                                               .$..@@@OO$,>@OO@@@@:,,>..         ",
"                                               >>.@@@OOO,,$OO@@@@@>,,:..         ",
"                                              >:.@@@@OOO,:OOO@@@@:,,>..&         ",
"                                             +:..@@@O@O,,$OO@@@@@:,,>.#          ",
"                                            O:$.@@#@OO>,$OOO@@@@:>,,:..          ",
"                                            >>..@@#OO$>>@OO@@@@@:,,,..&          ",
"                                           .@..@@@$OO>,$OOO@@@@:>,,:..           ",
"                                          .@..@@@$OO>,>O@O@@@@@:,,,...           ",
"                                         .@@..@@$@O$>,@OOO@@@@:>,,:.#&           ",
"                                         OO..@@@$O.>,>O@O@@@@@:,,,:..            ",
"                                        .$...@@@O@:>,@OO@@@@@:>,,,...            ",
"                                       .$$..@@@$O.>,>OOOO@@@@:,,,:..&            ",
"                                       .+..$@@$O.$>,@OO@@@@@$>,,,$..             ",
"                                      .+...@@$@O$:,$OOO@@@@@:,,,:...             ",
"                                     ..$..@O@@O.>,>OOOO@@@@$>,,,>..&             ",
"                                    ..+...@O@@O$>,$OOO@@@@@:,,,,$..              ",
"                                    O....OO@OOO>,>OOO@@@@@$>,,,:#..              ",
"                                   ..O..O@@OOO@>,OO.OO@@@@:,,,,:..&-             ",
"                                  .@O...OOOOOO>,>OOO@@@@@$>,,,>$..-47            ",
"                                  ......OOOOO$,>.OOOO@@@@>,,,,:#.&-87            ",
"                                 ..@...+OOOOO>,OOOO@@@@@$>,,,,$..-407            ",
"                                .......OO.OOO,>OOOO@@@@@:,,,,,#..-8073           ",
"                               ..O...O+OO.OO>,OOOOOO@@@$>,,,,:...8f073           ",
"                               .O....OOO.OO$,:OOOO@@@@@:,,,,,$..-8f073           ",
"                              .OO...OOOO.OO,>OOOOO@@&@$>,,,,:#..-ggd73-          ",
"                             ..+....OOO#OO$,$OOOO@@@@@:,,<,,$..-8gd83--          ",
"                             OO..O.OOO#.OO,:OOOOO@@@@$>,,<,,#..-fkd7-&&          ",
"                            O.+...OOOOOO.$,$OOOO@@@@@:,,<<,:...8fg8===-          ",
"                           .+......OO$OOO,$OOOOO@&@@$>,,<<,$..-ff8-334k          ",
"                          .OO..O...OO.OO::.OOOO@@@@@:,,<<<:#..7ff&373fzb         ",
"                          OOO....OOOOO.O,:OOOOO@@@@$>,,<<,$..-dgd.&3-7kcb        ",
"                         @@@.....OOOOOO::OOOOO@@@@@:,,<<<,#..3dg7.&&&3dknx       ",
"                        .@...O.OOOOOO.O,XOOOOO@@@O$>,,<<,:...7d47=3d7&4fxnv      ",
"                        +.O....OOOO.OO,:OOOOO@@@@@>,,,<<,$..-88=8=djh7&4fcnv     ",
"                       .+.....OOOOOO.::OOOOOO@@@@$>,,<<<>#..488.=@0jhh7;8gxnx    ",
"                      .&+.....OOOO.OO,$OOOOO@@@@@>,,,<<,$..-883...2fjl9379fkhf   ",
"                      .&......OOOOO.::XOOOOO@@@@$>,,1<<,#..-83-3338-fgxf338fxj7  ",
"                     .&.....+OOO.OO:,$OOOOO@@@@@>,,,1<,:..&84-43=09.&0hxf330j08  ",
"                    =.......+OOOOO$,$OOOOOO@@@@$>,<11<,#..-83=3--8f9..0hxj3----  ",
"                   -.......OOO$+OO,:#OOXOO@@@@$>,<1q1,:..&48=@3=-8ff;.&dlxk7--.  ",
"                   O.O.....+O$O.O$,$OOOO@O@@@@>,,1qq1,:..-88=.=&@2dd9.&4djng-..  ",
"                  .&......++O$OO$,:#OOOOO@@@@$>,<qqq<,#..4d8=...@-8d87.*8hbz4.   ",
"                 .&O......OO##OO:,$OOOOOO@@@@>,1qrq1,:..&8d8=@...&-888&.;0vnd4   ",
"                .&@O.....OOO#OO$,:OOOOOO@@@@$>,1wrq<,...-dd8=&@.2-&4887.@4hzz4   ",
"                &@O.....+OOOOOO,:@OOOOOO@@@@><1qtrq<:...4d93&=+20d-38882.29jzh4  ",
"               .=@.......O##OO$,&OOOOOO%@@@:><qrtrq,:..&8d83&=+2fh7=7790&;4dfh4  ",
"              .=@O.....OO#OOO#,:@OOOOOO@@@@><1rutrq>...-dd83&&+20hd--8dh0&;588&  ",
"              =@O......OO#OOO:,&OOOOOO+@@@><1wyutq,:...3dd4&&&+38fh8&8dkx7.&2;.  ",
"             =&@......OOOOOO$,:@OOOOO.@@O:><wypurq:...&4d9=&&&+-580d349kxv6..@.  ",
"            .&@O.....OOOOOOO,&&OOO@@O@@O@><qyipuq<:...48d4=&&&&=279h0=7hxvv;.X.  ",
"           .&@O....O.OOOOOO$,&@OOOO@O@@@:><riapuq::...4dd4=.=&&-2589d459hlvj...  ",
"           &@.......OOOOOOO,:&OOOO&@O@@@><quaspyq:...&8dd-=.=&O&-348hd&49fjxj..  ",
"          .&@.......OOOOOO:,&@OOO@&@O@@:><rpmspr,:...4dd9-=..=&&-228fj8=49fxx0.  ",
"         .&@.......OOOOOOO,:&OOOO&@@@@@><qiNNsyq>...&4dd8-&..=&O&328dkj8-79gjj8  ",
"        .&&@......OOOOOOO:,&@OOO@&@@@@><qrsBNar<$...49dd8-&+..=+O+&27fhk8&7dgj4  ",
"        &&@.....O.OOOOOO$,:&@OOO&&@@@:><wpBCNiq<@.#.4dd98-&+..=&OO@&2dhxl8489844 ",
"       .&@....O..OOOOOOO,>&@OOO@&@@@@><qtsCZNu<:..#&9dd88-&+...=+OO@;8fkxl8243;& ",
"      .&&@......OOOOOOO:,=&@OO@&&@@@:><eaNZZsr<@.#.49d988--&+..=&OO+=79dkzx8==&O ",
"      &&@.......OOOOOOO,=&@OOO@&@@@@><qyMCDVpq:.X$$477988-3&+...=&==3279fkkh8*@O ",
"     &&&@...O..OOO@@OO:-=@OOO@&&@@@:<qtsVDSVr<@.##:&&337844&&+...=++&=379dfjz8.O ",
"    @&&@.....+.OOO@@O&,-&@OO@&=&@@:><quMAHSsq,X.$.@@&&&3384-&+...=O+@&;3780hnj8. ",
"    &&&.......OOOO@@&,3-&@O@&-=@@@><qtaBSHVy<:.#$.OO@@@&-38-4&+..=O++&*;378hcnj8 ",
"   &&&@...O..OOOO@@@&3-&@O@&=-=@@:<qqiMSHDsq<@.$#$:::OO@&-344&&+.=&OO&*;-580hcjd4",
"  @&&&...O.O.OOO@@@&,3-&@@&&--&@@><qtsVGHVy<,.#$.:::,,:O.@-34=&+..&&&-==-3480hjd4",
"  @&&.......OOOO@@&:3-=&@&&-3-@@:<qtiNSHDsq<:.$#.::>,<,>..@-33&&...&&&&=-;249jhd4",
" .&&@.....o.OOO@@@&,3=&@&&-43-@@><qyaCDHVa<,@.$.$>:,1<<,$OO@-4&-.+.++++&&*=24ddd4",
"&&&&.........@@@@&,3-=&@&&-3-&@:<qtyGAHSsu<:.#$.$:>,<<1<,:.O&3&-+&+.+O++&&&*27884"
};
