/* XPM */
static char *shoot11682590684[] = {
/* columns rows colors chars-per-pixel */
"55 37 80 1 ",
"  c None",
". c black",
"X c #0B0B0B",
"o c #170F07",
"O c #1F170B",
"+ c #131313",
"@ c #1B1B1B",
"# c #2B230F",
"$ c #332B13",
"% c #3F2F17",
"& c #232323",
"* c #272727",
"= c #2F2F2F",
"- c #373737",
"; c gray23",
": c #4B371B",
"> c #533F1F",
", c #5F4323",
"< c #6B4727",
"1 c #774F2B",
"2 c #7F532F",
"3 c #434343",
"4 c gray28",
"5 c gray31",
"6 c gray34",
"7 c #5B5B5B",
"8 c gray39",
"9 c #6F6F6F",
"0 c #9B0000",
"q c #B30000",
"w c #BF0000",
"e c #8B2323",
"r c #972F2F",
"t c #A33B3B",
"y c #A73F3F",
"u c #CB0000",
"i c #D70000",
"p c #E30000",
"a c #EF0000",
"s c red",
"d c #FF1F1F",
"f c #FF3F3F",
"g c #AF7B1F",
"h c #8F5F37",
"j c #C34F00",
"k c #CB5707",
"l c #D75F0B",
"z c #DF670F",
"x c #EB6F0F",
"c c #F37317",
"v c #FF7F1B",
"b c #AF4747",
"n c #B34F4F",
"m c #BB5757",
"M c #BF5B5B",
"N c #B37347",
"B c #FF5F5F",
"V c #C76363",
"C c #FF7B7B",
"Z c #C39B2F",
"A c #FF8F3B",
"S c #EBDB57",
"D c #E78F8F",
"F c #FF9B9B",
"G c #FFBF9B",
"H c #F7ABAB",
"J c #FFB7B7",
"K c #FFBBBB",
"L c #FFC7A7",
"P c #FFD3BB",
"I c #FFD7BB",
"U c #FFFFB3",
"Y c #FFDBC7",
"T c #FFDBDB",
"R c #FFE3D3",
"E c #FFEBDB",
"W c #FFEBDF",
"Q c #FFFFD7",
"! c #EFEFEF",
"~ c white",
/* pixels */
"                    bbb         bbb                    ",
"                   mqrtq       qtrqma a                ",
"                MmMMb0tybbM Mbbyt0bMaaw                ",
"            bb NMnbbuadrynmmmnyrdaadddaN bb            ",
"            iikldzddddddddzdzddddddddddlkii            ",
"           bbddddcdfddddffcdcffddddfdfddddbb           ",
"         MM bdddvdfBfddfffdddfffddfBfdfdddb MM         ",
"        nrrbbddddAdfBBBBfddcddfBBBBfdffdddbbrrn        ",
"        nuuwwusdfffBCFFCBfffffBCFFCBfffdsuwwuun        ",
"       nwupadwfafBCDCJJCDCBfBCDCJJCDCBfafwdapuwn       ",
"     MnnwiiiaaaafCHKTTTTKFCfCFKTTTTKHCfaaaaiiiwnnM     ",
"    Mbr upipadddfCJRQ!~QRHCfCHRQ!!QRJCfdddapipu rbM    ",
"   ntwippdaaadffBDJQQ~~QRJCBCJRQQQQQJDBffdaaadppiwtn   ",
"   beuiaddddfBFCDFPEQ~~QRYFFFYRQ~~QEPFDCFBfddddaiueb   ",
"  VmtipaadddfBCHJKYR~~~QQR;8KRQQ~~URYKJHCBfdddaapitmV  ",
"  MMMiafdsddfCFJPRhgZSSZgQ@;WhgZSSZgRRPJFCfddsdfaiMMM  ",
"   MMddsaaddBHJP112hgZZg2=@9+2hgZZg211YPJHBddaasddMM   ",
"   MMdddddddBDP3>,<2hhh2<=..$<2hhh2<,,>YPDBdddddddMM   ",
"   mlddddffBCL3#::::>>>>>=..$>>>>>367;&3YLCBffddddlm   ",
"VVMMcdddfBCCGP3#%$#+@&---=..$$%$@=-483&;YPGCCBfdddcMMVV",
"VMVlcfddfCCFL3#OX.X+@*---=..##+.@*=365=&3ILFCCfddfclVMV",
"VmVlxcddfBCCF;$X..X+@*---*..##+..@=-44-&;YFCCBfddcxlVmV",
"  Njqkpaaddd3##X..++&*---*..##Oo.@*-33;*+3fdddaapkqjN  ",
"  Mbwippdddf3$OX.X++&*---*..##Oo.@*=-;;=@3afdddppiwbM  ",
"   mtwiaaaf3##XX.X+@&*---*XX##Oo.@**=-;3&+3afaaaiwtm   ",
"    mtu wda3$OX..X+@**---&XX##OO..@&=-;3=@3fadw utm    ",
"    MM   i-##XX..X+@**---&XX##OO..@&==-;-&+-ai   MM    ",
"        mi3#OXX.X++@*=---&XX##OO..@&*=--3&@3aim        ",
"         -##XXX.X+@@*==-=@XX##OOo.@&*==-3-&+-m         ",
"         #$OXX..X+@@*==-=@XX##OOo..@*==-;5&+-M         ",
"        -##X+X..X+@@*==-=@XX##OOo..@*===;4&@+-         ",
"        3$OX+X.XX+@@*====@XX##OOo..@&*==;4-&&3         ",
"       3##X++X.XX@@@*====@XX##OOoX.@@*==;45&+&3        ",
"       3$OX+X..XX@@@*====@XX##OOOX..@*==-45&@.3        ",
"      -##X+@X..XX@@@*====@XX##OOOX..@@==-;4-&.&-       ",
"      3$OX++X.XXX@@@*====@XX##OOOX..@@*==;45&+.3       ",
"     -##X+@+X.XXX@@@*====+XX##OOOX..@@*==-354@.&-      "
};
