/* XPM */
static char *shoot91682593578[] = {
/* columns rows colors chars-per-pixel */
"77 85 55 1 ",
"  c None",
". c black",
"X c #070707",
"o c #0B0B0B",
"O c #170F07",
"+ c #0B1707",
"@ c #1F170B",
"# c #131313",
"$ c #1B1B1B",
"% c #2B230F",
"& c #372313",
"* c #332B13",
"= c #3F2F17",
"- c #232323",
"; c #272727",
": c #2F2F2F",
"> c #373737",
", c gray23",
"< c #43331B",
"1 c #4B371B",
"2 c #533F1F",
"3 c #533F2F",
"4 c #5F4323",
"5 c #6B4727",
"6 c #774F2B",
"7 c #7F532F",
"8 c #434343",
"9 c gray28",
"0 c gray31",
"q c gray34",
"w c #5B5B5B",
"e c gray39",
"r c gray42",
"t c #6F6F6F",
"y c #777777",
"u c gray50",
"i c #875733",
"p c #8F5F37",
"a c #9B633B",
"s c #A36B3F",
"d c #AB6F43",
"f c #B37347",
"g c #BF7B4B",
"h c #CB7F4F",
"j c #D78B5B",
"k c #DF9363",
"l c #838383",
"z c #979797",
"x c #A7A7A7",
"c c gray75",
"v c #FFB383",
"b c #CBCBCB",
"n c gray86",
"m c #E7E7E7",
"M c #EFEFEF",
/* pixels */
"                eeeeeee                                                      ",
"              :88>,0rtyr:                                                    ",
"             ;:8>:,8,wte>.                                                   ",
"             $>8;:>>:0ew8:                                                   ",
"             #8q-;::;,99,:.                                                  ",
"         ;;;#-qq;-;;;:899,.                                                  ",
"       $;;;,#-qq;##;;:,89,.                                                  ",
"      .$;$,,#-q9;##;;:>,8,#                                                  ",
"      ..-#,,#-89;##$-::>,>$.                                                 ",
"      ..$#;>#-,8:##$-:::>:;.                                                 ",
"      ..##$;o-;8:##$-;:::;:.                                                 ",
"      ..@#$#o$-,:##$-;:;:;:#                                                 ",
"      ..@##;o$->:$#$$;:-;-:;.                                                ",
"      ..@##;o#-;:$##$-;-$-:;.                                                ",
"      ..@##oo.-;:$###$$-$-::.                                                ",
"      ..@o#o..--:$#o#$$-$$;:.                                                ",
"      ..@ooo..--:$#o#$$-$$;:..                                               ",
"      ..@ooo..--;$#o#$$-$$$:..                                               ",
"      ..@ooo..--;-#o#$$$-$$:#.                                               ",
"      ..@ooo..--;-#oO$$$-$$:$.                                               ",
"      ..@ooo..----#oO$O#-$$:;.*                                              ",
"      ..@oo...$---#oO#O@-$$;:.*                                              ",
"      ..@oo...$-$-#oO#OO-$$;:.*                                              ",
"      ........#-$-#oO#OO$$@$:.*                                              ",
"      .........-$$#.OOOO$$@$:.%=                                             ",
"      .........-$$#.OOOO$$@$:$O=                                             ",
"      .........-$$#.OOO@O$@$:;.*                                             ",
"      .........-$##.OOOO@$@@;:.*                                             ",
"      .........-$##.OOOOO@@@$:.*<5543                                        ",
"      .........-$##.OOOO@@@@@:.%=fvk1*                                       ",
"      .........-$##..OOOO@@@@:.@=ajf6=                                       ",
"      .........-$##o.OOO@@@@@:$O*5pfi1*                                      ",
"      .........$-#Oo.OOOO@@@@:;.*26ai51                                      ",
"      .........$-#Oo.OOO@@@@@;:.%=4ai2p*   6pp75                             ",
"      .........#-$#o.OOO@@@@@@>.%=2aa4p=  4$11141                            ",
"      ..........-$#o.OOOO@@@@@,.@*2ia55==*1$144411                           ",
"      ..........-$#o.OOOO@@@@@,$O*27si11$2%=2pi64%%                          ",
"      ..........-$#o.OOOO@@@@@>;.%=5dp1%$*%=5p6661*%                         ",
"      ..........-$#o.OOOOO@@@@:,.@=1sa2%$*%%5554564741                       ",
"      ..........-$#o..OOO@@@@@;9.O*=as4=@..O=444242ifai                      ",
"      ..........-$#o..OOO@@@@@@8..*=pd5<O...%12444==46s6                     ",
"      ..........--#...OOO@@@@@@8$.*=isi1%O..%66s=%%%%24sp                    ",
"      ..........$-#...OOOOO@@@@8;.%=6ai2%.+2%565574%%%1257                   ",
"      ..........$-#...OOOO@@@@@>,.@=5pa4=+=5%*4444644%%2=25                  ",
"      ...........-$...OOOOO@@@@:9$.*4is5<+21%%*2122214i%%+%27                ",
"      ...........-$...OOOO@@@@@@0;.*<6di1+1%%O&*=====%4i%%+%1                ",
"      ...........-$...OOOOO@@@@@0>.%=5sp2%%%OO&=4f2=%%=4iiO++7               ",
"      ...........-$...OOOOO@@@@@0>.@=4aa4=O+OO&&4dpiO%%=4pp++%               ",
"      ...........-$....OOOO@@@@@99$O*<ps5=+O%OO&1i766OO%=4p4++4              ",
"      ...........-$....OOO@@@@@@>9;.*<idi=+OO%O&154247%O%=6p%+O5             ",
"      ...........-$....OOOO@@@@@:0>.%=6fp2@OO%OO=121147%+%112%+=6            ",
"      ...........--....OOOOO@@@@@0>.%=5ga4@@@OOO%==*=1575+%%21%+%7           ",
"      ...........$-....OOOO@@@@@@09.@=4ss5*@O%OOOO%%*==46d=+O2ii%%7          ",
"      ...........$-....OOOO@@@@@@09$O*1psi=%@%%@@OO%%*==2p75+O1pa2Op         ",
"      ...........#-....OOOOO@@@@@09;.*<idp1%%.%OOOOO%%*==5575++*6p5=         ",
"      ............-....OOOO@@@@@@90>.%=5fa4%%%.%OO+OO%%*=225p5O+16666        ",
"      ............-.....OOOO@@@@@>0>.@=4ss51%%.+=OOO%**<<==2ppf1+=1=46       ",
"      ............-X....OOOO@@@@@:09.O=<adi2=%%.+%%+OOOO@%%%44i7741%%46      ",
"      ............-o....OOOOO@@@@@09$.*=pfa62=%%.+4%+++OO@%%%=116sg6O%46     ",
"      ............-#....OOOO@@@@@@09;.%=igs65==%%.+4+++O+O@%%%%==6775%%26    ",
"     .............-$....OOOOO@@@@@99>.@=5da666=%%%.+*+++++O@%%%%%=426p746    ",
"     .@...........-$....OOOO@@@@@@>0>.O*4is6i64=%%%.+*%+OOOOO@@%%%=<25ddf6   ",
"     .@O..........--....OOOOO@@@@@:09..*<6dii642=%*..++%++++O+%*==11225pph1  ",
"    *.@O..........$-....OOOOO@@@@@@09$.*=5sp66422=%%...+%%+++OOOOO@%%<15pph6 ",
"    *.@O..........$-....OOOO@@@@@@@w9;.%=4aa664422=%...++=%+++++O+O@%=<<5pdp5",
"   =*.@O..........#-....OOOOO@@@@@@w9>.@=<ps6644241%%....*4**%O+++O+@%=<5ipi%",
"   4%.@O...........-....OOOOOO@@@@@wq9.O*<idi644241=%.....%*++++OO++O=<12575%",
"  =4%.@O...........-.....OOOOO@@@@@00e$.*=6fp644241==+....+*@++OO+++O%==<252%",
"  24%.@O...........-o....OOOO@O@@@@90e;.%=5ga644251=1+....+%*+++++OOO+%=252<1",
"  46%.%O...........-#...OOOOO@@@@@@>0t>.@=4ss554451=1%@....+++++O++OO%111=<% ",
" 456%.%O...........-$....OOOOO@@@@@:wtq.O*1ps75645111*@.....+++++OO+%OOOO=<% ",
" 456%.%O...........-$....OOOO@@@@@@@wte..*<7775645111=@...+++%+++++++O+OO=<; ",
" 456%.%O...........--....OOOOO@@@@%@wtt..@=2255645112=%@.++%%++++++++OO+*<%  ",
" 456%.%O...........$-....OOOOO@@@@%@0ty$....==2545412=%@..+=++++++OOOO%*%<%  ",
" 44i%.=O...........$-....OOOOOO@@@%@9tl;.......=25412==@@.+=+OOOOO%%%%%*=<%  ",
" 44i%.%O...........o-.....OOOOO@@@%@>ez8...;-...%=214==%%.+%%+OO%%%%==457%-  ",
" 426%.%O............-.....OOOO@O@@%@:wxt...8,>$..%==5=1%%.++++OOO+%%%=144%   ",
" 415@.@O...........o-.....OOOO@@@@%@@wxz#..>909-..;=1=1%%@.%%+OOO+O%O%=14%   ",
" 4%2%.@O...........o-.....OOOOO@@@%@@wxc$..:00098..%%=2%%%.O%%+++O%=%%=41<   ",
" 2%%@.@O.......O...o-o...OOOOO@@@@%@@0xb;..-80w0e8..%%1%**.OO%=%++O%=<1=.    ",
"  *%%.%O.......O..oo-#....OOOOO@@@%@@9zn>...000qqe9..%*%==.+O%==%++O%2=.+    ",
"  i%%.@O.......O..o.-$....OOOOOO@@%@@>zmt...>00000e9..%%11@++O%O=%++O2*.     ",
" i41%.%O.......O...o-$....OOOOO@@@%%@:umt#..:00ww00w8..%=4%++OOOOOOOO2%.     ",
"i46p%.@O.......O..oo--.....OOOOO@@%*@@tMz$..-000wwqte:..;4=+OO%%OOOO+=.+     ",
"i46p2.*O.......O..o.$-....OOOOO@O@%*@@eMz;...00000qwty-.+1=OOOO%%OOO@=.      "
};
