/* XPM */
static char *shoot61682593578[] = {
/* columns rows colors chars-per-pixel */
"201 63 82 1 ",
"  c None",
". c black",
"X c #070707",
"o c #0B0B0B",
"O c #170F07",
"+ c #0B1707",
"@ c #1F170B",
"# c #131313",
"$ c #1B1B1B",
"% c #2F1B0B",
"& c #2B230F",
"* c #372313",
"= c #332B13",
"- c #3F2F17",
"; c #232323",
": c #272727",
"> c #2F2F2F",
", c #373737",
"< c gray23",
"1 c #430000",
"2 c #4F0000",
"3 c #5B0000",
"4 c #670000",
"5 c #730000",
"6 c #7F0000",
"7 c #43331B",
"8 c #4B371B",
"9 c #533F1F",
"0 c #4F3B23",
"q c #5F4323",
"w c #5B472B",
"e c #6B4727",
"r c #774F2B",
"t c #7F532F",
"y c #434343",
"u c gray28",
"i c gray31",
"p c gray34",
"a c #5B5B5B",
"s c gray39",
"d c gray42",
"f c #6F6F6F",
"g c #777777",
"h c gray50",
"j c #8B0000",
"k c #9B0000",
"l c #A70000",
"z c #B30000",
"x c #BF0000",
"c c #CB0000",
"v c #E30000",
"b c #EF0000",
"n c red",
"m c #875733",
"M c #8F5F37",
"N c #9B633B",
"B c #A36B3F",
"V c #AB6F43",
"C c #B37347",
"Z c #BF7B4B",
"A c #CB7F4F",
"S c #CF8353",
"D c #D78B5B",
"F c #DF9363",
"G c #E79B6B",
"H c #EFA373",
"J c #F7AB7B",
"K c #838383",
"L c #8B8B8B",
"P c #939393",
"I c #979797",
"U c #9F9F9F",
"Y c #A7A7A7",
"T c gray70",
"R c #FFB383",
"E c #FFBB93",
"W c #FFBF9B",
"Q c #CBCBCB",
"! c LightGray",
"~ c gray86",
"^ c #DFDFDF",
"/ c #EFEFEF",
/* pixels */
"                                                                BNNNN                                                                                                                                    ",
"                                                            NmmmBBBVZZZ                                                                                                                                  ",
"                                                           mmCCZSZZZZAFAA                                                                                                                                ",
"                                                   mmmm   mCCCZZSSZZZGGGAAV                                                                                                                              ",
"                                                 MZSSSBNmmCSSZZSSSZCZDGHGDAV                                                                                                                             ",
"                                                eZDSSSSSSSSZCZSZSCCCZDGGJWAA                                                                                                                             ",
"                                           mSSeemVDDZZCZZSZZZFHHFZCCZZZGJWWAA                                                                                                                            ",
"                                         emZVZemVDDDZBBVVCAAAFHHFZCCZZZZGJWWAA                                                                                                                           ",
"                                         eVBB99mVDDZBBBVVVCADFFFFZZNNZBBCGGJWAV                                                                                                                          ",
"                                       emmVB8emVDDZZBBBVVBBAAAADDZNNNZNBBDGGJJA                                                                                                                          ",
"                                 BBZZBMemNM8emNVDDZBBBBBVBBCBCCAASmmNZerVADGGJSA                                                                                                                         ",
"                               BBBBMe9emMMM9emVSSZZVVBBVBBBBBBBZZDqwmZeqMAADDGJSA                                                                                                                        ",
"                               BBMte88emNm9emVZSSZBVVVVVBBBBCZZDSDr.8N&MCSACCDGJAC                                                                                                                       ",
"                              BVMte99emCBeqemVSSZBBVVCVBBBBBCMrMSCr.8N-tSGSCBSSGGC                                                                                                                       ",
"                              BNMe99ermCNqemVZSSZBBVCVVNNBBBBMMrMBm-8r-VZGSCBBDDGFC                                                                                                                      ",
"                             BNNt99emBCMqqemVSSZVBBBCVNBBBBBBSZMtVM.8q-=qMVSBBDDGJC                                                                                                                      ",
"                             mmMq99mmBCmqemVZSSZBVBZCVVBBCCCAFSNeNr&8&OO==tVmVZSDGJC                                                                                                                     ",
"                            meMt99emBCmqqemVSSCBBBBZCCVBNCCZVNFB8M&88&##OO-qMVCZDDGJC                                                                                                                    ",
"                            meMq99mmBCrqemVSSSCBBBBZZVVNCNSSFVNV&8&8&..##-8MVNemZZGGGC                                                                                                                   ",
"                           MeMt99emCCmqqqmVSZVBBBBBBZCNCCZZAFGVN&#..&...=8me8=.-mCZFFCM                                                                                                                  ",
"                           qeMq99mCCBrqqmVZSZBBBBBBBCCCCCCZADGSre#.&...=---&..=-NCCAFFM                                                               aaaaaaaa                                           ",
"                           eMt99emCBmqqemVSZVBBBBBBBCCCCCCZZZZJCq.............=9rNCAAFCM                                                            yyu<<<<ypii                                          ",
"                          8eMq99mBBmrqqrVZSCBBBCBBBBBBBBCCZZZZJBq...........===8rNCCCADM                                                          yy,>@....:,piii                                        ",
"                          eMt99emBmmqqemBCCVVCCCBBCBBNNNBCCCGJBq...........=qm9rNNr9=NDCe                                              aapiy     ii<;@......:ipiui                                       ",
"                         8eMq99mBMmeqqeNCCCCCASCCBBNBNNNNNCVDGJBq..........o..===9-=.NAAe                                            iiyiaai<yyyii<>@........,piuui                                      ",
"                         eMt99emBmmeqeNNCBVVVVSSZCBBNBBNNNVVZDDFtq-.........O=.......9NAe                                          ii<>;<sdspuiiiy>@.........>aifsui                                     ",
"                         eMq99rBMmmqqrNCCBNNNNCSSSCNNNNBNBBVZADFSBMe-.....=99eeee--.-eCNq                                         ii<....;adsiai<>;...........aiffsui                                    ",
"                        ett99erBmmeqqMCCBMMMMNBCSSZCNNNNBNNVZZZCCSSVM-...==8tNNNMee.eNNNq                                        ii>......<fsaiy,;............sahYgsii                                   ",
"                        eq999tBMmm9qrMCBBMMMMNNBZSSZCVNNBVVVVCCCCCCDVM-..=q=8rNNMMMMNNNq                                        ii>.......:gssi,;o............sdhTTgsii                                  ",
"                       eq999qMMmme9eMBBBMMrrBBCZZZZZZCVNBVVVVVCCCCCSDVe-.=q&&8errrrrrq=                                        ii>.........ffsy>@#o..........>gdITQTgsii                                 ",
"                       q999qtMmme9erNMNMMrrrmBBBVCCCCCVBNNVVCCCCCCCBVCVe--=====qqqqq8=m                                        i<>.........shs>;;$#o.........<KLYYQ~Thsii                                ",
"                      =e99qtMMmmeerrMMMtreermMMMMMMMMMMmmmNNCBBBCCBNmmVVmee9=========qNmm                                     ii>..........iIi,>:;$#o........iILIPPQ/~hsii                               ",
"                     =te9qtMMmmmemtrrttreermMMNNBBBBBBBMmMMMNNBBBBMMmmMBmMrrMMBBBCSSDHHHVmm                                   i<;X.........ihy,,>:;$#o......;sLspphYQ/~hsii                              ",
"                   =etMtqrMMMmemmMMMtrrrrrmMNNNBBVVVVVVVBVNNNNNNBBMmmMBBNNNNBCCCCCSSGJREWGV8                                 i<::oX........ufy,<,>:;$#o.....;gs,,8ydIQ/!hgii                             ",
"                  O99ete9qrrrrrrrMmrrmMMMMMBBBBBBCCZZZZZZVVVVVVVVVVVVVVVVZZZCZCCCZSDJRREWWHV8                                i<:$#oX.......udyiy<,>:;$#o....shu***8ydhQ/!Tgii                            ",
"                  =qq999999qrrrrrrrmmMNCCCCCNNNNNVVCVZZZZZZZZZZZZZZZZZZDDDDSSDCVCZSDJJJEEJGV8                                i>:;$#oX.....;ippiuy<,>:;$#o..yha>****8ypdI/QTgii                           ",
"                 qqmmmmMMMMMMMMMMMMMNVVVVVVVBBNNNNNBBVZZZZZZCZZCAZAADGGGGGGFDSZVVCZDGHJJJJFVe4                              ii>>:;$#oX....>apaiiuy<,>:;$#oyfs;@...**8yidIQ~Thii                          ",
"               eemmBBVCNNNMMMMMNVVVVVVVVVVVVVNBCCVNNNVZZZCCCCCCZZADDGGJJGGGFDSZVBNCZDDGGFFSVm84                             iu>,>:;$#oX...uaasipiuy<,>:;$ysp>;.....**8quaPQ/~hii                         ",
"              qrNCCASCVNMMMMMMMMNBVVZZZZZZZZZCNBCZCVNCVVCCZZZZZZDGGGGJEWEJGGSZZVBNNCCZDDSSSVm834                            iu><,>:;$#oX.>apsdappiuy<,>:ypi>@@......**8quhYQ/~hii                        ",
"            qrMMVBBVBMmmmmmmmmrrrrrMMVVZSSSDZZCBNCZSCVNNVVZZZZZDFGGGJREWWEGGSZCBMMMNNCZSZCSCm84j4                           ii>y<,>:;$#oXdppahsappiuy<,yi<:@@@@......**-qydIQ/~hii                       ",
"           9qerrMMBVBMmttttttttttterrrMBCCADDDZCVNCSFSCNNNVVVZZDGGGHJJRERJGGZZCBMMNNBCCZCMCNr-6kj4                          <i>uy<<>:;$:dppppfhdsaiiiyi<>@@-&@.........*-8ydhQ/!hsi                      ",
"           9qeeNCDDDCCCCSVVVtttttmNNVVVNNBCZADDZCVNCDHSCNNNNVVZZADFFFFGGJJGGZCVMMMNNBCVCMMMN-Ok5lj4                          iauuy<<>::au<><yasdhIhaa<>@@&-9-@...OO.....**8yphQ/!Tgi                     ",
"          99mmmmNCZZZASDFJJGGGSCMteemmNVVVBBVADDZCNNCDHSCVNNMMVCZADDFFFFGHGSCCVMMNNBmmmNeMNrO2jx3xj4                         <uuuuuuyiy<;.@@=><yiiy<>;@@&&=-8&@OOOOO.....**8ypdI/QTgi                    ",
"        -9errmmmmmmmMBVCSFJJJJHFDCNMMrrmmmNNBVADFZVNCSHGSVVMMMMMVZZADDFFFHFSVBMMMMNmmemeqNm8O25jx2xj                          ;uaaayy>;.@&=-@=---&@OOO@OO@@&&-&@OOOOO......*8yidIQ~Thi                   ",
"      -&=-9erree99qq9999emMCCSSSSSSCNmrrtttNMBVSFAVNNZFGSCNVBrrMMVZZADDDFGFSVBMMMMmreeq=qNqO2563jx&xj                          @&&&&&&@@@@&=-O=8q-&@O@OOOOO@&&=&OOOO.O......%8quaPQ/~hi                  ",
"      @&&&-99999MMMMMrrr99@@9mNMVASSACBMe9ttNNBCSDCNmCDFFSNNVM9qMmCZZADDDDFZBBMMMmrqq9==qm=.343k2jx=l                           @@&==&&@@.@@&-@=-q-&@@@@OOOOO@&&@OOOOOOOO....%8quhYQ/~hi                 ",
"     @@@@@@@8qVVmVCCCCBBBBr9-@@qqMVASDACBr9ttNNCZDVNmNASSSVmmBr-qrmBCCZAAAZCBBMmmrq888=8e9O13432k1jx9                             @&=-=&@.O@@@&@&-9-&@O@@OOOOO@@&@OOOOOOO......*qydIQ/!hi                ",
"     @@@@&qMVAFAmCCCCFFHFZAVrq--@@qMVSADABr9trmBCSVNtNCSZSVmeMM-&9qrBBBZZZBNMMtmme98===qe&O134k11z=jc                              @@=-=&@OOO@@&O&-8-&@@@@@OO+O@@&@OOOOOOO......-8ydhQ/!Ii               ",
"     @@@qMVSVAFAmCCCCFFHFZAVBBmq-@@@MNAAAACr9eqMVZVNeMNAVCCNerr9&&-qrNNNNNNtmtrte9==$=8e&O12k2jz&=b-l                                @=-=&@OOO@@OO@-8-&@@@O@++O.@@&@OOOOOOO......%8ypdI//Yi              ",
"     @qqMFAmVCCFBVAASSFDGAVVCCNre==@@qMBZAFCrq8MVZVBemNCNNVVeee9&@&-errtttttteqq9==$.$9&O11k2k1jb--c                                  @--=&@OOO.@O@@=--&@@O@@OO.O@@&@OOOOOOO......*8yidI!/hi             ",
"   9qqMVAFAmCNHAVZZZFHDGSVNSCCMre9-=@@qMBCZSM--mVZVMqmNVMmVBe9q8=O@-9erreeeeq999&&...=&.1335c1n=jb9j                                   @--=&@OO..OOOO=-=&&@@O@@OOO@@&@OOOOO.O......%8quaI/~hi            ",
" 99qMMVVAFAmNmDAAVAAGHGFSBVZSSBMre99=@@qMBCZZm&MVZVm9mNVmmMNt998=OO@8qqqeeqw77--.OO==&O141j4kz=v-jk                                     @--=&@O..OOOOO&==&&@@@O@OOOO@&@OOOOOOO......%8qudI/~hi           ",
"9qMSHVVNVVCVVSGSVAFAFFCCCFFHFZAMBBmmq=@@qNBCSV&qMZBm9mNVmrMNt8=8&OOO&77877777--OOOOOOO11141j4kk-j                                         @-=&@.OOOOOOO@=&&&@O@@OOOOO@&@.OOOOOOOO.....*qrdQ/!hi          ",
"qMSCCNNVNNVVDFAmVCCFFVAASSFDGAVMCCNNe9=@@qrBCAq.tBMr9MNMrerNt8&-@OOO&&&&&&&&&8&=      111111j9k                                            @--&&OOOOOOOOO=&&&@OO@OO+OO@@@OOOOOOOO......-qrhQ/!Ii         ",
"AVSCNNNAAFVVAFAmCNHAFZZZFHDGSVMSCCSre9-@@@qMBCm.8MMe8eNme8qme-@-@&.O@@@@@@@.9&-                                                             @&&&&OOOOOOOOO=&&&@@@@.++O.@@@OOOOOOOO......*qpdI//Ys        ",
"HSNZANAAAHVVAFAmNmDAAVAAGHGFSBVZSSCMre9=@@@tMBN8-er9&qeq=8qte-X@@-.oOoo..8qq&-                                                                &-&&OOOO..OO@@=&&@O@@@OO.O@@@.OOOOOOO......%qidI!/Ys       ",
"FZZVHBVDHFVVCCFBCBFHSDDDFGFFZVMZBBBMreq8=@@qMMVq&89-.=q8=-qer=XX=9..O8mNmq&=-                                                                  @-&&OOOOOOOOO@=&&@@@@OOOOO@@OOOO$OOOO.....%8quaI//Yi      ",
"SZVVDSFFSVNCNHAVVCFFHHHZZCGFFDNBCmrrtrMe@@@@MMVq&=-&.&==.9err&&-9-OOO------                                                                     @=-&@OOOOOOOOO=&&@@@@OOOOOO@OO$:$OO.O.....%8qudI//Yi     ",
"ZZDDADFSCFFNmDAAMSFJHGSVSFHFZVMCMrrrmNm0@@@@tMVq..&&..=.8rNr8&&=9999-                                                                            @--&@OOOOOOOOO=&&&@OO@OO+OO..$::$OOOOOOOO.%*qrdU/^Ui    ",
"ZGSFHJHFFHHCBFHSBDZFGFSBSGFAZVVBMrrtCmqq=@@@qMNq...=..==9--&                                                                                       @-&@@OOOOO..O=&&&@@@@.++O.$:,<>:$$$.......-qrdI^^Ud   ",
"DFGGFJFZHSZVCFFHVSFCGFSMCGFSVCVNMtNNNmee=@@@qMm8..=8.rr9                                                                                            @&&@@OOO..OO@@=&&@O@@@OO$;>uai<:::;$#..OOO*qrdIY^Ua  ",
"HFFHHGFJSSSMSFJHZZSHSSSVCDSZCBMmNNmrre09=@@@qtq-..rr&e9                                                                                              .&&@@O..OOOOO@=&&@@@@O$;>,:;.....#$;#.OOO.%qrpgI/K< ",
"GJGGGGHGDCMBDZFGFSBSGFAZVVBMrrMZttqreq08=@@Oqq-&..-99                                                                                                 .@:@OOOOOOOOOO=&&&@$$::$..:,<uuy:.#$#.....%qrpdI~g<"
};
