/* XPM */
static char *shoot41682590685[] = {
/* columns rows colors chars-per-pixel */
"121 130 81 1 ",
"  c None",
". c black",
"X c #0B0B0B",
"o c #170F07",
"O c #0B1707",
"+ c #1F170B",
"@ c #131313",
"# c #1B1B1B",
"$ c #2B230F",
"% c #332B13",
"& c #3F2F17",
"* c #232323",
"= c #272727",
"- c #2F2F2F",
"; c #373737",
": c gray23",
"> c #43331B",
", c #4B371B",
"< c #533F1F",
"1 c #4F3B23",
"2 c #533F2F",
"3 c #5F4323",
"4 c #5B472B",
"5 c #574333",
"6 c #5F4B37",
"7 c #6B4727",
"8 c #774F2B",
"9 c #7F532F",
"0 c #67533F",
"q c #434343",
"w c gray28",
"e c gray31",
"r c gray34",
"t c #5B5B5B",
"y c #6F5743",
"u c #775F4B",
"i c #7B634F",
"p c gray39",
"a c gray42",
"s c #6F6F6F",
"d c #777777",
"f c gray50",
"g c #875733",
"h c #8F5F37",
"j c #9B633B",
"k c #A36B3F",
"l c #836B57",
"z c #8B735B",
"x c #AB6F43",
"c c #B37347",
"v c #BF7B4B",
"b c #937B63",
"n c #9B7F6B",
"m c #CB7F4F",
"M c #9F876F",
"N c #A78F77",
"B c #CF8353",
"V c #D78B5B",
"C c #DF9363",
"Z c #E79B6B",
"A c #EFA373",
"S c #F7AB7B",
"D c #838383",
"F c #939393",
"G c #979797",
"H c #9F9F9F",
"J c #B79F87",
"K c #A7A7A7",
"L c gray67",
"P c gray70",
"I c #B7B7B7",
"U c #FFB383",
"Y c #FFBB93",
"T c #FFBF9B",
"R c #FFC7A7",
"E c #FFCFB3",
"W c #FFD3BB",
"Q c gray78",
"! c gray85",
"~ c #FDFDFD",
"^ c white",
/* pixels */
"             .ooo+ooo                                                                                                    ",
"           Oo----ette-$                                                                                                  ",
"          $--ooo**-epae*                                                                                                 ",
"         O-*oooo++=-:est*                                                                                                ",
"         **ooO.++++=-qpae                                                                                                ",
"        O*oo.O.++++*=-eat-                                                                                               ",
"        **OoooOOOOO+=-qttq                                                                                               ",
"        =*o+oooooooo*-;qtq;                                                                                              ",
"        =*#O+oooooooo*-;et:                                                                                              ",
"        ==#.o$ooooooo**;qp;                                                                                              ",
"     --O==#.oooOOooooo**;rq                                                                                              ",
"   O-OOO===O....Oooooo+*;ew*                                                                                             ",
"  $*OOOO===#...oooooooo*-qr*                                                                                             ",
" O$*oOOO===#..ooooooooo*-;e;                                                                                             ",
" Ooo...O===#oo.oooooooo*-;e;                                                                                             ",
" Ooo....===#oo.oooooooo*=;r;                                                                                             ",
"OOOoo...#==*o@ooooooooo+*;ew*                                                                                            ",
"OOo+oooo#==*o@ooooooooooo-qr*                                                                                            ",
"OO.O+oooX==**@ooooooooooo=;t;                                                                                            ",
"OOO.o$ooo==*#@oooooooooo+=;te                                                                                            ",
"OOO.oooOO=-=*+@oooooooooo*;wp*                                                                                           ",
"OOOO....O#==*#@oooooooooo*-qa;                                                                                           ",
"OO$o...oo#==*#@oooooooooo+--fw                                                                                           ",
"OOO...oooo==*#@ooooooooooo=;se                                                                                           ",
"O=..oo.ooo==*#@ooooooooooo*;pr*                                                                                          ",
" =.#*o.ooo==*+@ooooooooooo*;qp;                                                                                          ",
" ==**@oooo#==*#@ooooooooooo;qsq                                                                                          ",
" ==**@ooooo==*#@ooOoooooooo-;De                                                                                          ",
" ==**@ooooo==*#@ooooooooooo=;fs*                                                                                         ",
" ==*#@ooooo==*#@ooooooooooo*;aD*                                                                                         ",
" =-=*+@oooo==*#@ooooooooooo*;eD;                                                                                         ",
" ===*#@oooo==*#@ooooooooooo*;rFw.o<h                                                                                     ",
"  ==*#@oooo===*#@ooooooooooo;qDe.$$8S                                                                                    ",
"  ==*#@oooo#==*#@ooooooooooo-;DtO$$<AWW                                                                                  ",
"  ==*#@ooooX==*#@ooooooooooo-;st.$$&BYWW                                                                                 ",
"  ==*+@oooo+==*#@ooooOoooooo=;apO$$$kUWWW                                                                                ",
"  ===*#@oooo==*#@ooooOoooooo*;rsO$$$3SWWWW                                                                               ",
"  +==*#@ooOo==*#@ooooOOOoooo*-esOO$$,vYWWWU                                                                              ",
"   ==*#@oooo#==##@oooooooooo*-wd.o$$$jUWWYCU                                                                             ",
"   ==*#@oooo#==*#@ooooooooooo-;so.$$$3vYWYBBU                                                                            ",
"   ==*#@oooo.==*#@ooooooooooo=-p+.$$$<jUYvcxBC                                                                           ",
"   ==*#@oooo.==*#@oooooooooooo-r*.$&$$<xZ7ggcmm                                                                          ",
"   ===*#@ooo.==*#@oooooooooooo*w-.$&$$$<x<77gkjx                                                                         ",
"   ===*#@oooO==*#@ooOOoooooooo*--O$&>$$$<$&%&37h                                                                         ",
"   o==*#@oooo===*#@ooooooooooo+*-oO&>$$$&$$%%3,77                                                                        ",
"   $==*#@oooo===*#@oooooooooooo$=$O$>$$$$$$$$,%,,7      <gjcBCCBvkj                                                      ",
"    ==*#@oooo===*#@ooooooooooooo*=.$>$$$$$$$$$$$%7    $<mZZCVVVVVCCCBAACCBh                                              ",
"    ==*#@oooo===#o@ooooooooooooo*=.+>&$$$$$$$$$$%,7  $<mZSSZCmmmmmVVVBAAAAAAAh                                           ",
"    ===##@ooo.==#o@oOOOoOoOOoooo$-OO>&$$$$$$$$$$$%<7 $<g737hhhhhjkcmBVBAACjxCAVh                                         ",
"    ===*#@ooo.==#+@ooOoooooooooo$=o.>&$$$$$$$$$$$%,7 $<93,<3799999gjcmBmCm98kCABh                                        ",
"    .==*#@ooo.===*#@oooooooOOoooo*o.&&>$$$$$$$$$$$%<7$<3&$&&<7777777hcmj8vg38kCmBh                                       ",
"    .==*#@ooo.===*#@ooooooooooooo$*O$&>$$$$$$$$$$$$$O$&&$$$$$&&,,,,,,jcj33,,,8hmm79                                      ",
"    .==*#@oooo===*#@oOOoooooooooo$*O$&>$$$$$$$$$$$$OOO$&$$$$$$$$$<39hhgkkhg,&>8hh339                                     ",
"    O==*#@ooOo===*#@ooOoooooooooo+$O$&>&$$$$$$$$$$$OOOOO$%>,<<3gh999kkkvvVAAc8&3<$&9                                     ",
"    o===*#@ooo===*#@ooOoooooooooo+**.&>&$$$$$$$$$$$OOO&cxVAAAVchh98kg8ghvcvVZZZ3>$O9                                     ",
"    o===*#@ooo.==*#@oOOooooooOoooo*-O$>&$$$$$$$$$$$OO9hjjcmmmchh998kvh,&<hcvBBVZAAVmv                                    ",
"     ===*#@ooo.===*#@ooooooooOoooo$;O$>&,$$$$$$$$$$O38hhhhhkkhh98879kvj&$&,hvvhBVZAAACZ                                  ",
"     ===#o@ooo.===*#@oooooooooOooo$;O$$&,$$$$$$$$OOO83ggggg9999873<<<hv9$$$,hh88kBCAZBBVCZ                               ",
"     .==#o@oOO.===*#@oOoooooooooooO-O$$&,$$$$$$$$OOO7,78888777333<,>>,783,$$,8,%3hxBCxkmmmVCZ                            ",
"     .==#+@ooO.===*#@ooOooooooooooO$Oo$&&%$$$$$$OOOO<>,<333<<<<<,>&&$,<<<3,$$$$&&3hxBc9gjcmmmVCZ                         ",
"     .===*#@oooo==*#@ooOooooooooooO$$O$%&&$$$$$$OOOO$&>>,,,,>>>>>&&$$%%%%%&$>$$$$&<gkc89gjcvmmmVCZ                       ",
"     .===*#@oo*o==*#@ooOOoooooooooO$%O$$%&$$$$$$OOOO$$&&>>>>>>33377789hcc9$$$&>$$%&>7x<3788jcvmmmVCZ                     ",
"     o===*#@oOOo==*$#@oOooooooooooO$%O$$%&%$$$$$OOOOO$$$>&&&89gggggghkkvCCV3$$&>$$$$>7&&,<388jccvmccx                    ",
"     *===*#@ooOo===*#@oOooooooooOoO$%%o$%&%$$$$$$OO.OO$$$$O<g99999999hjjjvmB9>$$&$$$$$$&&&,,,<<8gkkg7,                   ",
"     &===*#@ooOo===*#@ooOoooooooOOO$%%O$%&&$$$$$$OO...OO$OO33777777777789ghjk833,>$$$$$$$&&&&,,<<8977,O                  ",
"      .==*#@oOOo===*#@oOOoooooooooO$$&.$%&&%$$$$$$OOo.....$<33333333<<<<,>%&<<>8kAB9,$$$$$$$$$9gjxxxxj9,                 ",
"      .===*#@ooo===*#@oOOOoooooooOO$$&O$$&&%$$$$$$$$OOOO..$,>&&&&&&>>>,,,&$$><&><3cCCZZSSAAAAAAAAAAAAAVmc7               ",
"      .===*#@ooo#==*#@oOOOooooooooO$$&%.$&&&$$$$$$$$$$OO..$>&$$$$$$$$&>>&$$&$>%&<<8gjhBCSACBBBBBBBVCCCCZZAVmc            ",
"      .===*#@oOo#==*##@oOoooooooooOO$$,O$%&&%$$$$$$$$OOO..$&$$$ooooo$$$&$$$<%<>%387jg<,kBmxxxxxxxxxxvmVCCZZAVmc          ",
"      .===*#@ooo#===*#@oOooooooooOoO$$,O$$&,%$$$$$$$$OOO..O&$++ooooooo$$$%%,3<k<kh3hx7<,8xhhhhhhhhhhhjkxxxjjjg87k        ",
"      o===*#@oooo===*#@oooooooooooOO$$,%.$&,>%$$$$$$$OOO.....+oooooooo$$$$%%%>3><3<<>%$&>,38877777778888888773,&3g       ",
"      *===*#@ooOo===*#@ooooooooooOOOO$&,O$%&,%$$$$$$$OOO.......oOOo<8777778<>%&>%%%%%%%&&&>,3<<<<<<<<<<<<33333,&%<j      ",
"       ===*$#@oOo===*#@ooooooooooooOO$&,$.$&<,$$$$$$$$OOO......O.ohh98hhkkjjh8<$$$$$$$$%%%%%&&>>>>,<<<<<<<333<,&$O,      ",
"       ====*#@oOo===*#@ooOooooooooooO$%,%.$&<,%$$$$$$$$OOOO.....Og83338gjkcmVvjh<$$$$$$$$$$$$$$$$&&>>,,,,,,,,,>%$O$      ",
"       ====*#@ooo*==*##@ooOooooooooOO$$&&O$&,,&$$$$$$$$$$OOOO...>3,3,>><78gjkckvcc99988,>>%$$$$$$$$%%%%&&&>>>>%$$OO      ",
"       ====*#@oOo#===*#@ooOooooooooOO$$%,$.%,<,%$$$$$$$$$$$$O...><<,<<<>>>,<78gjccBBBCCCCBjjjjjjjjjjjjjBAAAAAAAAZBh      ",
"       ====*#@oOoo===*#@ooOoooooooooOO$$,%.$&<<&$$$$$$$$$$$$O...%<>&>&&>>>>>>><3777gkcvvcccCAAASSSSSSSAACmvvvmVZASSZh    ",
"       &+==*#@oOoo===*#@oooooooooooOOO$$,%.$&,<&$$$$$$$$$$$$OO..O%%&&&&&$$$$$$$&&&<7ghhkkkjjjjjcvvvvvcxxxxxxxxxcmCASZh   ",
"       -$==*##@ooo===*#@oooooooooOooOO$$&,$.$&<,&$$$$$$$$$$$$OOoOO$%%%&&&&&&&&&&&&<<,3779hhhhhhhhhhhhhhhhhhjkxxxxcBBBBg  ",
"       -*===*#@oOo===*#@ooooooooooooooO$%,%.$&<<&$$$$$$$$$$$$$++.OOO$$%%&&&&&&&&>>>&><<<<78ggggggggggg99999999gggggxxxx8 ",
"        &===*#@ooo===*#o@ooooooooOOoOOO$$,%.O&><,$$&$$$$$$$&$$$+OOOOOO$$$%%%%&>>>>>,,<,,<<<<7778887777777777899gggggggh3 ",
"        &===*#@ooo*===*#@oOOoooooooOoOO$$,,$.$><,$$&&$$$$$$%$$$$OOO.OOOOO$$%%%&&&>>,<,&&>>>,<<33<<<3<<<3777777777778773>3",
"        -===*#@ooo#===*#@oooooooooooooO$$&,$.$&>,%$&3&&$$$$,$$$$$+O..OOOOOo$$$$&&%%%%>>$O$$>>>>,>><3<,,,<<<<<<<<<<<<<,>><",
"        ;===*#@oooo===*#@ooOoooooooooooO$%,&O.$>,<8g83$$$$&<&$$$$$OOO..OOOOOOo$$$$$$$$$OOO$O$$$$&>>,&&&&&>>>>>>>>>>>%$$$$",
"        ;-==*##@ooo*==*#@ooOOooOooooooOO$%&,O.$&,3jvVx3&$$,93%$$$&$+OOO..OOOOOOOoOO$$OOOOOOOOo$$$$$$$&&&&&&&&&&&&&$$$$O$%",
"        ;-===*#@ooo*==*#@oooooooooooooOO$$&,&..$&7cVSCx9,&<ch<$$$<&$OOOO...OOOOOOOOOOoOOOOOOOOOOOo$$$$$$$$$$$$$$$$$$oOO$&",
"        ;-===*#@ooo*==*#o@ooooooooooOOOO$$&,&O.$$<kUEESB999Vc7,$$73$$OOOOO...OOO...OOOOOOoOOOOOOOOOOOo$$$$$$$oo$$$oOOOO$>",
"        ;;===*#@ooo*===*#@ooOooooooooooOO$&,2$.$$&7AEEESBxhAZh3%$78&$$$OOOOOO......OOOOOOOOOOOOOOoOOOOOOoooooooooOOOOOO$,",
"         ;===*#@ooo*===*#@ooooooooOoOoOoO$&,2&.O$$<VYEEESBxATBh3&7h7,,%$$OOOOO.....OOOOOOOOOOOOOOoOOOOOOOOoooOOOooOOOO$&,",
"         q===*#@ooo#===*#@oooooooooOooOoo$$,6<$O$$>kUEERESBZEEAx3gxh7<,&%$OOOO........OOOO..OOOOOOOOOOOOOOOOoOOOOOOOOO$>,",
"         q===*#o@ooO===*#@oooOOooOoooooooo$,062.$%>7ARWEEECZEEUAgkvxj77<,%$$OOOO............OOOOOOOOOOO.OOOOOOOOoOOOOO$, ",
"         q-===*#@oOO*==*#@oooOoooooooooooo$,0u6OO%$7VUWEEWAUERRUvkvvvk87<,&$OOOOO............OOOOOOOOOO..OOOOOOOOOOOo$%, ",
"         q-===*#@oOO=*=*#o@oooOooooooooooo$&yly$.%$7kAEEEWEYYEEUAkvCvcjg7<3&$O$$O.............OOOOO......OOOOOOOOOOOo$&, ",
"         ;-===*#@oOO#===#o@Ooooooooooooooo$&0zi2.%$77VYWREWTTEYYUCvCBvkg873<&$$$$O.........................OOOOOOOoO%%>, ",
"         ;-===*#@oOO#===*#@Oooo.oooooooooo$&0zb6O%$7<kUWEEERUUTTUAvCVBkjg883<%$$$$.......................OO...OOOO%%%%,  ",
"          -===*#@ooO#===*#@.ooooooooooooooo&2bMuO..,&7AEWEERYYRUUAmCVCvkjh897<&$$&$...............OOOOOOO.OOO..OOOOO%%,  ",
"          ;===*#o@oO#*==*#oOooOoooooooooooo$&bMn2O.&&<kURRERYYYYYUVCVZvkjhh987<>$&$................OOOOOOOOOOOOOOOOO$%,  ",
"          ;&===*#@oO#*==*#ooooOooo$*+ooo+oo$&bMN6O.%&,7ATRTTYYYTSUAVVAVckjhg987<&&,$...........OO...OOOOOOOOOOOOOOO%$%,  ",
"          -&===*#@oO#*==**+oO.oo+oo....Oo++O&uMMl*.$%,7mYYYYYYYSSSSVBAVckjhg9873,&,&...........OOO...OOOOOOOOOOOO%%&&&,  ",
"          &&===*#@oO#*===**o.ooo..........$o$2MMn5.$$<,hCYYUUUSSSZZVBAVvckjhg9873,&,&....OO...OO$OOO..OOOOOOOOOOOOO$%>,  ",
"          -$===*##@oo*===*#@oooooooooooooOooO&bMN0O.%<>3mTUUUUSYSVVmmZVBkkjhg9873,&,&$..OOOOO.OOO$OOOOOOOOOOOOOOOOO$%>,  ",
"          -*====*#@oO#===*#@ooooooooooooooooo&uMJlO.&<,3kCUUUSSAAVVVmVVVmkkjhg9833,,<&..OOOOO.OOOOO$OOOOOOOOOOOOO$$%&>   ",
"          -*====*#@oO#===*#@ooooooooooooooooo&2MJn5O&3$&7mSUUSSZZVVAmVmZmvkkjhg973,,,<$.OOOOOO.OOOOOOOOOOOOOOOO$$%>>>&   ",
"           &====*#@oo#===*#o@o@ooooooooooOOoO$&MJN6O%&%,<kCSSSAAZZZVmVcVvvkkkjhg833,,<&.OOOOOOOOOOOOO$$$OOOOOoOOO$%&&&   ",
"           &====*#@oo#*===*#@o@oOOOooooooooOo$&zJJuO.&-*,3cZZAAZVYmVVVxVmckxkjhg93<,,,<$OOOOOOOOOOOOO$%&&$OOO$$OOO$%&&   ",
"           -====*#@ooo*===*#@o@oooooooooooooooo6JJb*.$+O&7hCZZACVAAcVAkmvcxkkxjh97<3,,<&.OOOOOOOOOOOOOO$&,>$OO$$%$O$%&   ",
"           ;====*#@ooo#===*#@o@oooOoooooooooooo&NJN2*.O.&,7BAZCCBZcxvvhcvcxvchjhg73<,,<,..OOOOOOOooooO$$%373&$oo&&$O$&   ",
"           ;-===*##@oo#===*#@o@oooOOooOoooooooo=bJJ6*.$.&&7cBVCCBvjgcvhgkvxvkhjh887<<,,<$.OOO$%%%$$OooO$&>,8g8>$O&&$O$   ",
"           ;-====*#@oo#===*#@o@oooooooooooooooo=6NJy*...&&&jvBVvxj<&<g%&3jxvhgkj8873<,,<&.OOO$&&&&&%$ooo$$&>3h8>&O&<$O   ",
"           ;-====*#@oo#===*#@o@ooooooooooooooooO=fJb**..&+&7hkh87%%%%%%%>88hh8kj8873<,,,<$OO$$&&&>,,,$$+oo$$>,78,&$&<.   ",
"           ;-====*#@oo#===*#o@@@ooooooooooooOOOO=pLHw*oO..&&73,%%%OOOO...%>78>8x83773<,,<$OO%,,,><<33777,$oo$><77,%$%    ",
"           ;;====*#@ooo====*#@@@oooOoooooooooooO=;HKw*o...o&$O.O.$%OOOOOO..%$.7883777<&,<&OO%%%,3333379hg8,$o$&<73&$$    ",
"            ;====*#@ooo====*#@@@ooooooooooOoOo$o.=GPf*o...o&OO.OO.......O.....%>7>478<&,,,OO%%%,<7<<,<79h88&$o$&33,$.    ",
"            q====*#@ooo====*#@@@oooooooooooOooooO=aPHwoO..O$O...==----=#......OO%O18h3&&,3$O%%%,,<7,&>,793,3&$o$><,$.    ",
"            q====*#o@@o====*#@@@ooooOOoooOooooooo=eKKw*OOO.o#==-;--====---*#...OOO>3h<$&,<&OO%%,,>,<>&%%>><,,%oO>>$.     ",
"            q====*#o@@o#===*#@@@ooooOOoooOooooooo=wdPp*oOO.O=-::-*==*===-*---#..OO%,3$$&<,,OO%%%,&>,,>&%$%&$&%oo$$$      ",
"            q--===*#@@o#====#@@@ooooOoooooooooooOO=aPf:oOOO*-:--****=====**==--#.O$%,$$$,,<$O%%%&&&>>,>&%$%%%%$oO$       ",
"            q--===*#@@o#====*@@@@@oooOoooooooooOoO=tFHwo..o*:--***oo****=**#**=*#..$O$.$&,<&O%%%&&&&&>>>&%$$%%$o.        ",
"             --===*#@@o#====*#@@@@Oooooooooooooooo=wFIp*...*-*#*o****@#**$##**#$**#.OO.$&,<,O$%&&&&%%&>,,%$+$$$o.        ",
"             --===*#@@o#$*==*#@@@@Oooo.oooooooooooo:sIfw....-##*****@$*@$$*o$$###=**...$%,7,$$%%&%%%%%%&,,$++$$o.        ",
"             --===*#@@o#**==*#@@@@.oooooooooooooo$o=pIFw....@##*oo*@***@*@#+*$@@##*=#..O%,7,%$%%%%%%%%%%,,$$++$..        ",
"             --===*#@@oo**==*#@@@@.ooooooooooooo$oo=:FQw....O@##*O**##*@@@@*++@&*####=.OO%,%%$$%$$$%%%%%%$$$+...         ",
"             ;;===*#oo@o*$===#@@ooOooOoooooooooo$$oO:dQf*....@##O@*@**@@##+@$o$@@##*$==#OOO$%$$%$$+$$%%%$$$$+..o         ",
"             ;;&===*##@o*====#@@oooooOoooooooooooO$O:pJ!w....@#@=#**++#*@*#@@+$*@@**##***.$$%.O%$$++$$$$$$$$+.O          ",
"             --&===*##@o#====*#@++oO.oo++oo..oo.OooO-eQ~w*..O@@#+#@#*#@@#@@@#@@@@@@#@#o*==OO$.O$$+.++$$$$+++..           ",
"             ;-====*#@oo#=**=*#@@@o.ooo...o..oo...$o=;G~f*...@@@#*#*##*@##@@@#*@@*@@@@##**=...O$$+..+++++++..            ",
"             ;;====*#@oo#====*#@##.oooOooooo.oo...ooO-d~!w....@###@@@#O*##@*@@+*@@*$o@#O#**#..O$$+....+++..              ",
"              ;====*#@oo#====*#oooo.Oooooooo.ooo..ooo-s~~w*...@@@#@*@#@###@@@@@@@.o@O.###&=*-.O+$+.........              ",
"              q====*#@oo#====*#@@@ooOoooooo.oooo..ooo-wd~w*...@@@#@##@@@#####@#*@*@#@@##@*##*-.O$+........               ",
"              q====*#o@@o====**@@@ooooooo.o....o.oooOO;a~D:....@@@##@@@@@@#.@@@#@@##@@@#*###*=-O++.......                "
};
