/* XPM */
static char *shoot216826819951682682565[] = {
/* columns rows colors chars-per-pixel */
"130 92 88 1 ",
"  c None",
". c black",
"X c #0B0B0B",
"o c #170F07",
"O c #1F170B",
"+ c #131313",
"@ c #1B1B1B",
"# c #2B230F",
"$ c #332B13",
"% c #3F2F17",
"& c #232323",
"* c #272727",
"= c #2F2F2F",
"- c #373737",
"; c gray23",
": c #4B371B",
"> c #533F1F",
", c #5F4323",
"< c #6B4727",
"1 c #774F2B",
"2 c #7F532F",
"3 c #434343",
"4 c gray28",
"5 c gray31",
"6 c #9B0000",
"7 c #A70000",
"8 c #B30000",
"9 c #BF0000",
"0 c #8B2323",
"q c #972F2F",
"w c #9B3333",
"e c #A33B3B",
"r c #A73F3F",
"t c #CB0000",
"y c #D70000",
"u c #E30000",
"i c #EF0000",
"p c red",
"a c #FF1F1F",
"s c #FF3F3F",
"d c #9B5B13",
"f c #B74700",
"g c #AF7B1F",
"h c #875733",
"j c #8F5F37",
"k c #CB5707",
"l c #D75F0B",
"z c #AF4747",
"x c #B34F4F",
"c c #BB5757",
"v c #BF5B5B",
"b c #B37347",
"n c #BF7B4B",
"m c #FF5F5F",
"M c #CB7F4F",
"N c #C76363",
"B c #CB6B6B",
"V c #FF7B7B",
"C c #C39B2F",
"Z c yellow",
"A c #FFFF23",
"S c #D78B5B",
"D c #D7BB43",
"F c #FFA35B",
"G c #EFA373",
"H c #F7AB7B",
"J c #EBDB57",
"K c #FFFF73",
"L c #E78F8F",
"P c #FF9B9B",
"I c #FFB383",
"U c #FFBB93",
"Y c #FFBF9B",
"T c #F3A3A3",
"R c #F7ABAB",
"E c #FFB7B7",
"W c #FFBBBB",
"Q c #FFC7A7",
"! c #FFCFB3",
"~ c #FFD3BB",
"^ c #FFD7BB",
"/ c #FFDBC7",
"( c #FFE3D3",
") c #FFEBDB",
"_ c #FFEBDF",
"` c #FFFFD7",
"' c #EFEFEF",
"] c white",
/* pixels */
"                                                    NNvv                  vvNN                                                    ",
"                                                    NNvc                  cvNN                                                    ",
"                                                    vvcx                  xcvv                                                    ",
"                                                    vcxx                  xxcv                                                    ",
"                                                    ccxx                  xxcc                                                    ",
"                                                    cccx                  xccc                                                    ",
"                                                    bbbb                  bbbb                                                    ",
"                                                    bbbb                  bbbb                                                    ",
"                                                  ccbbbbccvv          vvccbbbbcc                                                  ",
"                                                  ccbbbbcccc          ccccbbbbcc                                                  ",
"                                                  cvnnnnvcxx          xxcvnnnnvc                                                  ",
"                                                  vNMMMnNvxz          zxvNnMMMNv                                                  ",
"                                          NvczaassNBSSSMBNssay      yassNBMSSSBNssaazcvN                                          ",
"                                          vcxzaassNSGGGSBNssau      uassNBSGGGSNssaazxcv                                          ",
"                                      vvcxxzeraassMSGHFSSMssaaiaccaiaassMSSFHGSMssaarezxxcvv                                      ",
"                                      ccxzrwweaassMSHIFFSMssaaiazzaiaassMSFFIHSMssaaewwrzxcc                                      ",
"                                      xzrew9yaaassmVIIHFmmssaaiueeuiaassmmFHIIVmssaaay9werzx                                      ",
"                                      zrewtyuiassmmVIIHFVmmssaiuyyuiassmmVFHIIVmmssaiut8qwrz                                      ",
"                                      rewyaaiassmmVVUUHGVVmmssaiaaiassmmVVGHUUVVmmssaut86qer                                      ",
"                                      eetuaaaassmmVPUYIHGVmmssaaaaaassmmVGHIYUPVmmssaay970qw                                      ",
"                                vvcxewayyuaassssmVGIQQYUHGVmssssaassssmVGHUYQQIGVmssssau9700qexcvv                                ",
"                                xxxzewyuuuaasssmmVHUQ!!QUHVmmsssaasssmmVHUQ!!QUHVmmsssaay9760wzxxx                                ",
"                            NNvxzreewtyuuiiaassmVVHU!^^!UHVVmssaaaassmVVHU!^^!UHVVmssaaiuy976qwerzxvNN                            ",
"                            NvczewqqttyyiiiiasmVVPIY^/(^QIPVVmsaiiasmVVPIQ^(/^YIPVVmsaiiiut8760qqezcvN                            ",
"                            vcxretttyyyyiiiiasmVPPY!/``(!YPPVmsaiiasmVPPY!(``/!YPPVmsaiiiuyt88770qexcv                            ",
"                            vczetyyyyyuuiiaaasmVPPY^(``(^YPPVmsaaaasmVPPY^(``(^YPPVmsaaaiiuyt99870qrxv                            ",
"                            cxzetyyyuiiiiaasasmVPPY^````^YPPVmsassasmVPPY^````^YPPVmsasaaiiuuyyt870exc                            ",
"                            cxzeyyyuiiiipaasasmVPPQ^````^QPPVmsassasmVPPQ^````^QPPVmsasaapiiiiut987wzc                            ",
"                          NvcxryuuyuiiaaiiaasmVVPRQ^````^QRPVVmsaasmVVPRQ^````^QRPVVmsaaiiaaiiut988wzcvN                          ",
"                          NvczauuuyyiiaaaiiasmVVPR!/````/!RPVVmsaasmVVPR!/````/!RPVVmsaiiaaaiuyt989ezcvN                          ",
"                            cxauuyyyiiaaaaaasmVVPE/(````(/EPVVmsaasmVVPE/(````(/EPVVmsaaaaaaiut989trxc                            ",
"                            cxzayyuuiaaaaaassmVPRW/)````)/WRPVmssssmVPRW/)````)/WRPVmssaaaaaau9899azcc                            ",
"                              zzauaaiassssssmmVPRW/_]]]]_/WRPVmmssmmVPRW/_]]]]_/WRPVmmssssssau99ttzz                              ",
"                              zzaassaasssssmmVPRW~(_]]]]_(~WRPVmmmmVPRW~(_]]]]_(~WRPVmmsssssaut9ttrz                              ",
"                      vvccxreeraiasssassmmmmVVPE~/(_]]]]_(/~EPVVmmVVPE~/(_]]]]_(/~EPVVmmmmssaayt99qwwerxccvv                      ",
"                      ccxxzrewyuismmsasmmmVVVPRW/()_]]]]_)(/WRPVVVVPRW/()_]]]]_)(/WRPVVVmmmsaaayt998qerzxxcc                      ",
"                    NvxzrrzzetyuismmsssmVVLPPREW/()_]]]]_)(/WERPPPPREW/()_]]]]_)(/WERPPLVVmssasayttt9ezzrrzxvN                    ",
"                    NvxzewrzetyuiassssmmVVPRREW/((__]]]]__((/WERRRREW/((__]]]]__((/WERRPVVmmsasaayyyyezrwezxvN                    ",
"                      czewrztyyuaaaaasmVVVTREW/(()__]]]]__)((/WERREW/(()__]]]]__)((/WERTVVVmsaaauyuuytzrwezc                      ",
"                      cxrerryyyuaasaasmVVPRWW/(()__']]]]'__)((/WWWW/(()__']]]]'__)((/WWRPVVmsaaaaauuyyrrerxc                      ",
"                  NNvcxzzrrauyyasssssmVVPRW~/(())_]]]]]]]]_))((/~~/(())_]]]]]]]]_))((/~WRPVVmssssaayuuarrzzxcvNN                  ",
"                  NvcxzzzzaaiuuaasmmsmVVTW~/())))_]]]]]]]]_))))(//())))_]]]]]]]]_))))(/~WTVVmsmmsaauuiaazzzzxcvN                  ",
"                  vcxzraaassaaaaaassmmVPRW/())````]]]]]]]]````))(())````]]]]]]]]````))(/WRPVmmssaaaaaassaaarzxcv                  ",
"                  cxzetyiassaaaaaassmmVPRW/)__````]]]]]]]]````__))__````]]]]]]]]````__)/WRPVmmssaaaaaassaiytezxc                  ",
"        NNvvvvccvcxze9tuiaaaaaaassmmmVVPE~(_]]]]]]]]````]]]]]]]]__]]]]]]]]````]]]]]]]]_(~EPVVmmmssaaaaaaaiut9ezxcvccvvvvNN        ",
"        Nvvccccccxzr9tyuiiaaaaaassmmmVPRW/(_]]]]]]]]````]]]]]]]'(/('']]]]]````]]]]]]]]_(/WRPVmmmssaaaaaaiiuyt9rzxccccccvvN        ",
"        vcxxxxxxxzew9yuiiiiiiaaasmmVVVRW~/(_]]``]]]]````]]]]`]]'TBBT(`]]]]````]]]]``]]_(/~WRVVVmmsaaaiiiiiiuy9wezxxxxxxxcv        ",
"        cxzrrrrrrewqtuiiiiaaiasssmVVPPW/(()_]]`````````````````'B&.b/````````````````]_)((/WPPVVmsssaiaaiiiiutqwerrrrrrzxc        ",
"          ewwwwwqqq9uiaaiaaaaasmmmVLRW/(__````]``KKKKKKK^KKKKK`/b..B(``KKKKKKK^KKKKK````__(/WRLVmmmsaaaaaiaaiu9qqqwwwwwe          ",
"          qqqqqqq89yuiaaaassasmmmVLTE/(_''``(()(KAAAKKKKKKAAAK^!b..b/`KAAAKKKKKKAAAK^//(_'_(/ETLVmmmsassaaaaiuy98qqqqqqq          ",
"      re0777889tyyuuiiiassaassmVVVPR~/)_```(QHUUJAAAAAAAAAAAJJKJj..jUKJAAAAAAAAAAAJJJHHQ(`_)/~RPVVVmssaassaiiiuuyyt9887770er      ",
"      req7789ttyuiiiiiiassaassmVVVTW/()_``(QGCCDJJAAAAAAAAAAJJJDj..jDJJJAAAAAAAAAAJJDCCGQ/))(/WTVVVmssaassaiiiiiiuytt9877qer      ",
"        qq89tyyuuiaaiiaaaassassmmVRW/()`]_RSngCCDJJJAZZZZAJJJDDC2..2CDDJJJAZZZZAJJJDDCgnST/)(/WRVmmssassaaaaiiaaiuuyyt98qq        ",
"        eq89tyuuuiaaaaaaasssaassmVR~()``'~BddgCCDDJJAAAAAAJJDDDC1..1CDDDJJAAAAAAJJDDCCgddnQ/((~RVmssaasssaaaaaaaiuuuyt98qe        ",
"    ccvxrf8ffkuuiassaaaasssassmmVVR~()`(TBjddggCCDDJJJJJJJJDDCCC<..<CCCDDJJJJJJJJDDCCggddjbT/(~RVVmmssasssaaaassaiuukff8frxvcc    ",
"    ccvcrf9fkkaiiassaaaassassmmVVPE/(_`^n<<2hdggCCDDJJJJJJDDCCCg,..,gCCCDDJJJJJJDDCCggdh211B~(/EPVVmmssassaaaassaiiakkf9frcvcc    ",
"  vvccclkyyuaaaaaaaaaaaaaassmVVPPR~/()`^n,<2hjdggCCDDDDDDDDCCggg,..,gggCCDDDDDDDDCCggdjh2<<B~(/~RPPVVmssaaaaaaaaaaaaaauyyklcccvv  ",
"  vvcxlkyuuiaaaaaaaaaassssmmVPPREW/())/Rb,<12hhdgggCCDDDDCCggggd>..>dggggCCDDDDCCgggdhh21<,bT///WERPPVmmssssaaaaaaaaaaiuuyklxcvv  ",
"NNvcxkkyuiiiaaaaaasssssmmmVVPPYQ~/(``/Tb5:,<122hjjjggCCCCggjjhh1%..:ddjjjggCCCCggjjjh221<,:5bL/(/~QYPPVVmmmsssssaaaaaaiiiuykkxcvNN",
"NNvcxkkyuiiaaaaaaasssmmmVVVPPRQ~/(```/B;&%:,<11122hjjggggjj2111,$..%12112jjggggjjh22211<,>%&;B/`(/~QRPPVVVmmmsssaaaaaaaiiuykkxcvNN",
"NNvvcclkyuiassaaaassmmVVVVPPYQ~/(````^b-#$%>,<<<<1112222211<<<<,$..%<1<<<11222221111<<<,>:*@=b^``(/~QYPPVVVVmmssaaaassaiuyklccvvNN",
"NNNvvvclkuiassaaaassmmVVVVPPQ!^()```/Rb=#$$%>>,,,<<<<<<<<,,,,,,>$..%,<,,,,,<<<<<<<<<<,,>>%*&=bR/))(^!QPPVVVVmmssaaaassaiuklcvvvNNN",
"NNNNvvccllaaaaaaaasssmmmVVPPY!^/()`(Tb5$###$%:>>,,,,>>>>>>>>>,,>#..$,<,>>>>>>>>>,,,,,>>>;-=&&5bL/(/^!YPPVVmmmsssaaaaaaaallccvvNNNN",
"NNNNvvvcclsaaaaaaassssmmmVVPUQ!~/()^B;&#####$%::::::::::>>>>>>>:#..$,<,>>>>::::::::>>>:-;-=&@@;B!/~!QUPVVmmmssssaaaaaaaslccvvvNNNN",
"      vvvcllaaaaaaasssssmmmVVPRE!^/!b-&##OOO#$%%%::::%%%::---;>:#..$,,,>::::%:::::::-;;;;-=*@@-bT!ERPVVmmmsssssaaaaaaallcvvv      ",
"      vvccxlaaaaaaaasssssssmVVVPRQQLj-$#OoXoO###$$$$%$$%%:---;>:#..$>,>::%%$$$$%%%%%--;;;;-=&&-jLTPVVVmsssssssaaaaaaaalxccvv      ",
"      vcxxzzaaaaaaaasssaaassmmVVLLBj5$##OXXXXoOOO##&&**=------:%#XX$>,>:$##OOO#&***==--;;;;-*&&4jBVVmmssaaasssaaaaaaaazzxxcv      ",
"      vcxzrzaaaaaaaassssaaassmmVLLj;*##OoXXX..XX++@@&&*=------:%#XX$>,:%#Ooo.X+@&&**==--;;3;=&@&;zNmmssaaassssaaaaaaaazrzxcv      ",
"      vczrw9uiiassaaassssaiassmVPLj;*##OoX....XX++@@&**=------%$OXX$>>:%#OOoX.X+@&&*==--;;3;-*@&-jBmssaiassssaaassaiiu9wrzcv      ",
"      vczeqtuiiaaaaiassssaaasmVVLBj-$#OoXX....XX++@@&**=------%$OXX#:>:$#OOoX..X+@&*==--;;;;-=&&-hNmssaaassssaiaaaaiiutqezcv      ",
"    xxcxze8taaaaaaiiiaaaaaassmVVNj3$##OXXX....XX++@@&**=------%#OXX#::%#OOOoX..X+@&*===--;;;-=*&&;hxmssaaaaaaiiiaaaaaat8ezxcxx    ",
"    cxxxzeqyaaaaaaaiiiiiaaassmVBz-&##OoXXX...XX+++@@&**=------=#OXX#::$#OOOoX..X+@&**===--;;;-*@@@-emssaaaiiiiiaaaaaaayqezxxxc    ",
"  NNvcxzzr  uuiaasaappppaaaasmmNr-*#OOoXXX..XX++++@@&*==------*&+XX#%:$#OOOoX..X+@&&**==---;;;=&@&-esssaaappppaasaaiuu  rzzxcvNN  ",
"  NNvcxzzz  yyuaasaaappaaaaassmch-*#OoXXXX..XX+++@@@&*==-----=*@+XX#%%$#OOOOX..X+@&&**==---;3;=*&&-2zsaaaaappaaasaauyy  zzzxcvNN  ",
"  vvvv      yyuiaaaaaaaaaaaassz2>*##OXXXXX..XX++@@@@&*===----=&@+XXO$%$#OOOOoX.X+@&&**===--;3;-=*&&:qeaaaaaaaaaaaaiuyy      vvvv  ",
"  vvvv      yyyuiiiiaaaaaaaassw=&##OoXXXXX..XX++@@@@&*====--=*&@+XXO$$##OOOOoo.X+@@&**====-;;3;;=@@@=qaaaaaaaaiiiiuyyy      vvvv  ",
"  NNvvvcxrw9tyyuiiaaaaaaaaaassq&###OoXXX....XX++@@@@&*====--=*&@+XXO####OOOOoo..X+@&&*====-;;343=@@@=qaaaaaaaaaaiiuyyt9wrxcvvvNN  ",
"  NNvvvcxrq99tyyuiaaiiaaaaaasz0###Oo+XXX....XX++@@@@&*====--=*&@+XXo####OOOOoo...X+@&*====--;343=@@@*0eaaaaaiiaaiuyyt99qrxcvvvNN  ",
"    vvvczeq09tyyuiiiiiiassaaeq:###O+++XX....XX++@@@@&*====--=*&@+XXo####OOOOoo...X+@&*=====-;;43=&@@@:0essaiiiiiiuyyt90qezcvvv    ",
"    vvvczeq08tyyuuiiiiiassaeq-*##OoX++XX....XX++@@@@&*====--=*&@+XXo####OOOOoo...X+@&**=====-;33-*&@@&-wsaaiiiiiuuyyt80qezcvvv    ",
"        zrwq89yyuuuuiiaaaare<-=##OoX++XX..XXXX++@@@@&*=======*&@+XXo####OOOOoo...X+@&&**====-;33;=*&@*-waaaaiiuuuuyy98qwrz        ",
"        xzreq9ttyuuyaaaaike13-=#Oo++++XX..XXXX+@@@@@&*=======*&@+XXo####OOOOooX..X+@&&**====-;333;=&&*-1eaaaiiuuuytt9qerzx        ",
"        ccxx  qw  yter    13-*$#O+++++XX..XXX++@@@@@&*=======*&@+XXo####OOOOooXX.X+@@&&*====-;3443=&@@*>1eaiiuyy  wq  xxcc        ",
"        vvcc  qq  tfeh    3;=##OoX++++XX..XXX+@@@@@@&*=======*&@+XXo####OOOOOoXX.X+@@@&*====-;3454-&@@@*;qtuuytt  ww  ccvv        ",
"                          3;=##OoX+++XX...XXX+@@@@@@&*=======*&@+XXo####OOOOOoXX..X+@@&*====-;3454-&@++&-qwyyt99  ee              ",
"                          ;-=#Oo++++XX....XXX+@@@@@@&*=======*&@+XXo####OOOOOOoX...X+@&*====-;3454-*&@X@-<q99999  rr              ",
"                        --=$$#O+++@++X....XXX+@@@@@@&*=======*&@+XXo####OOOOOOoX...X+@@&*===-;;343;=*@X+*:<0                      ",
"                        ;-*##OoX++@++X....XXX+@@@@@@&*=======*&@+XXo####OOOOOOoX...X+@@&*===--;;333;*@+X@*-;                      ",
"                        3;=##OoX++++XX..XXXXX+@@@@@@&*=======*&@+XXo####OOOOOOoX...X+@@@**===-;;3443=@+XX&-;                      ",
"                        ;-=#Oo++++++XX..XXXXX+@@@@@@&*=======*&++XXo####OOOOOOoX...X+@@@&*====-;3454;*@+X@-;                      ",
"                      --=*$#O+++@@++XX..XXXXX+@@@@@@&*=======*@+XXXo####OOOOOOoX...X+@@@&*====-;34553;*+X+*=--                    ",
"                      -=*###oX++@@++XX..XXXXX+@@@@@@&*=======*@+XXXo####OOOOOOoX...X+@@@&*====-;34554;*+XX@*--                    "
};
