/* XPM */
static char *shoot116826819951682682565[] = {
/* columns rows colors chars-per-pixel */
"110 74 78 1 ",
"  c None",
". c black",
"X c #0B0B0B",
"o c #170F07",
"O c #1F170B",
"+ c #131313",
"@ c #1B1B1B",
"# c #2B230F",
"$ c #332B13",
"% c #3F2F17",
"& c #232323",
"* c #272727",
"= c #2F2F2F",
"- c #373737",
"; c gray23",
": c #4B371B",
"> c #533F1F",
", c #5F4323",
"< c #6B4727",
"1 c #774F2B",
"2 c #7F532F",
"3 c #434343",
"4 c gray28",
"5 c gray31",
"6 c gray34",
"7 c #5B5B5B",
"8 c #6F6F6F",
"9 c #B30000",
"0 c #BF0000",
"q c #8B2323",
"w c #972F2F",
"e c #A33B3B",
"r c #A73F3F",
"t c #CB0000",
"y c #D70000",
"u c #E30000",
"i c #EF0000",
"p c red",
"a c #FF1F1F",
"s c #FF3F3F",
"d c #AF7B1F",
"f c #8F5F37",
"g c #C34F00",
"h c #CB5707",
"j c #D75F0B",
"k c #DF670F",
"l c #EB6F0F",
"z c #F37317",
"x c #FF7F1B",
"c c #AF4747",
"v c #B34F4F",
"b c #BB5757",
"n c #BF5B5B",
"m c #B37347",
"M c #FF5F5F",
"N c #C76363",
"B c #FF7B7B",
"V c #C39B2F",
"C c #FF8F3B",
"Z c #EBDB57",
"A c #E78F8F",
"S c #FF9B9B",
"D c #FFBF9B",
"F c #F7ABAB",
"G c #FFB7B7",
"H c #FFBBBB",
"J c #FFC7A7",
"K c #FFD3BB",
"L c #FFD7BB",
"P c #FFFFB3",
"I c #FFDBC7",
"U c #FFDBDB",
"Y c #FFE3D3",
"T c #FFEBDB",
"R c #FFEBDF",
"E c #FFFFD7",
"W c #EFEFEF",
"Q c white",
/* pixels */
"                                        cccccc                  cccccc                                        ",
"                                        rrrrcr                  rcrrrr                                        ",
"                                      bvewweeew9              9weeewwevbai  ii                                ",
"                                      bvrwwweeww              wweewwwrvbai  uu                                ",
"                                nnbbnnnbcewqweeecccvbn  nbvccceeewqwecbbaiiuyt                                ",
"                                nnbbbbbvce99ererrccvbn  nbvccrrere99rcbsaiiiyt                                ",
"                        cccc  mmnbbvvvvcrtyuaaeerccvbbbbbbvccreeaauuaassaaaaihmm  cccc                        ",
"                        cccc  mmnbbvccccauiaaaaerccvbbbbbbvccreaaaaiiaaaaaaaaamm  cccc                        ",
"                        tttghhjksskksaaaaaaaaaaaaaaskksskksaaaaaaaaaaaaaaaaaaakjhhgttt                        ",
"                        eyyahjjjaakkaaaaaaaaaaaaaaaskkaakksaaaaaaaaaaaaaaaaaaajjjhayye                        ",
"                      ccccaaaaaaaazzaassaaaaaaaasssszzaazzssssaaaaaaaassaassaaaaaaaacccc                      ",
"                      ccccaaaaaaszzzsssssaaaaaassssszzaazzsssssaaaaaassssassaaaaaaaacccc                      ",
"                  nnnb  ccaaaaaszzzsssMMssaaaasssssssaaaasssssssaaaassMMssaassaaaaaacc  bnnn                  ",
"                  vvvv  ccaaaaaszzzsssMMssssssssssssaaaaaassssssssssssMMssasssaaaaaacc  vvvv                  ",
"                vcreerccccaaaaaaszxxssssMMMMMMMMsssaaazzaaasssMMMMMMMMsssassssaaaaaaccccreercv                ",
"                vcewwwrrrcaaaaaaasCCsssMMMBBBBMMMssaaszzsaassMMMBBBBMMMssassssaaaaaacrrrwwwecv                ",
"                vce000www0yuiaaassssssMMBBBSSBBBMMssssssssssMMBBBSSBBBMMssssssaaaiuy0www000ecv                ",
"                crtttttttttyaaaassssMMMBBBSSSSBBBMMMssssssMMMBBBSSSSBBBMMMssssaaaaytttttttttrc                ",
"              vcrwttyuuuautyaaaassMMMBBBBSFGGFSBBBBMMMssMMMBBBBSFGGFSBBBBMMMssaaaaytuauuuyttwrcv              ",
"              vce0tyyuuiaayyaaaassMBBASSSFGHHGFSSSABBMssMBBASSSFGHHGFSSSABBMssaaaayyaaiuuyyt0ecv              ",
"          nbvvvce0tyyyyuiiuuaaiasMMBSFFGHIIUUIIHGFSSBMMMMBSSFGHIIUUIIHGFFSBMMsaiaauuiiuyyyyt0ecvvvbn          ",
"          bbvcvcwtyyyyyuiiiiiiiasMBBSGHIYTURRRTYIHFSBBMMBBSFHIYTUUUUTYIHGSBBMsaiiiiiiiuyyyyytwcvcvbb          ",
"        nbvcre  ttyuyyyuiiaaaaaasMBSFHIYTTWWWWRTYKGSBBMMBBSGKYTRWWWWRTYIHFSBMsaaaaaaiiuyyyuytt  ercvbn        ",
"        bvcrew  yyuuuuuuiiaaaaassMBSFHYTEEWWQQEETIHSBBMMBBSHITEEWWWWEETYHFSBMssaaaaaiiuuuuuuyy  wercvb        ",
"      vvcre00tyuuuaaiiiiiiaassssMMBSFKYEEEQQQQEETIHFSBMMBSFHITEEEEEEEEEYKFSBMMssssaaiiiiiiaauuuyt00ercvv      ",
"      vcew9tyyuuiaaaaiiaaassMMMMMBASGKYEEEQQQQEEYIKGSBBBBSGKIYEEEEEEEEEYKGSABMMMMMssaaaiiaaaaiuuyyt9wecv      ",
"      crww0tyyuiaaaaaaaasssMBBBBBASFHIYEEEQQQQEETYIHSSSSSSHIYTEEQQQQEEEYIHFSABBBBBMsssaaaaaaaaiuyyt0wwrc      ",
"      vcww0tyuiiaaaaaaaassMBBSSASSSFKIYTEEQQQQEETYYKFAAASGKYYTEEQQQQEETYIKFSSSASSBBMssaaaaaaaaiiuyt0wwcv      ",
"    NnbvretyyuiiiaaaaaaassMMBSSFFFGHKIYRQQQQQQEEETYKA88AFHIYTEEEQQQQEPYYIKHGFFFSSBMMssaaaaaaaiiiuyytervbnN    ",
"    NnnbcrtyuiaaaaaaaaaassMBBSFGHHHHHJKIYRRRRTYILIYK8;58FKKKLLIYTRREPLLKIIKHHGGFSBBMssaaaaaaaaaaiuytrcbnnN    ",
"    nnnbbvayuaasaapaaaaasMMBSSFGHKIKANAAADJJJJDAADIL8&-8HKAAAAADJJJDZZAAKYYIKHGFSSBMMsaaaaapaasaauyavbbnnn    ",
"    nnnnnbsuiaasaappaaaasMBSSFGHFJHFmfddVVZZZZVddmJF8*38FFmfddVVZZZZVddmFKKKKKHGFSSBMsaaaappaasaaiusbnnnnn    ",
"      nnnbsaaaaaaiiiaaassBSFFGHFAmmmf2fddVVVVVVdff885-6888f2fddVVVVVVdffmNNAKIKHGFFSBssaaaiiiaaaaaasbnnn      ",
"      nnnnsaaaapiiiaaaasMBSFGHFAm<<112ffdddVVddf2<>*@-66-%<2ffdddVVddf211<1mAJKKHGFSBMsaaaaiiipaaaasnnnn      ",
"      nnnnsaaaaaaaaaaaasMBAFHFA81,,,<12ffffffff21,:&+@==&%,12ffffffff21<,,,28AJIKHFABMsaaaaaaaaaaaasnnnn      ",
"      nnnbsaaaaaaaaaaassMBAFFA8;:>>,,<1122222211<,-*+..o#%,<1122222211<<<,,>>8AKKKFABMssaaaaaaaaaaasbnnn      ",
"      bbbkaaaaaaaasssssMMBSFA84$%:>>>>>,,<<<<,,,,>-*+..o#%>,,,<<<<<<,556653-=48AKKJSBMMsssssaaaaaaaakbbb      ",
"      bbkkaaaaaaasssMMMBBSDF8;*$%::::%%%::::>>>>>:=*+..o#%:::::::::>;456764-=&;8JIKDSBBMMMsssaaaaaaakkbb      ",
"NNNNnnnnzlaaaaaassMMMBBBSDJF8-&$%%%$$$##$$$=------=*+..o#$%%%%%%$$=--;45774;=&=8FIKJDSBBBMMMssaaaaaalznnnnNNNN",
"NNNNnnnnzzsaaaaassMMBBBSDDFA8-&#$$###O++@@&*=-----=*+..o#$$$$$##@&*==;357753=&=8AJKKJDSBBBMMssaaaaaszznnnnNNNN",
"NNnnNnbkzzssaaaasMMBBBSSDDA85*#OOOooo+++@@&*=-----=*+..o#####OO+@@*==-346653-**58AJKJDSSBBBMMsaaaasszzkbnNnnNN",
"NNnnNNkklzssaaaasMMBBBSSDA8;*#OoXX..XX++@@&==-----=*+..oO###O+.X+@&*=-;45554;=**;8FKJDSSBBBMMsaaaasszlkkNNnnNN",
"NNnnNNkklzzzaaaassMMBBBSSA8-*#OX....XX++@@&==-----=&+..oO###OX..X+@&==-;4443;=*&-8FKGSSBBBMMssaaaazzzlkkNNnnNN",
"NNnnnnkjjklkaaaasssMMMMBANf=$#OX....X+++@&&==-----=&+..oO###O+X..X+&*=-;3443;-*&=8AFSBBMMMMsssaaaaklkjjknnnnNN",
"    mmhggghjaiiaaassssssnf4$##OX....X++@@&*==-----=&+..oO###OOoX.X+@*=-;3333;-=&&58NMMssssssaaaiiajhggghmm    ",
"    mmcg90gguuiiiaaaaaase;*##OoX...X+++@&&*==-----=&+..oO###OOoo.X+@&==-;333;-=&@&;essaaaaaaaiiiuugg09gcmm    ",
"    nbvrw0tyuuuiaaaaaasse;=##OoX..XX+++@&&*==-----=&+..oO###OOoo.X+@&*=--;;;;-=*@&-waassaaaaaaiuuuyt0wrvbn    ",
"    nbvce0tyyuuiaaaaassc2-*#OoXX..XX+++@&&*==-----=&+..o####OOoo.X+@&*===-;;;;-=&&-<eassaaaaaaiuuyyt0ecvbn    ",
"      bvrw0tyuuiiiiassc2>$##OXXX..XX++@@&&*==-----=&+XXo####OOoo.X+@&**===-;;;;-=&&:weaassaiiiiuuyt0wrvb      ",
"      bvcrw0tyuiuuiaase;*##OoXXX..XX++@@&&*==----==&+XXo####OOOo.X+@&&**==--;;3;=&@&;eaasaaiuuiuyt0wrcvb      ",
"        vvrett  tyaaaaw;=##OoX....XX++@@&**==----=*@+XXo####OOOoX.X+@&&*==--;;3;=*@&;essaaaayt  ttervv        ",
"        bbcret  0yaaaw1-=#OoXX....XX++@@&**==----=*@+XXo####OOOoX..X+@&*==--;;;;-=&&-2csaiaay0  tercbb        ",
"        nbbv      utwq:$$#OXXX....XX++@@&**==----=*@+XXo####OOOoX..X+@&*====-;;;-=*&&:weaiuu      vbbn        ",
"        nnnn      y0w-*##OoXXX...XX+++@@&**=-----=*@+XXo####OOOoX..X+@&*====--;;;-*@@&-wyiuy      nnnn        ",
"                bva0w-*#OOoXXX..XX++++@@&*==-----=*@+XXo####OOOoX..X+@&&*===---;;;=&@&-waiuavb                ",
"                bvew<-*#OoXXXX..XX+++@@@&*==-----=*@+XXo####OOOOX..X+@&&**==---;3;=*&*-wwyacvb                ",
"                  w<:*##OXXXXX..XX++@@@@&*====--==&@+XXo####OOOOoX.X+@&&**====-;3;-=*&&:qecv                  ",
"                  ==$##OoXXXXX..XX++@@@@&*====--==&@+XXo####OOOOoo.X+@@&**====-;;3;;=@@@=1vb                  ",
"                  &*$##OoXXX....XX++@@@@&*====--==&@+XXo####OOOOoo..X+@&&*====-;;343=@@@=1vn                  ",
"                  ##$#Oo+XXX....XX++@@@@&*====--==&@+XXo####OOOOoo...X+@&*====--;343=@@@=<rv                  ",
"                -=$###O+++XX....XX++@@@@&*====--==&@+XXo####OOOOoo...X+@&*=====-;;43=&@@@-<1                  ",
"                ;-*##OoX++XX....XX++@@@@&*====--==&@+XXo####OOOOoo...X+@&*======-;33=*&@@&-;                  ",
"                3;=##OoX++XX..XXXX++@@@@&*========&@+XXo####OOOOoo...X+@&&*=====-;33;=*&@*-;                  ",
"                ;-=#Oo++++XX..XXXX+@@@@@&*========&@+XXo####OOOOooX..X+@&&**====-;333;=&&*-;                  ",
"              3;=*$#O+++++XX..XXX++@@@@@&*========&@+XXo####OOOOooXX.X+@@&&*====-;3443=&@@*=;3                ",
"              3;=##OoX++++XX..XXX+@@@@@@&*========&@+XXo####OOOOOoXX.X+@@@&*====-;3454=&@@@=;3                ",
"              3;=##OoX+++XX...XXX+@@@@@@&*========&@+XXo####OOOOOoXX..X+@@&*====-;3454=&@++&;3                ",
"              ;-=#Oo++++XX....XXX+@@@@@@&*========&@+XXo####OOOOOOoX...X+@&*====-;3444-*&@X@-;                ",
"            --=$$#O+++@++X....XXX+@@@@@@&*========&@+XXo####OOOOOOoX...X+@@&====-;;343;=*@X+*=--              ",
"            ;-*##OoX++@++X....XXX+@@@@@@&*========&@+XXo####OOOOOOoX...X+@@&*===--;;333;=@+X@*-;              ",
"            3;=##OoX++++XX..XXXXX+@@@@@@&*========&@+XXo####OOOOOOoX...X+@@@*====-;;3443=@+XX&-3              ",
"            ;-=#Oo++++++XX..XXXXX+@@@@@@&*=======*&++XXo####OOOOOOoX...X+@@@&*====-;3454;*@+X@-;              ",
"          --=*$#O+++@@++XX..XXXXX+@@@@@@&*=======*@+XXXo####OOOOOOoX...X+@@@&*====-;34553;*+X+*=--            ",
"          -=*###oX++@@++XX..XXXXX+@@@@@@&*=======*@+XXXo####OOOOOOoX...X+@@@&*====-;34554;=+XX@*=-            "
};
