/* XPM */
static char *shoot016826819951682682565[] = {
/* columns rows colors chars-per-pixel */
"116 110 51 1 ",
"  c None",
". c black",
"X c #070707",
"o c #0B0B0B",
"O c #170F07",
"+ c #171F07",
"@ c #1F170B",
"# c #131313",
"$ c #1B1B1B",
"% c #2F1B0B",
"& c #2B230F",
"* c #372313",
"= c #332B13",
"- c #3F2F17",
"; c #232323",
": c #272727",
"> c #2F2F2F",
", c #373737",
"< c gray23",
"1 c #432F1B",
"2 c #43331B",
"3 c #533F1F",
"4 c #4F3B23",
"5 c #5F4323",
"6 c #574333",
"7 c #5F4B37",
"8 c #774F2B",
"9 c #7F532F",
"0 c #67533F",
"q c #434343",
"w c gray28",
"e c gray31",
"r c gray34",
"t c #5B5B5B",
"y c #775F4B",
"u c gray39",
"i c gray42",
"p c #6F6F6F",
"a c #777777",
"s c gray50",
"d c #875733",
"f c #8F5F37",
"g c #9B633B",
"h c #836B57",
"j c #8B735B",
"k c #838383",
"l c #8B8B8B",
"z c #939393",
"x c #979797",
"c c #A7A7A7",
"v c gray70",
/* pixels */
"                                                          <wtu                                                      ",
"                                                          ,qet                                                      ",
"                                          rrewwwwwwwwwww  :>qw  >>>>,,,<qweerr                                      ",
"                                          wwq<<<qqqqqqqq  $:,,  :::>>>,<qwerrr                                      ",
"                                      q<:;:>::>>>><<<<<<,:$;>>;#$$$$;:><qwrrtrewqq                                  ",
"                                      <,;#XX##$$;:>,<<<,>:$$::;@OO##$;>,<wertrewqq                                  ",
"                                    q<>:$X..o#$$;:>,,,,,>:$o#$&&@O##$$:><qwrttewq<qq                                ",
"                                    <,:@X..X##$$;:>,,,,,>:#..O&&@O###$;:,<qettrwq<<<                                ",
"                                  q<>:$OX..X##$$;:>,,,,,>:#..O&&@O##o#$:><qwrtreq,>><q                              ",
"                                  q<>&OX...X##$$;:>,,,,,>:#..O&&@@##Xo$:>,<wertrw,>><q                              ",
"                                  q<>&OX..Xo##$$;:>,,,,,>:#..O&=&@##Xo$;>,,<wettw<>>,<                              ",
"                                  <,:@OX..Xo##$$;:>,,,,,>:#..O&=&&@#Xo#;:>><qetteq>>>,                              ",
"                                q<>:&@OX..Xo##$$;>>,,,,,>:#..O&&&&@#Xo#$:>>,qwrrew,>:><q                            ",
"                                q<>&@OoX..Xo##$$;>>,,,,,>:#..O@&&&@#XX#$;:>,<weeew<>:><q                            ",
"                                <,>&@oX...Xo##$$;>>,,,,,>;#..O@&&&@#X.X#$;>>,<wwww<>:>,<                            ",
"                                ,>=&@X....o###$;;>>,,,,,>;#..O@&&&@#o..o#;:>,<qwwq<,::>,                            ",
"                              q<>==&@X...Xo##$$;:>>,,,,,>;#..O@&&&@@OX.o#$:>,<qqqq<,>;;><q                          ",
"                              q<>&&@OX...X###$;;:>>,,,,,>;#..O@&&&@@OOXo#$;>>,<qqq<,>;$:<q                          ",
"                              q<>&&@OX..Xo###$;;:>>,,,,,>;#..O@&&&@@OOXo#$;:>,,<<<<,>:$:<q                          ",
"                              <,>&@OoX..Xo###$;;:>>,,,,,>;#..O&&&&@@OOXo#$;:>>>,<<<<,>;:,<                          ",
"                            q<>==&@ooX..Xo##$$;;:>>,,,,,>;#XXO&&&&@@OOXo#$;::>>>,<<<<,>;;><q                        ",
"                            q<>&&@OoXX..Xo##$$;;:>>,,,,>>;#ooO&&&&@@@OXX#$;;::>>,,<<q<>;$:<q                        ",
"                            q<>&&@OoX...Xo##$$;::>>,,,,>:$#ooO&&&&@@@OX.X#$;;:>>,,<<q<>:$:<q                        ",
"                            <,>&@OoX....Xo##$$;::>>,,,,>:$#ooO&&&&@@@OX..o#$;:>>,,<<<<,>;:,<                        ",
"                          ,,>==&@ooX....Xo##$$;::>>,,,,>:$#ooO&&&&@@@OX..o#$;:>>>>,<<<,>:;;:>,                      ",
"                          <,:&&@OooX...Xo###$$;::>,,,,,>:$#ooO&&&&@@@OX..o#$;:>>>>,,<<<,:$$;,<                      ",
"                          q<>&@@OooX..Xo####$$;:>>,,,,,>:$#ooO&&&&@@@OX..o#$;;:>>>,,,<<<>;$:<q                      ",
"                          <,:&@OoooX..Xo###$$$;:>>,,,,,>:$#ooO&&&&@@@@o..o#$;;::>>,,,<q<>:;:,<                      ",
"                        ,,>:&&@ooooX..Xo##$$$$;:>>>>,,>>;$#ooO&&&&@@@@OX.o#$;;::>>>>,<q<,>:;;:>,                    ",
"                        >>=&&@OooooX..Xo##$$$$;:>>>>,,>>;$#ooO&&&&@@@@OOXX#$$;::>>>>,<<q<<>$$;>,                    ",
"                        :==&&@OoooX...Xo##$$$$;:>>>>,,>>;$#ooO&&&&@@@@OOX.X#$;;:>>>>,<<qwq>$$;>,                    ",
"                        &&=&@O#ooX....Xo##$$$$;:>>>>,,>>;$#ooO&&&&@@@@OOX..o#$;:>>>>,,<qww>$$$>>                    ",
"                      ,>=&&&@###oX....Xo##$$$$;:>>>>,,>>;$#ooO&&&&@@@@OOX..o#$;:>>>>>,<<wq>;$$$:>,                  ",
"                      <,:&&@Oo##oX...Xoo##$$$$;:>>>>,,>>;$#ooO&&&&@@@@OOX..o#$;:>>>>>>,<qq>:;$$;,<                  ",
"                      q<>&&@Oo##oX..Xooo##$$$$;:>>>>>>>>;$#ooO&&&&@@@@OOX..o#$;;:>>>>>,<qq<>:;$><q                  ",
"                      <,>&@O####oX..Xooo#$$$$$;:>>>>>>>>;$#ooO&&&&@@@@OOX..o#$;;::>>>>,<qwq<>;;:,<                  ",
"                    q<>:=&@#####oX..Xoo##$$$$$;:>>>>>>>>;$#ooO&&&&@@@@OOoX.o#$$;;:>>>>,<qwwq>;$$:><q                ",
"                    q<>&&@Oo####oX..Xoo#$$$$$$;:>>>>>>>>;$#ooO&&&&@@@@@OoX.X#$$$;:>>>>,<qwew>;$$$><q                ",
"                    q<>&&@Oo###oX...Xoo#$$$$$$;:>>>>>>>>;$#ooO&&&&@@@@@OoX..X#$$;:>>>>,<qwew>;$##;<q                ",
"                    <,>&@O####oX....Xoo#$$$$$$;:>>>>>>>>;$#ooO&&&&@@@@@@OX...o#$;:>>>>,<qwww,:;$o$,<                ",
"                  ,,>==&@###$##X....Xoo#$$$$$$;:>>>>>>>>;$#ooO&&&&@@@@@@OX...o#$$;>>>>,<<qwq<>:$o#:>,,              ",
"                  <,:&&@Oo##$##X...Xooo#$$$$$$;:>>>>>>>>;$#ooO&&&&@@@@@@OX...o#$$;:>>>,,<<qwq<>$#o$:,<              ",
"                906<>&&@Oo####oX..Xoooo#$$$$$$;:>>>>>>>>;$#ooO&&&&@@@@@@OX...o#$$$:>>>>,<<qwwq>$#oo;,q              ",
"                876,>&@O######oX..Xoooo#$$$$$$;:>>>>>>>:;##ooO&&&&@@@@@@OX...o#$$$;:>>>>,<qwew<:$#X$,<              ",
"                66,:=&@###$$##oX..Xoooo#$$$$$$;:>>>>>>>:$#oooO&&&&@@@@@@OX...o#$$$;:>>>>,<qweeq<:#X#:>,,            ",
"                ,>:&&@Oo##$$##oX..Xoooo#$$$$$$;:>>>>>>>:$#oooO&&&&@@@@@@OX...o#$$$;:>>>>,<<weeew>$Xo$:>,            ",
"                ,>=&&@Oo##$$#oX...Xoooo#$$$$$$;:>>>>>>>:$#oooO&&&&@@@@&@OX...o#$$$;:>>>>,,<qwrte,$o.o$>,            ",
"                >>=&@O###$$$#X....Xoooo#$$$$$$;:>>>>>>>:$#oooO&&&&@@@@&&@X...X#$$$;:>>>>,,<qwrutq:#..#:>            ",
"              ,>>=&&@###$$$$#X....Xoooo#$$$$$$;:>>>>>>>:$#oooO&&&&@@@&&&@X...X#$$$$;:>>>>>,<wruue,;o.o$:>,          ",
"              ,,=&&@Oo##$$$$#X...Xooooo#$$$$$$;:>>>>>>>:$#oooO&&&&@@@&==$X...X##$$$$;:>>>>,<wruirw>#XX#;,<          ",
"              42-&&@Oo##$$$$#X..Xoooooo#$$$$$$;:>>>>>>>:$#oooO&&&&@@@;>>$X...X##$$$$;:>>>>,<qruiue<$o.X;<q          ",
"              42-&@@###$$$$$#X..Xoooooo#$$$$$$;:>>>>>>>:$ooooO&&&&@@@;>>$X...X##$$$$;:>>>>,<qeupiuw>$o.$,<          ",
"            22--=&@@##$$$$$$o...Xoooooo#$$$$$$;:>>>>>>>:$XoooO&&&&@@@:<,;X...X##$$$$;:>>>>,<qeupapr<:$o#;>>>        ",
"            --=&&@@O##$$$$$#X...Xooooo#$$$$$$$;:>>>>>>>:#.XooO&&&&@@@>qq:X...X##$$$$;:>>>>,<qeupsauw,;$##$:>        ",
"            ===&&@Ooo#######X...Xo##o#$$;;;;$$;:>>>>>>>:#.XooO&&=&&@@>ww>X...X##$$$$;:>>>>,<qeualkie<:;$#$:>        ",
"            &&&@@Ooo##$$$$$$$$$$$$$$#$$;;;;;$$;:>>>>>>>:#.XooO&&=&&@@>ww>X...Xo####$$;;:>>,<qetpssue<>;$o#;>        ",
"          2=@OOOO##$$$$;:::>>>>>>>:;;;$$$$$$$$;:>>>>>>>:#.XooO&&==&@@>qq:X....XXXooo###$;>>,<wrtuurw<>;$oo$;>>      ",
"          -=@.XoO#$;;::>>,,<<<<<<<,,>>:;;$$$$$$;:>>>>>>:#.XooO&&==&&@;,,;X.....Xo##$$$;:>,<qwerrrrew<,:$$$$;:>      ",
"          @@o.XO@&;;:>,,<<qqwwwwwwwwq<,>>:;$$$##$;;:>>>:#.XooO&&===&&&::$X...Xo#$;:>>,<<qwertuuiuuureq<>>:$$:>      ",
"          ooXo#$&;::>,<<qqwweeewwwwewq<<<<,>>:$##$$;:>>;#.Xoo@&====&&@&@OXXXo#$;::>>,<qqwwrtuuippassksirq,:;::      ",
"        ooooO+$;;::>>,<<qqwweewwwwwwwwqweeewq<>;##$$;;;;#.Xoo@&=--=&&@@@OoX#$;:>>>::>,<qqwertuuipkxcvvxatw<>;;:>    ",
"        ooo#+$;:::>>,,<<qqwwwwwqqqqqqqqwerrrewq,>;;;$$$$o.Xoo@&=-==&@@OO###$;::>>:;:>>,<qqwerttuisxvvvcxlatq:$:>    ",
"        oo++$;;;::>>,,<<qqwwwwqq<<<<<<<qweeereewq<>::;#o..Xoo@&===&$##oo#$;;;;;;;;;:>>,<<<qwerrrupslxccvvckr,$:>    ",
"        o#@@;;;;::>>,,<<qqwwqqq<<<<<<<<<qweeeeeew<>::$#X..XXXO&&&@Ooooo#$$;;;;$$$$;:>>,,,<<qweeertupslxvvvzpe>>>    ",
"      ###@@&;;;;::>>,,<<qqqq<<<<<,,,,,,<qwwwwwqq<,>;;$$#X....XOOOOXXXo#$$$$$$$$$$$;:>>>>>,<qqwwwweerupslxxzkuw<,>>  ",
"      ###@%&;;;;::>>,,<<<qq<<<,,,,,,,,,<<qqq<<,>>>:;$$$$#o###$;:>><<,>:;;;;;$$$$$$;;:>>>>>,<<<qqwwwweruiaslkpue<,>  ",
"      XO@%%&;;;;::>>,,,<<<<<<,,,,,,,,,,,<<,,,>>::;;;;;;;$$;::>,qwruute<>:>>::;$$$$$$;;:::-1,,,<<qqqwwertuiasaptw<,  ",
"      .O@%%&;:;;::>>,,,>>>>>>>,,,,,,,,,,,>>>>::;$$;;;;;;;;:>>,<wetiiue<>>>>>>:;$$$$$$$;;***->>,<<<qqqwwertupapurwq  ",
"    ...XO@%%**;;::>>>>>>>>>>:>>>>>>>>>>>>>>:;;$$;;;;;;;;;;:>>>,<werreq<,,,,,,,>::;$$$$$$&%&&::>>>,<<qqwwertuiiiurw,:",
"    ....XO@%**;;::>>>>:::::;;;:>>>>>>>>>>::;$$$$;;;;;;;;;;;:::>>,<<<,,,,,<<<<<,>>:$$$$$$@OO@$;::>>,,<<qqwerttuiute<>",
"    ....Xo#@%&;:::::::>>>>>>::::::::::::;;$$$$$;;;;;;;$$$$$$;;;;:::>>>>>>,<<q<<,,>:;$###oXXo#;:>>>>>>,<<qweertuurewq",
"    XX..Xo##@&;::::::>,<<ettw<>:;;;;;;;;$$$$$$;;;;;;;;$$;;;$$$$;;><<>>>>>,,<qq<<<,>:;$$#X.X#$;>,<<<,,>,,<qweerttreww",
"  .XOOX..Xo##@&;::;:>,<wrpllie<>:;$$$$$$$$$;;;;;;;;;;;$;:::;;;;:>qrr<>>>>,,<qqqqq<,>>:$#XX#$;>,qeeeeq,>>,<qweerreeww",
"  XOOOX...Xo#@%&;::>,<qwrpllatw,>:$$##$$$$;;;;;;;;;;;;$;:::;;;;:>qrr<:>>,,,<qqqqqq<,>>;#Xo#;>><wrtutw<,>,<qwwerrewww",
"  OO@OX...Xo#@%&;:>,,,<qwtppitw<>>;$$#$$$$;;;;;;;;;;;;$$;;;$$$$;;><<>:>>,,,<qqqqqq<,>>;#oo#;>,qwruiirw<,,<qqwweewwww",
"  OO@OX...Xo#@%&;>,,,,,<qwerrrw<>>:;$$$$$$;;;;;;;;;;;;$$;;;;$$$$;><<>>>>,,,<<qqqqq<,,>:$#o$;:,qetpllprq<,,<qqwwwwwww",
"  OO@OX....X#@%%*>,,,,>,<<qwwq<>>:$$$$;;;;;;;;;;;;;;;;$;:>>:;;;;>qrrq>>>>>,<<<qqwwq<,>>;$#$$:>qrilcclue<,,,<qqwwwwww",
"  OO@@O....X#@%%*-,,,>>>,,,,,>>:;;$$$;;:;;;;;;;;;;;;;$$$::::;$$;>qrr<>>>>>,,<<qqwwqq<,>:$#$$;>qrilcclirq,>,<<qqqqqqq",
"  O@@@Oo...X#@%%*-,,>>>>>>>>:;;$$$$$$;::;;;;;;;;;;$$$$$$$$$$$$$$$>,,>;>>>>,,<<qqwwqq<,>:$#$$;>qetpllshrw,>,,<<<<<<<<",
"  O@&&@OX..Xo#@%*:>,>>>>>>:;;$$$#$$$;;::;;;;;;;;;;;$$$$$$$$$$$$$$$$$$;:>>>,<<<qqwwwq<,,>;$$$;><wrupajhtw,>,,,,>>,>>>",
"  O@&&@OX...o##$;:>>>>>>:::;;$$#$$$;;:::::::::::::;;;;;;;;;;;;;;;;;;;;:>>,<<<qqqwwwwq<,>:;$$$:,q70hhjhtw,>,,>1=::>>>",
"  O@&&@@o...Xo#$$;:>>>>::;;;;$$$$;;;:::::::::::::;;;;;;;;;;;;;;;;;;;;;;:>>,,<<<qqqqqq<<,>:$$$;><60yhhhtw,->>-=&&;;;;",
"  O@&&&@Oo..Xo##$$;;;;;:;;;;$$$$;;;;::::;;::::;;;;$$$$$######$$$$$$$$$$$$;:>>>,,<<<<<<<<,>:$$$:><60yyyrw>====&&$$$$$",
"  O@&&&@OOXXoo###$;;$$;;;;;$$$$;;:;;::::;;;;;;;;;$$###oooooooo###########$$;;;:>>,,,<<<<<,>;$$;:><7000eq>&&&&@$$$$$$",
"  O@&=&@@OOOoo###$$;$$;;;;$$$$$;::;;::::;;;$$$$$$$####oooooooo############$$$$$;:>,,<<<<<<,>:;$$:><677w<>&@OO#######",
"  O@&=&&@@OOOoo###$$$$$;;$$$$;;;::;;;;;;;$$$$########ooXXooooo#################$$:>>,,<<<<<,>:$$;:>,46<,:@Oooo######",
"  XO&==&&@@@OOXXo#$$$#$$$$$$;;:::::;;$$$$$$#oXXXXXXXXXX..XXooo##################$$$;:>,<qqq<,>:;$$:>>>,>;Ooooooooooo",
"  .O&====&&@@OoXXo#$$####$$;;:::;;;;$######oX.............XXoo#####################$$:>,<qqq<<>:;;;;;:::$ooooooooooo",
"    @&=-=&&&@@OOXX##$$$$$$;;:::;;$$##ooooXXX..............XXoo######################$$:>>,<<qq<,>>:;;;:;$#oooooooooo",
"    O&=-==&&&@@OXX##$$$$$;;:::;;$##oX.....................XXoo#######################$$;;:><<q<<<,>>>>:;$#oooooooooo",
"    X@=-===&&&@OXX##$$$$;;:::;;$#XXX......................XXoo########################$$$$:>,,<<<q<<<<,>$#oooooooooo",
"    .@*=====&&@OXX#$$$$;;:::;;$#X.........................XXoo###########################$$;:>,<<qqwwwq<>$#ooooooooo",
"      &&=-==&&@OXX#$$$;;:::;$#oX..........................XXoo############################$$;:>><qqwerreq>$ooooooo  ",
"      O&=-==&&@Oo#$$$$;;::;$#oX...........................XXoo#############################$$;;>><qwrtuute,$#ooooo  ",
"      X@=--=&@Oo#$$$$$;::;$oXX............................XXoo##$$##########################$$;:>><wruuppie>$ooooo  ",
"      -**===&@o#$$$$$$;:;$o...............................XXoo##$$###########################$$;;:>qetiasauw:oXooo  ",
"    5555-&&&@@#$$$$$$$;;$#X...............................XXoo##$$##########$$################$$;:>,wriasair,oXo    ",
"    55852&@@@@$$$$$$$;;$#oX...............................XXoo##$$##########$$$################$$;;><eupaapt<#oo    ",
"    55553-&@@@$$$$;;;;$#oX............................XXXXXXoo##############$$$$$$##$$##########$$;:><eupppuq;      ",
"    555553-@@$$$$;;;;$#oX.............................XXXXXXoo##############$$$$$$##$$###########$$;;>qruipuw>      ",
"    5555881$$$$$;;$$$#oX..............................XXXXXXoo#################$$$################$$;>,wruiue<      ",
"    5588851$$$$$;;$##oX...............................XXXXXXoo##################$$#################$$;><euiueq      ",
"  5588d951;$$$$$;;$#oX................................XXXXXXoo##################$$####$$##$$$$######$$;,etiurw      ",
"  589dfd4$$$$$$;;$#oX.................................XXXXXXoo##################$$####$$##$$$$$######$;>wruurw      ",
"5589dff94$$$$$;;$#oX..................................XXXXXXoo#############################$$$$$#####$$><wrtre<>    ",
"558dfgf84$$$$$;$#oX...................................XXXXXXoo##############################$$$$#####$$;><wrrrq,    ",
"559dffd82$$$$$$#oX....................................XXooXXoo####$$$$####$$######$$##$$####$$$#######$$$>qerrw<    ",
"589ddd85-$$$$$#oX.....................................XXooXo######$$$$####$$$#####$$##$$####$$###########;,wrrwq    ",
"589d9841;$$$$#oX......................................XXooX#$;    ########$$$$##############$$##$$##$$###$:<erwq    ",
"589d952;$$$$##X.......................................XXooX#;:    ########$$$$##############$$##$$##$$####;,erwq    "
};
