/* XPM */
static char *shoot31682590685[] = {
/* columns rows colors chars-per-pixel */
"83 103 68 1 ",
"  c None",
". c black",
"X c #070707",
"o c #0B0B0B",
"O c #170F07",
"+ c #0B1707",
"@ c #1F170B",
"# c #131313",
"$ c #1B1B1B",
"% c #2B230F",
"& c #372313",
"* c #332B13",
"= c #3F2F17",
"- c #3F2B1B",
"; c #232323",
": c #272727",
"> c #2F2F2F",
", c #373737",
"< c gray23",
"1 c #43331B",
"2 c #4B371B",
"3 c #533F1F",
"4 c #473323",
"5 c #533F2F",
"6 c #5F4323",
"7 c #6B4727",
"8 c #774F2B",
"9 c #7F532F",
"0 c #434343",
"q c gray28",
"w c #4B4B4B",
"e c gray31",
"r c gray34",
"t c #5B5B5B",
"y c gray39",
"u c gray42",
"i c #6F6F6F",
"p c #777777",
"a c gray50",
"s c #875733",
"d c #8F5F37",
"f c #9B633B",
"g c #A36B3F",
"h c #AB6F43",
"j c #B37347",
"k c #BF7B4B",
"l c #CB7F4F",
"z c #CF8353",
"x c #D78B5B",
"c c #DF9363",
"v c #E79B6B",
"b c #EFA373",
"n c #838383",
"m c #8B8B8B",
"M c #979797",
"N c #A7A7A7",
"B c gray67",
"V c gray70",
"C c gray75",
"Z c #FFB383",
"A c gray78",
"S c #CBCBCB",
"D c LightGray",
"F c gray86",
"G c #DFDFDF",
"H c #E7E7E7",
"J c #EFEFEF",
"K c white",
/* pixels */
"                      yyyyyyy                                                      ",
"                    >00,<euipu>                                                    ",
"                   :>0,><0<tiy,.                                                   ",
"                   $,0:>,,>eyt0>                                                   ",
"                   #0r;:>>:<qq<>.                                                  ",
"               :::#;rr:;:::>0qq<.                                                  ",
"             $:::<#;rr:##::><0q<.                                                  ",
"            .$:$<<#;rq:##::>,<0<#                                                  ",
"            ..;#<<#;0q:##$;>>,<,$.                                                 ",
"            ..$#:,#;<0>##$;>>>,>:.                                                 ",
"            ..##$:o;:0>##$;:>>>:>.                                                 ",
"            ..@#$#o$;<>##$;:>:>:>#                                                 ",
"            ..@##:o$;,>$#$$:>;:;>:.                                                ",
"            ..@##:o#;:>$##$;:;$;>:.                                                ",
"            ..@##oo.;:>$###$$;$;>>.                                                ",
"            ..@o#o..;;>$#o#$$;$$:>.                                                ",
"            ..@ooo..;;>$#o#$$;$$:>..                                               ",
"            ..@ooo..;;:$#o#$$;$$$>..                                               ",
"            ..@ooo..;;:;#o#$$$;$$>#.                                               ",
"            ..@ooo..;;:;#oO$$$;$$>$.                                               ",
"            ..@ooo..;;;;#oO$O#;$$>:.*                                              ",
"            ..@oo...$;;;#oO#O@;$$:>.*                                              ",
"            ..@oo...$;$;#oO#OO;$$:>.*                                              ",
"            ........#;$;#oO#OO$$@$>.*                                              ",
"            .........;$$#.OOOO$$@$>.%=                                             ",
"            .........;$$#.OOOO$$@$>$O=                                             ",
"            .........;$$#.OOO@O$@$>:.*                                             ",
"            .........;$##.OOOO@$@@:>.*                                             ",
"            .........;$##.OOOOO@@@$>.*17765                                        ",
"            .........;$##.OOOO@@@@@>.%=jZc2*                                       ",
"            .........;$##..OOOO@@@@>.@=fxj8=                                       ",
"            .........;$##o.OOO@@@@@>$O*7djs2*                                      ",
"            .........$;#Oo.OOOO@@@@>:.*38fs72                                      ",
"            .........$;#Oo.OOO@@@@@:>.%=6fs3d*   8dd97                             ",
"            .........#;$#o.OOO@@@@@@,.%=3ff6d=  6$22262                            ",
"            ..........;$#o.OOOO@@@@@<.@*3sf77==*2$266622                           ",
"            ..........;$#o.OOOO@@@@@<$O*39gs22$3%=3ds86%%                          ",
"            ..........;$#o.OOOO@@@@@,:.%=7hd2%$*%=7d8882*%                         ",
"            ..........;$#o.OOOOO@@@@><.@=2gf3%$*%%7776786962                       ",
"            ..........;$#o..OOO@@@@@:q.O*=fg6=@..O=666363sjfs                      ",
"            ..........;$#o..OOO@@@@@@0..*=dh71O...%23666==68g8                     ",
"            ..........;;#...OOO@@@@@@0$.*=sgs2%O..%88g=%%%%36gd                    ",
"            ..........$;#...OOOOO@@@@0:.%=8fs3%.+3%787796%%%2379                   ",
"            ..........$;#...OOOO@@@@@,<.@=7df6=+=7%*6666866%%3=37                  ",
"            ...........;$...OOOOO@@@@>q$.*6sg71+32%%*3233326s%%+%39                ",
"            ...........;$...OOOO@@@@@@e:.*18hs2+2%%O&*=====%6s%%+%2                ",
"            ...........;$...OOOOO@@@@@e,.%=7gd3%%%OO&=6j3=%%=6ssO++9               ",
"            ...........;$...OOOOO@@@@@e,.@=6ff6=O+OO&&6hdsO%%=6dd++%               ",
"            ...........;$....OOOO@@@@@qq$O*1dg7=+O%OO&2s988OO%=6d6++6              ",
"            ...........;$....OOO@@@@@@,q:.*1shs=+OO%O&276369%O%=8d%+O7             ",
"            ...........;$....OOOO@@@@@>e,.%=8jd3@OO%OO=232269%+%223%+=8            ",
"            ...........;;....OOOOO@@@@@e,.%=7kf6@@@OOO%==*=2797+%%32%+%9           ",
"            ...........$;....OOOO@@@@@@eq.@=6gg7*@O%OOOO%%*==68h=+O3ss%%9          ",
"            ...........$;....OOOO@@@@@@eq$O*2dgs=%@%%@@OO%%*==3d97+O2df3Od         ",
"            ...........#;....OOOOO@@@@@eq:.*1shd2%%.%OOOOO%%*==7797++*8d7=         ",
"            ............;....OOOO@@@@@@qe,.%=7jf6%%%.%OO+OO%%*=337d7O+28888        ",
"            ............;.....OOOO@@@@@,e,.@=6gg72%%.+=OOO%**11==3ddj2+=2=68       ",
"            ............;X....OOOO@@@@@>eq.O=1fhs3=%%.+%%+OOOO@%%%66s9962%%68      ",
"            ............;o....OOOOO@@@@@eq$.*=djf83=%%.+6%+++OO@%%%=228gk8O%68     ",
"            ............;#....OOOO@@@@@@eq:.%=skg87==%%.+6+++O+O@%%%%==8997%%38    ",
"           .............;$....OOOOO@@@@@qq,.@=7hf888=%%%.+*+++++O@%%%%%=638d968    ",
"           .@...........;$....OOOO@@@@@@,e,.O*6sg8s86=%%%.+*%+OOOOO@@%%%=137hhj8   ",
"           .@O..........;;....OOOOO@@@@@>eq..*18hss863=%*..++%++++O+%*==22337ddl2  ",
"          *.@O..........$;....OOOOO@@@@@@eq$.*=7gd88633=%%...+%%+++OOOOO@%%127ddl8 ",
"          *.@O..........$;....OOOO@@@@@@@tq:.%=6ff886633=%...++=%+++++O+O@%=117dhd7",
"         =*.@O..........#;....OOOOO@@@@@@tq,.@=1dg8866362%%....*6**%O+++O+@%=17sds%",
"         6%.@O...........;....OOOOOO@@@@@trq.O*1shs866362=%.....%*++++OO++O=123797%",
"        =6%.@O...........;.....OOOOO@@@@@eey$.*=8jd866362==+....+*@++OO+++O%==1373%",
"        36%.@O...........;o....OOOO@O@@@@qey:.%=7kf866372=2+....+%*+++++OOO+%=37312",
"        68%.%O...........;#...OOOOO@@@@@@,ei,.@=6gg776672=2%@....+++++O++OO%222=1% ",
"       678%.%O...........;$....OOOOO@@@@@>tir.O*2dg97867222*@.....+++++OO+%OOOO=1% ",
"       678%.%O...........;$....OOOO@@@@@@@tiy..*19997867222=@...+++%+++++++O+OO=1: ",
"       678%.%O...........;;....OOOOO@@@@%@tii..@=3377867223=%@.++%%++++++++OO+*1%  ",
"       678%.%O...........$;....OOOOO@@@@%@eip$....==3767623=%@..+=++++++OOOO%*%1%  ",
"       66s%.=O...........$;....OOOOOO@@@%@qin:.......=37623==@@.+=+OOOOO%%%%%*=1%  ",
"       66s%.%O...........o;.....OOOOO@@@%@,yM0...:;...%=326==%%.+%%+OO%%%%==679%;  ",
"       638%.%O............;.....OOOO@O@@%@>tNi...0<,$..%==7=2%%.++++OOO+%%%=266%   ",
"       627@.@O...........o;.....OOOO@@@@%@@tNM#..,qeq;..:=2=2%%@.%%+OOO+O%O%=26%   ",
"       6%3%.@O...........o;.....OOOOO@@@%@@tNC$..>eeeq0..%%=3%%%.O%%+++O%=%%=621   ",
"       3%%@.@O.......O...o;o...OOOOO@@@@%@@eNS:..;0etey0..%%2%**.OO%=%++O%=12=.    ",
"        *%%.%O.......O..oo;#....OOOOO@@@%@@qMF,...eeerryq..%*%==.+O%==%++O%3=.+    ",
"        s%%.@O.......O..o.;$....OOOOOO@@%@@,MHi...,eeeeeyq..%%22@++O%O=%++O3*.     ",
"       s62%.%O.......O...o;$....OOOOO@@@%%@>aHi#..>eetteet0..%=6%++OOOOOOOO3%.     ",
"      s68d%.@O.......O..oo;;.....OOOOO@@%*@@iJM$..;eeettriy>..:6=+OO%%OOOO+=.+     ",
"      s68d3.*O.......O..o.$;....OOOOO@O@%*@@yJM:...eeeeertip;.+2=OOOO%%OOO@=.      ",
"      s6772O*O.......O..o.$;....OOOOOO@@%*@@>JAr..$0eeeettyip$.%3OOOO@%%O+%+.      ",
"      s636%@%O......OO...o#;...O.OOOO@@@@=@@>JJy..$>eeetttyumt..*O%%@O%=%O%.+      ",
"      s66d.%@O......OO...oo;.....OOOOOO@@=@@>JJi#..>ryuettypim0..O=1;@*3=O+.       ",
"      6266.%@O......OO..ooo;....OOOO%O@@@*%@>AJM$...rreppeyypam>.O=3=%=6=%..       ",
"     6%@4-.%@O......OO.Oooo;o....OOO*@O@@%%@@AJB:..$0rrrupeyuaat;;%23663=%.:       ",
"     6%@@@.%@O......OO.O.oo;#..O.OOOOO@O@%%@@MKA,..$,rrrrypwyypat;%=2332%O.        ",
"    377g%%.=@O......OO.Oooo;$..o..OOOOO@@%%@@pKD,#..>rrrrrryrwyanq;%122=%.         ",
"  636786%%.=@O......OO.Oooo;$..o..OOOOO@>%%@@pKGq$..$rerrrrty00yat>%=%%%O+         ",
"  3333=*%%.%@O......OO.OOoo;;...oOOO=O@%,%%@@yKKt:...reerrrtyu0<uuw%%%%%.          ",
" 6233*%@@@.%@O......OO.OOoo$;..o..O%6%O*t>%%@0KKM:#.$0eeerertyu0>tw>OOO%           ",
" 322*@@%%%.%@O......OO.OOoo$;..o..OO=@O*p0%%#0KKV,:.$,eeerrrttuu0<wwOO             ",
" 3*%@%3222.%@O......OO.OOoo#;..o..OOOO@*pe%%$yKJKq:..>eeerreryypu>>w               ",
" 6%%@37766.%@O......OO.O@.o#;..O..OO*OO*uq,%$pKKKMq#.$eeerrertyupt>w               ",
" s@@3fffs6.%@O......OO.O@oo#;..%o.O*6*O*qe0%0MKJJGMq..0eeeeerttyupe>               ",
" sO3ghhhs6.%@O......OO.O@.o#;o.:@..O*O@%#$$;;0eiMGKp..,eyeerrrrtyuu>;              ",
" 639czzcd6.%%OO.....OO.O@oo#;#.,@O.OOO##...o#;...<pp..>eyereeeytruye;              ",
" 29lcvvcd2.%%@OO....OO.O%oo#;$.0:..OOO...........o#$.>$eeerrreerttyu>              ",
"29jbvcccd=O%@@O.....OO.O%oo#;$.e0.oO......;>0t0.....$.q0eerrrerertyye0             "
};
