/* XPM */
static char *shoot01682590684[] = {
/* columns rows colors chars-per-pixel */
"58 55 53 1 ",
"  c None",
". c black",
"X c #070707",
"o c #0B0B0B",
"O c #170F07",
"+ c #171F07",
"@ c #1F170B",
"# c #131313",
"$ c #1B1B1B",
"% c #2F1B0B",
"& c #2B230F",
"* c #372313",
"= c #332B13",
"- c #3F2F17",
"; c #232323",
": c #272727",
"> c #2F2F2F",
", c #373737",
"< c gray23",
"1 c #432F1B",
"2 c #43331B",
"3 c #533F1F",
"4 c #4F3B23",
"5 c #5F4323",
"6 c #574333",
"7 c #5F4B37",
"8 c #774F2B",
"9 c #7F532F",
"0 c #67533F",
"q c #434343",
"w c gray28",
"e c gray31",
"r c gray34",
"t c #5B5B5B",
"y c #775F4B",
"u c gray39",
"i c gray42",
"p c #6F6F6F",
"a c #777777",
"s c gray50",
"d c #875733",
"f c #8F5F37",
"g c #9B633B",
"h c #836B57",
"j c #8B735B",
"k c #838383",
"l c #8B8B8B",
"z c #939393",
"x c #979797",
"c c #A7A7A7",
"v c gray70",
"b c gray78",
"n c LightGray",
/* pixels */
"                             <u                           ",
"                     rwwwwww $< >>,,wer                   ",
"                   q$.#$;,<<>$,#O#$,qttwq                 ",
"                  q&..#$;,,,>..=O#$;<wuw<q                ",
"                 q&o..#$;,,,>..=O#.;,qrt<;q               ",
"                 q&o.o#$;,,,>..=&#.$>,wuq;<               ",
"                q&@o.o#$:,,,>..&&#.$:>qre>;q              ",
"                <=o..o#$:,,,:..&&#..$>,ww,;<              ",
"               q&&o..##;:,,,:..&&@O.$:,qq<:#q             ",
"               q=@o.o##;:,,,:..&&@O.$:>,<<>$q             ",
"              q&&oo.o#$;:,,,:oo&&@O.$::>,<q;#q            ",
"              q=@o..o#$::,,,;oo&&@@..$;>,<q>$q            ",
"             ,&&oo..o#$::,,,;oo&&@@..$;>>,<,;#,           ",
"             q&@oo.o##$:>,,,;oo&&@@..$;:>,,q;$q           ",
"            ,&&ooo.o#$$:>>,>$oo&&@@O.$;:>>,q,;#,          ",
"            &=@oo..o#$$:>>,>$oo&&@@O..$:>>,<e;#,          ",
"           ,&&o#o..o#$$:>>,>$oo&&@@O..$:>>><w;$#,         ",
"           q=@o#o.oo#$$:>>>>$oo&&@@O..$;:>><w,;;q         ",
"          q&&o##o.oo$$$:>>>>$oo&&@@Oo.$$:>><we;#;q        ",
"          q=@o#o..oo$$$:>>>>$oo&&@@@o..$:>>,we;$.q        ",
"         ,&&o#$o..oo$$$:>>>>$oo&&@@@o..$$>>,<w,;.;,       ",
"        9q=@o##o.ooo$$$:>>>>$oo&&@@@o..$$:>><we;#.q       ",
"        ,&&o#$#o.ooo$$$:>>>>#oo&&@@@o..$$:>>,qew$.;,      ",
"        ,=@o#$o..ooo$$$:>>>>#oo&&@@&o..$$:>>,<eu;..,      ",
"       ,&&o#$$o..ooo$$$:>>>>#oo&&@@=o..#$$:>>,epw#.$,     ",
"       4=@o#$$o.oooo$$$:>>>>#oo&&@@,o..#$$:>>,qpu:..w     ",
"      2=&@#$$$..oooo$$$:>>>>.oo&&@@qo..#$$:>><qisw:.$>    ",
"      =&@.o###..o#o;;:$:>>>>.oo&=@@to..#$$:>><qizt>;.>    ",
"     2.Xo$;;>>,,,::$$$$:>>>>.oo&=&@qo.......:>qeeq,$.$>   ",
"     o.X&;><qweewew,>$$.$;>>.oo&==@&o..#:><wwtuppue,,#>   ",
"    oo+::>,<qweqqwwwrrw>.$$;.oo=-=@@oo:>>;><qetuavnxe<#>  ",
"    o+;;:>,<qwqq<<<<werrw>:..oo==##.$:;$$;><<qeetplvnp#>  ",
"   ##%;;:>,<qq<,,,,,qwq,,;$$.......$$$$$$;>>><qqwwtikxt<> ",
"   .%%:;:>,,,,,,,,,,,>>:$;;:$>>wtau>>>:#$$$:*1><qqqetpsr< ",
"  ..o%*;:>>:::;>>>>>>:$$;;;;;:>>qw,,<<<>:#$$@@::><qqetupr:",
"  ..o#%::::>>>:;;:::$$$;;;;$$$$$$$>>><q<,:##..#>>:>,qeeuew",
" .@..o#%:;,wucu,:##$$;;;;;;$>:::,p:>,,qqq,>$.$><tt<>,qerew",
" O@..o#%:,,,wtuq>:#$$;;;;;;$$$$$$$:>,,qqq,>$.$>wtae,,qqeww",
" O@...#%*,,><<<>:#$:;;;;;;;$>>;;,p>>>,<qwq,>#$:wabaq>,qqww",
" O&O..#%*,>>>:$$#$;:;;;;;$$#######$>>,<qwq,>#$:wtaje>,,,,,",
" O&@..o#;>>>;:;#$;::::::::::::::::::,<qqwwq,:#$<7hje-,-&::",
" O=@O.o##;$;;;#$:;::;::;;##oooo######::>,,<<<;#:<0ye&&&$$$",
" O=&OOo##;$;;#$;:;::;$$####oooo#########:,<<<,:#:<6q&oo###",
" .==&@O.o$###$::::$$$#.......Xo###########:,wq,:#;:>oooooo",
"  @-=&@@.#$$$:::$#...........Xo############::<w<,:;;#ooooo",
"  .-==&@.#$$:::$.............Xo##############:><qqq,#ooooo",
"   @-=&@.$$;::#..............Xo###############;:<wttqoooo ",
"   .--@.$$$::................Xo#$##############;:<tpsqooo ",
"  58@@@$$$$:#................Xo#$#####$#########;:wpsioo  ",
"  553@@$$::#...............XXXo#######$$$#$######;:epp:   ",
"  55d$$$:##................XXXo#########$#########;,rpq   ",
" 58g$$$$:#.................XXXo#########$##$#$$####;rpw   ",
"58gf$$$:#..................XXXo###############$$###;,rt>  ",
"5df8$$$#...................XoXo##$$##$###$#$##$######qtq  ",
"5d8;$$#....................XoX:  ####$$#######$#$#$##;tq  "
};
